<svg xmlns="http://www.w3.org/2000/svg" viewBox="0 0 400 280">
  <rect width="400" height="280" fill="#3F5F7A"/>
  <circle cx="320" cy="50" r="80" fill="#FAF6E8" opacity="0.06"/>
  <circle cx="80" cy="240" r="60" fill="#B9C98A" opacity="0.06"/>
  <!-- Stylized city outline -->
  <g transform="translate(120, 40)" opacity="0.25">
    <path d="M80,10 L120,0 L150,20 L170,15 L180,40 L175,80 L185,120 L170,160 L140,180 L100,185 L60,170 L30,140 L10,100 L20,60 L40,30 Z" fill="#FAF6E8" stroke="#FAF6E8" stroke-width="1.5"/>
    <!-- Ward grid lines -->
    <line x1="60" y1="30" x2="140" y2="170" stroke="#3F5F7A" stroke-width="0.8" opacity="0.4"/>
    <line x1="30" y1="100" x2="175" y2="80" stroke="#3F5F7A" stroke-width="0.8" opacity="0.4"/>
    <line x1="80" y1="10" x2="100" y2="185" stroke="#3F5F7A" stroke-width="0.8" opacity="0.4"/>
  </g>
  <!-- Location pin -->
  <g transform="translate(200, 110)">
    <path d="M0,-20 C11,-20 20,-11 20,0 C20,14 0,30 0,30 C0,30 -20,14 -20,0 C-20,-11 -11,-20 0,-20Z" fill="#C45A2A" opacity="0.7"/>
    <circle cx="0" cy="-2" r="6" fill="#FAF6E8" opacity="0.8"/>
  </g>
  <!-- State label -->
  <text x="200" y="250" text-anchor="middle" fill="#FAF6E8" font-size="11" opacity="0.35" font-weight="500" letter-spacing="0.1em">GUJARAT</text>
</svg>