<svg xmlns="http://www.w3.org/2000/svg" viewBox="0 0 400 280">
  <rect width="400" height="280" fill="#2F4A2C"/>
  <circle cx="330" cy="60" r="80" fill="#B9C98A" opacity="0.08"/>
  <circle cx="70" cy="230" r="60" fill="#F5B82E" opacity="0.06"/>
  <!-- Stylized city outline (Bengaluru is roughly blob-shaped) -->
  <g transform="translate(110, 30)" opacity="0.3">
    <path d="M90,5 L130,15 L160,10 L180,35 L185,70 L190,110 L180,145 L160,175 L130,190 L90,195 L55,185 L25,160 L10,125 L5,85 L15,50 L40,25 L65,10 Z" fill="#FAF6E8" stroke="#FAF6E8" stroke-width="1.5"/>
    <line x1="40" y1="25" x2="160" y2="175" stroke="#2F4A2C" stroke-width="0.8" opacity="0.4"/>
    <line x1="15" y1="100" x2="185" y2="90" stroke="#2F4A2C" stroke-width="0.8" opacity="0.4"/>
    <line x1="90" y1="5" x2="90" y2="195" stroke="#2F4A2C" stroke-width="0.8" opacity="0.4"/>
    <line x1="5" y1="85" x2="180" y2="35" stroke="#2F4A2C" stroke-width="0.8" opacity="0.3"/>
  </g>
  <g transform="translate(200, 120)">
    <path d="M0,-20 C11,-20 20,-11 20,0 C20,14 0,30 0,30 C0,30 -20,14 -20,0 C-20,-11 -11,-20 0,-20Z" fill="#C45A2A" opacity="0.7"/>
    <circle cx="0" cy="-2" r="6" fill="#FAF6E8" opacity="0.8"/>
  </g>
  <text x="200" y="250" text-anchor="middle" fill="#FAF6E8" font-size="11" opacity="0.35" font-weight="500" letter-spacing="0.1em">KARNATAKA</text>
</svg>