<svg xmlns="http://www.w3.org/2000/svg" viewBox="0 0 400 280">
  <rect width="400" height="280" fill="#3F5F7A"/>
  <circle cx="60" cy="50" r="70" fill="#F5B82E" opacity="0.06"/>
  <circle cx="340" cy="240" r="60" fill="#B9C98A" opacity="0.06"/>
  <g transform="translate(120, 35)" opacity="0.25">
    <path d="M70,5 L120,10 L155,30 L170,65 L175,105 L165,140 L140,170 L105,185 L65,180 L30,160 L10,125 L5,85 L15,50 L35,25 Z" fill="#FAF6E8" stroke="#FAF6E8" stroke-width="1.5"/>
    <line x1="35" y1="25" x2="140" y2="170" stroke="#3F5F7A" stroke-width="0.8" opacity="0.4"/>
    <line x1="10" y1="110" x2="170" y2="65" stroke="#3F5F7A" stroke-width="0.8" opacity="0.4"/>
  </g>
  <g transform="translate(200, 115)">
    <path d="M0,-20 C11,-20 20,-11 20,0 C20,14 0,30 0,30 C0,30 -20,14 -20,0 C-20,-11 -11,-20 0,-20Z" fill="#C45A2A" opacity="0.7"/>
    <circle cx="0" cy="-2" r="6" fill="#FAF6E8" opacity="0.8"/>
  </g>
  <text x="200" y="250" text-anchor="middle" fill="#FAF6E8" font-size="11" opacity="0.35" font-weight="500" letter-spacing="0.1em">ODISHA</text>
</svg>