<svg xmlns="http://www.w3.org/2000/svg" viewBox="0 0 400 280">
  <rect width="400" height="280" fill="#C45A2A"/>
  <circle cx="320" cy="50" r="80" fill="#FAF6E8" opacity="0.06"/>
  <circle cx="60" cy="240" r="60" fill="#F5B82E" opacity="0.06"/>
  <!-- Chennai: elongated coastal shape -->
  <g transform="translate(130, 25)" opacity="0.25">
    <path d="M60,5 L100,10 L130,30 L140,70 L145,110 L140,150 L130,180 L110,200 L75,205 L45,195 L25,170 L15,130 L10,90 L20,50 L35,20 Z" fill="#FAF6E8" stroke="#FAF6E8" stroke-width="1.5"/>
    <line x1="35" y1="20" x2="130" y2="180" stroke="#C45A2A" stroke-width="0.8" opacity="0.4"/>
    <line x1="10" y1="90" x2="145" y2="110" stroke="#C45A2A" stroke-width="0.8" opacity="0.4"/>
    <!-- Coast line -->
    <path d="M130,30 L145,110 L130,180" fill="none" stroke="#FAF6E8" stroke-width="2" opacity="0.3" stroke-dasharray="4,3"/>
  </g>
  <g transform="translate(200, 115)">
    <path d="M0,-20 C11,-20 20,-11 20,0 C20,14 0,30 0,30 C0,30 -20,14 -20,0 C-20,-11 -11,-20 0,-20Z" fill="#F5B82E" opacity="0.7"/>
    <circle cx="0" cy="-2" r="6" fill="#FAF6E8" opacity="0.8"/>
  </g>
  <text x="200" y="255" text-anchor="middle" fill="#FAF6E8" font-size="11" opacity="0.35" font-weight="500" letter-spacing="0.1em">TAMIL NADU</text>
</svg>