<svg xmlns="http://www.w3.org/2000/svg" viewBox="0 0 400 280">
  <rect width="400" height="280" fill="#2F4A2C"/>
  <circle cx="340" cy="240" r="80" fill="#F5B82E" opacity="0.06"/>
  <circle cx="60" cy="50" r="60" fill="#FAF6E8" opacity="0.04"/>
  <g transform="translate(125, 35)" opacity="0.25">
    <path d="M75,5 L115,15 L145,40 L155,80 L150,120 L135,155 L105,175 L70,180 L40,165 L15,135 L5,95 L10,55 L30,25 L55,10 Z" fill="#FAF6E8" stroke="#FAF6E8" stroke-width="1.5"/>
    <line x1="30" y1="25" x2="135" y2="155" stroke="#2F4A2C" stroke-width="0.8" opacity="0.4"/>
    <line x1="5" y1="95" x2="155" y2="80" stroke="#2F4A2C" stroke-width="0.8" opacity="0.4"/>
  </g>
  <g transform="translate(200, 112)">
    <path d="M0,-20 C11,-20 20,-11 20,0 C20,14 0,30 0,30 C0,30 -20,14 -20,0 C-20,-11 -11,-20 0,-20Z" fill="#C45A2A" opacity="0.7"/>
    <circle cx="0" cy="-2" r="6" fill="#FAF6E8" opacity="0.8"/>
  </g>
  <text x="200" y="250" text-anchor="middle" fill="#FAF6E8" font-size="11" opacity="0.35" font-weight="500" letter-spacing="0.1em">HARYANA</text>
</svg>