<svg xmlns="http://www.w3.org/2000/svg" viewBox="0 0 400 280">
  <rect width="400" height="280" fill="#3F5F7A"/>
  <circle cx="60" cy="60" r="70" fill="#B9C98A" opacity="0.06"/>
  <circle cx="340" cy="230" r="80" fill="#F5B82E" opacity="0.05"/>
  <!-- Hyderabad: wider shape -->
  <g transform="translate(105, 30)" opacity="0.25">
    <path d="M90,5 L140,15 L175,40 L190,80 L185,125 L170,160 L140,180 L95,190 L55,180 L25,155 L5,115 L10,70 L30,35 L60,15 Z" fill="#FAF6E8" stroke="#FAF6E8" stroke-width="1.5"/>
    <line x1="60" y1="15" x2="140" y2="180" stroke="#3F5F7A" stroke-width="0.8" opacity="0.4"/>
    <line x1="5" y1="115" x2="190" y2="80" stroke="#3F5F7A" stroke-width="0.8" opacity="0.4"/>
    <line x1="90" y1="5" x2="95" y2="190" stroke="#3F5F7A" stroke-width="0.8" opacity="0.3"/>
  </g>
  <g transform="translate(200, 118)">
    <path d="M0,-20 C11,-20 20,-11 20,0 C20,14 0,30 0,30 C0,30 -20,14 -20,0 C-20,-11 -11,-20 0,-20Z" fill="#C45A2A" opacity="0.7"/>
    <circle cx="0" cy="-2" r="6" fill="#FAF6E8" opacity="0.8"/>
  </g>
  <text x="200" y="250" text-anchor="middle" fill="#FAF6E8" font-size="11" opacity="0.35" font-weight="500" letter-spacing="0.1em">TELANGANA</text>
</svg>