<svg xmlns="http://www.w3.org/2000/svg" viewBox="0 0 400 280">
  <rect width="400" height="280" fill="#C45A2A"/>
  <circle cx="330" cy="50" r="80" fill="#F5B82E" opacity="0.07"/>
  <circle cx="70" cy="230" r="60" fill="#FAF6E8" opacity="0.04"/>
  <g transform="translate(120, 30)" opacity="0.25">
    <path d="M80,5 L125,10 L155,30 L170,70 L175,110 L160,150 L130,175 L90,185 L50,175 L20,145 L5,105 L10,65 L30,30 L55,12 Z" fill="#FAF6E8" stroke="#FAF6E8" stroke-width="1.5"/>
    <line x1="30" y1="30" x2="130" y2="175" stroke="#C45A2A" stroke-width="0.8" opacity="0.4"/>
    <line x1="5" y1="105" x2="175" y2="110" stroke="#C45A2A" stroke-width="0.8" opacity="0.4"/>
  </g>
  <g transform="translate(200, 115)">
    <path d="M0,-20 C11,-20 20,-11 20,0 C20,14 0,30 0,30 C0,30 -20,14 -20,0 C-20,-11 -11,-20 0,-20Z" fill="#F5B82E" opacity="0.7"/>
    <circle cx="0" cy="-2" r="6" fill="#FAF6E8" opacity="0.8"/>
  </g>
  <text x="200" y="250" text-anchor="middle" fill="#FAF6E8" font-size="11" opacity="0.35" font-weight="500" letter-spacing="0.1em">RAJASTHAN</text>
</svg>