<svg xmlns="http://www.w3.org/2000/svg" viewBox="0 0 400 280">
  <rect width="400" height="280" fill="#2F4A2C"/>
  <circle cx="60" cy="50" r="70" fill="#B9C98A" opacity="0.08"/>
  <circle cx="340" cy="240" r="60" fill="#F5B82E" opacity="0.06"/>
  <!-- Kochi: coastal, narrow -->
  <g transform="translate(140, 20)" opacity="0.25">
    <path d="M50,5 L90,15 L115,45 L120,85 L125,130 L115,165 L95,195 L65,205 L35,195 L15,165 L5,125 L10,80 L20,45 L35,15 Z" fill="#FAF6E8" stroke="#FAF6E8" stroke-width="1.5"/>
    <!-- Backwater line -->
    <path d="M5,125 L35,100 L65,130 L95,105" fill="none" stroke="#FAF6E8" stroke-width="1.5" opacity="0.3" stroke-dasharray="4,3"/>
    <line x1="20" y1="45" x2="95" y2="195" stroke="#2F4A2C" stroke-width="0.8" opacity="0.4"/>
  </g>
  <g transform="translate(200, 120)">
    <path d="M0,-20 C11,-20 20,-11 20,0 C20,14 0,30 0,30 C0,30 -20,14 -20,0 C-20,-11 -11,-20 0,-20Z" fill="#C45A2A" opacity="0.7"/>
    <circle cx="0" cy="-2" r="6" fill="#FAF6E8" opacity="0.8"/>
  </g>
  <text x="200" y="252" text-anchor="middle" fill="#FAF6E8" font-size="11" opacity="0.35" font-weight="500" letter-spacing="0.1em">KERALA</text>
</svg>