<svg xmlns="http://www.w3.org/2000/svg" viewBox="0 0 400 280">
  <rect width="400" height="280" fill="#3F5F7A"/>
  <circle cx="320" cy="60" r="80" fill="#FAF6E8" opacity="0.05"/>
  <circle cx="80" cy="240" r="60" fill="#B9C98A" opacity="0.06"/>
  <!-- Kolkata: elongated along river -->
  <g transform="translate(135, 20)" opacity="0.25">
    <path d="M55,5 L95,10 L120,35 L130,75 L135,120 L125,160 L110,190 L80,205 L50,200 L25,175 L10,135 L5,90 L15,50 L30,20 Z" fill="#FAF6E8" stroke="#FAF6E8" stroke-width="1.5"/>
    <!-- Hooghly river -->
    <path d="M25,20 L30,80 L20,140 L25,200" fill="none" stroke="#FAF6E8" stroke-width="2" opacity="0.3" stroke-dasharray="4,3"/>
    <line x1="30" y1="20" x2="110" y2="190" stroke="#3F5F7A" stroke-width="0.8" opacity="0.4"/>
  </g>
  <g transform="translate(200, 118)">
    <path d="M0,-20 C11,-20 20,-11 20,0 C20,14 0,30 0,30 C0,30 -20,14 -20,0 C-20,-11 -11,-20 0,-20Z" fill="#F5B82E" opacity="0.7"/>
    <circle cx="0" cy="-2" r="6" fill="#FAF6E8" opacity="0.8"/>
  </g>
  <text x="200" y="252" text-anchor="middle" fill="#FAF6E8" font-size="11" opacity="0.35" font-weight="500" letter-spacing="0.1em">WEST BENGAL</text>
</svg>