<svg xmlns="http://www.w3.org/2000/svg" viewBox="0 0 400 280">
  <rect width="400" height="280" fill="#C45A2A"/>
  <circle cx="340" cy="50" r="80" fill="#FAF6E8" opacity="0.05"/>
  <circle cx="60" cy="240" r="60" fill="#F5B82E" opacity="0.06"/>
  <!-- Mumbai: peninsula shape -->
  <g transform="translate(145, 15)" opacity="0.25">
    <path d="M55,5 L85,8 L105,25 L115,55 L120,95 L115,140 L105,175 L90,200 L65,210 L40,200 L25,175 L15,140 L10,95 L15,55 L25,25 L40,10 Z" fill="#FAF6E8" stroke="#FAF6E8" stroke-width="1.5"/>
    <!-- Arabian Sea coast -->
    <path d="M25,25 L15,55 L10,95 L15,140 L25,175" fill="none" stroke="#FAF6E8" stroke-width="2" opacity="0.3" stroke-dasharray="4,3"/>
    <line x1="40" y1="10" x2="65" y2="210" stroke="#C45A2A" stroke-width="0.8" opacity="0.4"/>
    <line x1="10" y1="95" x2="120" y2="95" stroke="#C45A2A" stroke-width="0.8" opacity="0.4"/>
  </g>
  <g transform="translate(200, 115)">
    <path d="M0,-20 C11,-20 20,-11 20,0 C20,14 0,30 0,30 C0,30 -20,14 -20,0 C-20,-11 -11,-20 0,-20Z" fill="#F5B82E" opacity="0.7"/>
    <circle cx="0" cy="-2" r="6" fill="#FAF6E8" opacity="0.8"/>
  </g>
  <text x="200" y="252" text-anchor="middle" fill="#FAF6E8" font-size="11" opacity="0.35" font-weight="500" letter-spacing="0.1em">MAHARASHTRA</text>
</svg>