<svg xmlns="http://www.w3.org/2000/svg" viewBox="0 0 400 280">
  <rect width="400" height="280" fill="#2F4A2C"/>
  <circle cx="60" cy="60" r="70" fill="#F5B82E" opacity="0.06"/>
  <circle cx="340" cy="230" r="80" fill="#B9C98A" opacity="0.06"/>
  <g transform="translate(115, 30)" opacity="0.25">
    <path d="M85,5 L130,15 L160,45 L175,85 L170,130 L150,165 L120,185 L80,190 L45,175 L20,145 L5,105 L10,60 L30,30 L55,12 Z" fill="#FAF6E8" stroke="#FAF6E8" stroke-width="1.5"/>
    <line x1="30" y1="30" x2="150" y2="165" stroke="#2F4A2C" stroke-width="0.8" opacity="0.4"/>
    <line x1="5" y1="105" x2="175" y2="85" stroke="#2F4A2C" stroke-width="0.8" opacity="0.4"/>
    <line x1="85" y1="5" x2="80" y2="190" stroke="#2F4A2C" stroke-width="0.8" opacity="0.3"/>
  </g>
  <g transform="translate(200, 115)">
    <path d="M0,-20 C11,-20 20,-11 20,0 C20,14 0,30 0,30 C0,30 -20,14 -20,0 C-20,-11 -11,-20 0,-20Z" fill="#C45A2A" opacity="0.7"/>
    <circle cx="0" cy="-2" r="6" fill="#FAF6E8" opacity="0.8"/>
  </g>
  <text x="200" y="250" text-anchor="middle" fill="#FAF6E8" font-size="11" opacity="0.35" font-weight="500" letter-spacing="0.1em">MAHARASHTRA</text>
</svg>