<svg xmlns="http://www.w3.org/2000/svg" viewBox="0 0 400 280">
  <rect width="400" height="280" fill="#3F5F7A"/>
  <circle cx="330" cy="240" r="80" fill="#B9C98A" opacity="0.06"/>
  <circle cx="70" cy="50" r="60" fill="#FAF6E8" opacity="0.04"/>
  <g transform="translate(120, 30)" opacity="0.25">
    <path d="M80,5 L120,12 L150,35 L165,70 L170,110 L160,150 L135,175 L100,185 L60,178 L30,155 L10,115 L5,75 L15,40 L40,18 Z" fill="#FAF6E8" stroke="#FAF6E8" stroke-width="1.5"/>
    <!-- Creek line -->
    <path d="M150,35 L120,80 L140,130 L120,170" fill="none" stroke="#FAF6E8" stroke-width="1.5" opacity="0.3" stroke-dasharray="4,3"/>
    <line x1="15" y1="75" x2="170" y2="110" stroke="#3F5F7A" stroke-width="0.8" opacity="0.4"/>
  </g>
  <g transform="translate(200, 115)">
    <path d="M0,-20 C11,-20 20,-11 20,0 C20,14 0,30 0,30 C0,30 -20,14 -20,0 C-20,-11 -11,-20 0,-20Z" fill="#C45A2A" opacity="0.7"/>
    <circle cx="0" cy="-2" r="6" fill="#FAF6E8" opacity="0.8"/>
  </g>
  <text x="200" y="250" text-anchor="middle" fill="#FAF6E8" font-size="11" opacity="0.35" font-weight="500" letter-spacing="0.1em">MAHARASHTRA</text>
</svg>