<svg xmlns="http://www.w3.org/2000/svg" viewBox="0 0 400 280">
  <rect width="400" height="280" fill="#2F4A2C"/>
  <circle cx="60" cy="240" r="70" fill="#B9C98A" opacity="0.06"/>
  <circle cx="340" cy="50" r="80" fill="#F5B82E" opacity="0.05"/>
  <!-- Vizag: coastal city -->
  <g transform="translate(120, 25)" opacity="0.25">
    <path d="M70,5 L115,15 L150,40 L165,80 L170,125 L155,165 L130,190 L90,200 L50,190 L20,160 L5,120 L10,75 L25,40 L45,15 Z" fill="#FAF6E8" stroke="#FAF6E8" stroke-width="1.5"/>
    <!-- Bay of Bengal coast -->
    <path d="M150,40 L165,80 L170,125 L155,165" fill="none" stroke="#FAF6E8" stroke-width="2" opacity="0.3" stroke-dasharray="4,3"/>
    <line x1="25" y1="40" x2="130" y2="190" stroke="#2F4A2C" stroke-width="0.8" opacity="0.4"/>
  </g>
  <g transform="translate(200, 118)">
    <path d="M0,-20 C11,-20 20,-11 20,0 C20,14 0,30 0,30 C0,30 -20,14 -20,0 C-20,-11 -11,-20 0,-20Z" fill="#C45A2A" opacity="0.7"/>
    <circle cx="0" cy="-2" r="6" fill="#FAF6E8" opacity="0.8"/>
  </g>
  <text x="200" y="252" text-anchor="middle" fill="#FAF6E8" font-size="11" opacity="0.35" font-weight="500" letter-spacing="0.1em">ANDHRA PRADESH</text>
</svg>