<?xml version="1.0" encoding="UTF-8"?>
<svg id="Layer_1" data-name="Layer 1" xmlns="http://www.w3.org/2000/svg" viewBox="0 0 150 150">
  <defs>
    <style>
      .cls-1 {
        fill: #df9e81;
      }

      .cls-2 {
        fill: #f6e6c4;
      }

      .cls-3 {
        fill: #425636;
      }

      .cls-4 {
        fill: #b35d38;
      }
    </style>
  </defs>
  <g>
    <g>
      <path class="cls-3" d="M32.8821318,4.0547807h81.0962387c1.10383,0,2,.89617,2,2v109.8904387H6.0879318c-1.10383,0-2-.89617-2-2V32.8489807c0-15.8919516,12.9022484-28.7942,28.7942-28.7942Z"/>
      <path class="cls-1" d="M34.0216295,34.0547807h109.8904387c1.10383,0,2,.89617,2,2v81.0962387c0,15.8919516-12.9022484,28.7942-28.7942,28.7942H36.0216295c-1.10383,0-2-.89617-2-2V34.0547807h0Z"/>
    </g>
    <path class="cls-2" d="M84.0445182,14.9816073l.0000142.0000112c3.3071018,2.603503,7.5757253,3.6556242,11.7139266,2.8872236l.0000178-.0000033c6.6396744-1.2328858,13.2599264,2.2416905,16.0170463,8.4063944l.0000074.0000166c1.718385,3.8421742,5.0091183,6.7575095,9.0304072,8.0002427l.0000173.0000054c6.4520903,1.9939444,10.6993162,8.1471134,10.2757439,14.8869851l-.0000011.0000181c-.263993,4.2006497,1.2949828,8.3113309,4.2781303,11.2805026l.0000129.0000128c4.7864101,4.763986,5.6876216,12.1861308,2.1803924,17.957147l-.0000094.0000155c-2.1858934,3.5968069-2.7158178,7.9611265-1.4542147,11.9765353l.0000054.0000173c2.0242209,6.4426558-.6270385,13.4334525-6.4144607,16.9135428l-.0000155.0000093c-3.607032,2.168979-6.1044572,5.787124-6.8534166,9.9288881l-.0000032.0000178c-1.2016928,6.6453908-6.7980517,11.6033321-13.5398382,11.9952499l-.0000181.0000011c-4.201843.2442642-8.094639,2.2873611-10.6825834,5.6066523l-.0000111.0000143c-4.1523132,5.3257468-11.4117132,7.1150282-17.5634019,4.3289898l-.0000165-.0000075c-3.8340625-1.7364086-8.2304366-1.7364086-12.0644991,0l-.0000165.0000075c-6.1516887,2.7860384-13.4110887.996757-17.5634019-4.3289898l-.0000111-.0000143c-2.5879444-3.3192912-6.4807403-5.3623881-10.6825834-5.6066523l-.0000181-.0000011c-6.7417864-.3919178-12.3381454-5.3498591-13.5398382-11.9952499l-.0000032-.0000178c-.7489594-4.1417641-3.2463846-7.7599091-6.8534166-9.9288881l-.0000155-.0000093c-5.7874222-3.4800903-8.4386817-10.4708871-6.4144607-16.9135428l.0000054-.0000173c1.2616031-4.0154088.7316788-8.3797284-1.4542147-11.9765353l-.0000094-.0000155c-3.5072292-5.7710161-2.6060177-13.1931609,2.1803924-17.957147l.0000129-.0000128c2.9831476-2.9691717,4.5421233-7.0798529,4.2781303-11.2805026l-.0000011-.0000181c-.4235723-6.7398717,3.8236536-12.8930407,10.2757439-14.8869851l.0000173-.0000054c4.0212889-1.2427332,7.3120222-4.1580685,9.0304072-8.0002427l.0000074-.0000166c2.7571199-6.1647039,9.3773718-9.6392801,16.0170463-8.4063944l.0000178.0000033c4.1382014.7684006,8.4068248-.2837206,11.7139266-2.8872236l.0000142-.0000112c5.3061892-4.1772767,12.7828472-4.1772767,18.0890364,0Z"/>
  </g>
  <g>
    <circle class="cls-4" cx="74.4826235" cy="40.7411616" r="10.7309784"/>
    <path class="cls-4" d="M100.7849278,63.5297989l11.3608853-3.8663069c2.9550283-1.0056475,4.535314-4.2164095,3.529667-7.171438l-.0000135-.0000397c-1.0056479-2.9550314-4.2164144-4.5353173-7.1714446-3.5296659l-13.6042946,4.6297928c-6.4079741,2.180752-13.1308315,3.2933755-19.899717,3.2933755h-.0000204c-6.7688855,0-13.4917429-1.1126236-19.899717-3.2933755l-13.6042946-4.6297928c-2.9550302-1.0056514-6.1657967.5746345-7.1714446,3.5296659l-.0000139.0000409c-1.0056468,2.9550281.5746381,6.1657896,3.5296658,7.1714376l11.3608687,3.8663041c7.8968585,2.6874403,13.2069233,10.1036871,13.2069233,18.4453122v.0000674c0,2.135209-.3509701,4.2558987-1.0388748,6.2772608l-8.2571361,24.2630456c-1.0056455,2.9550225.5746313,6.1657793,3.5296508,7.1714336l.0000118.000004c2.9550319,1.0056585,6.165805-.5746262,7.1714549-3.5296611l8.968956-26.354677c.3211116-.9435649,1.20725-1.578044,2.2039583-1.578044h.0000033c.9967083,0,1.8828467.6344791,2.2039583,1.578044l8.968956,26.354677c1.0056499,2.9550348,4.216423,4.5353196,7.1714549,3.5296611l.0000107-.0000036c2.9550199-1.0056545,4.5352967-4.2164119,3.5296504-7.1714346l-8.2571559-24.2630881c-.6879055-2.0213632-1.038876-4.1420542-1.038876-6.2772645v-.0000172c0-8.3416268,5.3100668-15.7578746,13.2069275-18.4453137Z"/>
  </g>
</svg>