<?xml version="1.0" encoding="UTF-8"?>
<svg id="Layer_1" data-name="Layer 1" xmlns="http://www.w3.org/2000/svg" viewBox="0 0 150 150">
  <defs>
    <style>
      .cls-1 {
        fill: #f6e6c4;
        fill-rule: evenodd;
      }

      .cls-2 {
        fill: #df9e81;
      }

      .cls-3 {
        fill: #b5c082;
      }

      .cls-4 {
        fill: #425636;
      }

      .cls-5 {
        fill: #b35d38;
      }
    </style>
  </defs>
  <path class="cls-3" d="M61.1989691,69.9259562h85.5188292c1.10383,0,2,.89617,2,2v19.2530292c0,19.5186803-15.8466919,35.3653722-35.3653722,35.3653722h-52.153457v-56.6184014h0Z"/>
  <path class="cls-2" d="M61.1989691,21.9130952h24.0782297c13.1111245,0,23.7556941,10.6445696,23.7556941,23.7556941v26.8627074c0,1.10383-.89617,2-2,2h-45.8339238V21.9130952h0Z"/>
  <g>
    <path class="cls-4" d="M85.1846932,62.8293674h-25.9239887c-2.0301573,0-3.6755323-1.645375-3.6755323-3.6755323s1.645375-3.6755323,3.6755323-3.6755323h25.9239887c5.3718766,0,9.7415963-4.3697197,9.7415963-9.7415963s-4.3697197-9.7423142-9.7415963-9.7423142-9.7423142,4.3704376-9.7423142,9.7423142c0,2.0301573-1.645375,3.6755323-3.6755323,3.6755323s-3.6755323-1.645375-3.6755323-3.6755323c0-9.4250124,7.6683664-17.0933788,17.0933788-17.0933788s17.0926609,7.6683664,17.0926609,17.0933788-7.6676485,17.0926609-17.0926609,17.0926609Z"/>
    <path class="cls-4" d="M129.8301873,77.5314966H50.5808489c-2.0301573,0-3.6755323-1.645375-3.6755323-3.6755323s1.645375-3.6755323,3.6755323-3.6755323h79.2493384c5.3718766,0,9.7415963-4.3697197,9.7415963-9.7415963s-4.3697197-9.7423142-9.7415963-9.7423142-9.7423142,4.3704376-9.7423142,9.7423142c0,2.0301573-1.645375,3.6755323-3.6755323,3.6755323s-3.6755323-1.645375-3.6755323-3.6755323c0-9.4250124,7.6683664-17.0933788,17.0933788-17.0933788s17.0926609,7.6683664,17.0926609,17.0933788-7.6676485,17.0926609-17.0926609,17.0926609Z"/>
    <path class="cls-4" d="M98.4166095,119.0686008c-9.4250124,0-17.0933788-7.6676485-17.0933788-17.0926609,0-2.0301573,1.645375-3.6755323,3.6755323-3.6755323s3.6755323,1.645375,3.6755323,3.6755323c0,5.3718766,4.3704376,9.7415963,9.7423142,9.7415963s9.7415963-4.3697197,9.7415963-9.7415963-4.3697197-9.7423142-9.7415963-9.7423142h-39.1559049c-2.0301573,0-3.6755323-1.645375-3.6755323-3.6755323s1.645375-3.6755323,3.6755323-3.6755323h39.1559049c9.4250124,0,17.0926609,7.6683664,17.0926609,17.0933788s-7.6676485,17.0926609-17.0926609,17.0926609Z"/>
  </g>
  <path class="cls-1" d="M60.90269,133.8479799l-48.9854161-17.2641885c-.4755357-.1675956-.8077874-.7531101-.8077874-1.4235333V34.8397419c0-.6704232.3322516-1.2559378.8077874-1.4235333l48.9854161-17.2641885c.6817473-.2402718,1.3462684.4623875,1.3462684,1.4235333v114.8488932c0,.9611458-.6645212,1.6638051-1.3462684,1.4235333Z"/>
  <circle class="cls-2" cx="31.4182901" cy="53.5978446" r="7.9846365"/>
  <circle class="cls-5" cx="43.134949" cy="77.7411701" r="6.8152139"/>
  <circle class="cls-5" cx="11.1094865" cy="90.3317012" r="9.8272848"/>
  <circle class="cls-5" cx="11.1094865" cy="60.3112963" r="4.9792915"/>
  <circle class="cls-2" cx="33.0799919" cy="106.483464" r="4.9792915"/>
</svg>