<?xml version="1.0" encoding="UTF-8"?>
<svg id="Layer_1" data-name="Layer 1" xmlns="http://www.w3.org/2000/svg" viewBox="0 0 150 150">
  <defs>
    <style>
      .cls-1 {
        fill: #df9e81;
      }

      .cls-2 {
        fill: #f6e6c4;
      }

      .cls-3 {
        fill: #425636;
      }

      .cls-4 {
        fill: #b35d38;
      }
    </style>
  </defs>
  <rect class="cls-1" x="29.9702904" y="36.2115994" width="83.956266" height="77.2432456"/>
  <g>
    <path class="cls-4" d="M30.5396589,120.335774c-.4842436-.2637989-1.0728311-.2424892-1.5350302.055846l-5.2201315,3.3595779c-.4306021.2770256-.6907269.753921-.6907269,1.2653528s.2601248.9883273.6907269,1.2653528l5.2201315,3.3595779c.2468981.159455.530537.23955.8141759.23955.2476329,0,.4960007-.0609897.7208543-.183704.4835088-.2637989.7840485-.7708218.7840485-1.3211988v-6.7191557c0-.550377-.3005397-1.0573999-.7840485-1.3211988Z"/>
    <path class="cls-4" d="M122.8795522,116.9431294c-.6811743-.4798347-1.619534-.3130315-2.0956947.3674079-1.4130508,2.0126605-3.247151,3.6417471-5.3061049,4.7116389-.7377551.382839-1.025068,1.2910714-.6414942,2.0288264.267473.5158407.7928663.8112366,1.3366299.8112366.2336714,0,.4702821-.0543764.6921965-.1697425,2.4858819-1.2910714,4.6932685-3.2464162,6.3818753-5.6536728.4776303-.6804394.3130315-1.6187992-.3674079-2.0956947Z"/>
    <path class="cls-4" d="M92.7822316,123.5116479h-7.8860432c-.8310767,0-1.5049028.6738261-1.5049028,1.5049028s.6738261,1.5049028,1.5049028,1.5049028h7.8860432c.8310767,0,1.5049028-.6738261,1.5049028-1.5049028s-.6738261-1.5049028-1.5049028-1.5049028Z"/>
    <path class="cls-4" d="M77.0101452,123.5116479h-7.886778c-.8310767,0-1.5049028.6738261-1.5049028,1.5049028s.6738261,1.5049028,1.5049028,1.5049028h7.886778c.8310767,0,1.5049028-.6738261,1.5049028-1.5049028s-.6738261-1.5049028-1.5049028-1.5049028Z"/>
    <path class="cls-4" d="M108.5550529,123.5116479h-7.8860432c-.8310767,0-1.5049028.6738261-1.5049028,1.5049028s.6738261,1.5049028,1.5049028,1.5049028h7.8860432c.8310767,0,1.5049028-.6738261,1.5049028-1.5049028s-.6738261-1.5049028-1.5049028-1.5049028Z"/>
    <path class="cls-4" d="M61.2373239,123.5116479h-7.8860432c-.8310767,0-1.5049028.6738261-1.5049028,1.5049028s.6738261,1.5049028,1.5049028,1.5049028h7.8860432c.8310767,0,1.5049028-.6738261,1.5049028-1.5049028s-.6738261-1.5049028-1.5049028-1.5049028Z"/>
    <path class="cls-4" d="M104.6120313,123.5116479H37.5784595c-.8310767,0-1.5049028.6738261-1.5049028,1.5049028s.6738261,1.5049028,1.5049028,1.5049028h67.0335718c.8310767,0,1.5049028-.6738261,1.5049028-1.5049028s-.6738261-1.5049028-1.5049028-1.5049028Z"/>
    <g>
      <path class="cls-4" d="M119.4604542,29.6650148c.2255885.1227142.4732214.183704.7208543.183704.2836389,0,.5672778-.0800949.8141759-.23955l5.2201315-3.3595779c.4306021-.2770256.6907269-.7535536.6907269-1.2653528s-.2601248-.9883273-.6907269-1.2653528l-5.2201315-3.3599453c-.462934-.29907-1.052991-.3196449-1.5350302-.055846-.4835088.2637989-.7840485.7704544-.7840485,1.3211988v6.7195231c0,.5507444.3005397,1.0573999.7840485,1.3211988Z"/>
      <path class="cls-4" d="M33.1357631,25.3079245c-2.4866167,1.2918062-4.6940034,3.2467836-6.3826101,5.6533054-.4776303.6804394-.3130315,1.6187992.3666731,2.0964295.2630641.1844388.5650734.2729841.8634086.2729841.4739562,0,.9405642-.2230166,1.2330209-.640392,1.412316-2.0122931,3.2478859-3.6413797,5.3068397-4.7112715.7377551-.3832064,1.025068-1.2918062.6414942-2.0291938-.3821042-.7373877-1.2903366-1.0247006-2.0288264-.6418616Z"/>
      <path class="cls-4" d="M80.876746,23.4793353h-7.886778c-.8310767,0-1.5049028.6738261-1.5049028,1.5049028s.6738261,1.5049028,1.5049028,1.5049028h7.886778c.8310767,0,1.5049028-.6738261,1.5049028-1.5049028s-.6738261-1.5049028-1.5049028-1.5049028Z"/>
      <path class="cls-4" d="M105.3644827,23.4793353h-63.9194224c-.8310767,0-1.5049028.6738261-1.5049028,1.5049028s.6738261,1.5049028,1.5049028,1.5049028h63.9194224c.8310767,0,1.5049028-.6738261,1.5049028-1.5049028s-.6738261-1.5049028-1.5049028-1.5049028Z"/>
      <path class="cls-4" d="M96.6488324,23.4793353h-7.8860432c-.8310767,0-1.5049028.6738261-1.5049028,1.5049028s.6738261,1.5049028,1.5049028,1.5049028h7.8860432c.8310767,0,1.5049028-.6738261,1.5049028-1.5049028s-.6738261-1.5049028-1.5049028-1.5049028Z"/>
      <path class="cls-4" d="M112.4216536,23.4793353h-7.8860432c-.8310767,0-1.5049028.6738261-1.5049028,1.5049028s.6738261,1.5049028,1.5049028,1.5049028h7.8860432c.8310767,0,1.5049028-.6738261,1.5049028-1.5049028s-.6738261-1.5049028-1.5049028-1.5049028Z"/>
      <path class="cls-4" d="M65.1039247,23.4793353h-7.8860432c-.8310767,0-1.5049028.6738261-1.5049028,1.5049028s.6738261,1.5049028,1.5049028,1.5049028h7.8860432c.8310767,0,1.5049028-.6738261,1.5049028-1.5049028s-.6738261-1.5049028-1.5049028-1.5049028Z"/>
    </g>
  </g>
  <g>
    <path class="cls-4" d="M148.4669988,78.6747451l-6.7613105-21.5589782c-.0135787-.043914-.0274462-.0876113-.0412175-.1314531l-.0340911-.1086294-.0007704.0055374c-3.99285-12.5585871-16.1164791-21.4932495-30.188583-20.6093687-15.1723168.9529861-27.3118784,13.5556042-27.7390022,28.751819-.2933964,10.4384587,4.810187,19.699113,12.7218721,25.2088265,1.1610075.808528,1.8651025,2.1211323,1.8651029,3.5359312l.0000021,7.6866033v11.2109008c0,.4357035.3532075.788911.788911.788911h17.9055337c6.1916029,0,11.2108888-5.0192859,11.2108888-11.2108888v-.000012c0-.4357035.3532075-.788911.788911-.788911h6.3329565c2.9716343,0,5.3806199-2.4089856,5.3806199-5.3806199v-15.5857843c0-.4357035.3532075-.788911.788911-.788911h6.2285194c.5325585,0,.9121132-.5168186.7527463-1.0249728Z"/>
    <path class="cls-2" d="M107.370143,78.6747451l-6.7613105-21.5589782c-.0135787-.043914-.0274462-.0876113-.0412175-.1314531l-.0340911-.1086294-.0007704.0055374c-3.8724486-12.1798921-15.3927141-20.951118-28.9210539-20.6627137-15.3562975.3273737-28.6161401,13.5279665-29.0086163,28.8827381-.2662788,10.4175719,4.8424793,19.6543742,12.7485749,25.1483784,1.1528404.8011173,1.8404853,2.1149427,1.8404855,3.5188052l.0000015,7.6866033v11.2109008c0,.4357035.3532075.788911.788911.788911h28.3275115c.4357035,0,.788911-.3532075.788911-.788911v-10.4219897c0-.4357035.3532075-.788911.788911-.788911h6.3329565c2.9716343,0,5.3806199-2.4089856,5.3806199-5.3806199v-15.5857843c0-.4357035.3532075-.788911.788911-.788911h6.2285194c.5325585,0,.9121132-.5168186.7527463-1.0249728Z"/>
    <path class="cls-3" d="M66.2732871,78.6747451l-6.7613105-21.5589782c-.0135787-.043914-.0274462-.0876113-.0412175-.1314531l-.0340911-.1086294-.0007704.0055374c-3.99285-12.5585871-16.1164791-21.4932495-30.188583-20.6093687-15.1723168.9529861-27.3118784,13.5556042-27.7390022,28.751819-.2933964,10.4384587,4.810187,19.699113,12.7218721,25.2088265,1.1610075.808528,1.8651025,2.1211323,1.8651029,3.5359312l.0000021,7.6866033v.788923c0,6.1916029,5.0192859,11.2108888,11.2108888,11.2108888h17.9055337c.4357035,0,.788911-.3532075.788911-.788911v-10.4219897c0-.4357035.3532075-.788911.788911-.788911h6.3329565c2.9716343,0,5.3806199-2.4089856,5.3806199-5.3806199v-15.5857843c0-.4357035.3532075-.788911.788911-.788911h6.2285194c.5325585,0,.9121132-.5168186.7527463-1.0249728Z"/>
  </g>
  <path class="cls-4" d="M30.5396589,120.335774c-.4842436-.2637989-1.0728311-.2424892-1.5350302.055846l-5.2201315,3.3595779c-.4306021.2770256-.6907269.753921-.6907269,1.2653528s.2601248.9883273.6907269,1.2653528l5.2201315,3.3595779c.2468981.159455.530537.23955.8141759.23955.2476329,0,.4960007-.0609897.7208543-.183704.4835088-.2637989.7840485-.7708218.7840485-1.3211988v-6.7191557c0-.550377-.3005397-1.0573999-.7840485-1.3211988Z"/>
</svg>