<?xml version="1.0" encoding="UTF-8"?>
<svg id="Layer_1" data-name="Layer 1" xmlns="http://www.w3.org/2000/svg" viewBox="0 0 150 150">
  <defs>
    <style>
      .cls-1 {
        fill: #f6e6c4;
      }

      .cls-2 {
        fill: #425636;
      }

      .cls-3 {
        fill: #b35d38;
      }
    </style>
  </defs>
  <circle class="cls-1" cx="75" cy="78.9871273" r="44.8472933"/>
  <g>
    <path class="cls-2" d="M124.8036109,49.7783609c-8.7974412-8.7974649-22.8929562-9.3151431-32.3120257-1.1867059l-12.2591589,10.5793681c-3.0060389,2.5941415-7.4589554,2.594132-10.4649834-.0000222l-12.2590282-10.5793459c-9.4190213-8.1284653-23.5145261-7.6108174-32.3119545,1.1866347l-13.9082224,13.9082599,13.9082383,13.9082383c8.7974453,8.7974453,22.892955,9.3150854,32.3119835,1.1866176l12.8691833-11.1058951c.5305758-.4578782,1.271159.2344492.8500138.7946276l-12.3095209,16.3732789c-8.6600359,10.0349148-8.1085558,25.0520702,1.2642082,34.4247218l14.817581,14.8176934,14.8177309-14.8176934c9.3726142-9.3726516,9.9240943-24.389807,1.2642082-34.4247218l-12.3096467-16.3732888c-.4211478-.5601765.3194323-1.2525074.8500102-.7946314l12.8693575,11.1059475c9.4190527,8.128417,23.5145352,7.6107471,32.31197-1.1866877l13.9082069-13.9082069-13.9081513-13.9081887Z"/>
    <circle class="cls-3" cx="75" cy="37.9742218" r="14.0857994"/>
  </g>
  <path class="cls-3" d="M61.0175822,21.2478758c-.1128177-.0255602-.2221813-.060184-.3291409-.1042437l.3562545.1503412c-.1564105-.067186-.3018965-.1528447-.4375193-.2556585l.3018321.2331943c-.1495753-.1166099-.2821762-.2505935-.3996334-.3994073l.2331943.3018321c-.1414777-.1836793-.2563044-.3840692-.3465973-.5975082l.1503412.3562545c-.0930639-.2266663-.1565859-.4625794-.1903054-.7052619l.0532727.3964616c-.0299228-.2334178-.0315477-.4679161-.0020391-.7014636l-.0532727.3964616c.0294232-.2129393.0843464-.4195917.1676108-.6178731l-.1503412.3562545c.0901959-.2070834.2057706-.4005852.342128-.5805121l-.2331943.3018321c.1587827-.2046757.3419177-.3863718.5453497-.5465826l-.3018321.2331943c.2421358-.186827.5064203-.3393283.7871718-.4602799l-.3562545.1503412c.326473-.1372787.6681887-.2295483,1.0190206-.2775276l-.3964616.0532727c.3449373-.044237.690626-.0434896,1.0353987.001702l-.3964616-.0532727c.4217876.0589549.8305884.1762599,1.2231911.3406029l-.3562545-.1503412c.4993158.213139.9627561.4971967,1.3919523.8287359l-.3018321-.2331943c.5840527.4560293,1.0964158.994633,1.5508074,1.5787961l-.2331943-.3018321c.6451178.8354408,1.1586992,1.7615984,1.5695316,2.7324587l-.1503412-.3562545c.7738954,1.8414922,1.1855879,3.8108129,1.5068092,5.7748299.0911505.5573138.1747412,1.1158267.2567397,1.6745495.046141.1940743.1351204.3631312.2669383.5071706.1051575.1623557.2446339.2903925.4184292.3841104.3196677.1870662.7907919.2663198,1.1491777.1503412.3608631-.1167802.7090228-.3404075.8912809-.6853676l.1503412-.3562545c.0710303-.2643077.0710303-.5286155,0-.7929232-.2577094-1.7559863-.5308733-3.5161669-1.0037589-5.2294084-.266134-.9641902-.6078655-1.8987271-1.012597-2.8133879-.3466229-.78334-.7646581-1.5364986-1.2682263-2.2302017-.3243103-.4467619-.667576-.8836951-1.0453341-1.2868827-.3883861-.4145311-.8184964-.7708545-1.2694402-1.1152866-.3507688-.2679182-.7242182-.5062172-1.1224734-.6974025-.5020012-.2409892-1.028774-.4543929-1.5778159-.5595786-.5164255-.0989371-1.0488224-.1624562-1.5740713-.1062518-.5102512.0545996-1.0078983.1339674-1.4839181.3298642-.2863278.1178327-.5732062.2336702-.8389416.3936909-.2606885.1569815-.5059967.3487208-.7371259.544472-.1476336.1250359-.2838718.2634675-.4051027.4142907-.1906575.2371968-.3837452.4771129-.5262353.7474607-.2893231.5489356-.429277,1.0849945-.4750946,1.7016095-.0126993.1709074-.0074796.3421079.0115756.5123181.0326055.2912471.0668723.5880466.1510026.8702089.0836735.2806304.2012274.5556644.3336129.8162563.0741115.1458835.162362.2826102.261349.4127404.1754358.2306313.3437193.4621177.5668692.6483806.2134555.1781711.4385566.3623044.6894393.488279.2527927.1269336.5234785.2450813.801266.3080175.3881958.0879506.7999859.0540022,1.1491777-.1503412.3093574-.1810327.6043879-.5357454.6853676-.8912809.086955-.38177.068137-.8103012-.1503412-1.1491777-.2051593-.318218-.5110775-.5992278-.8912809-.6853676h0Z"/>
  <path class="cls-3" d="M88.7841296,24.1240432c.5722821-.1296576,1.0597454-.4317184,1.5014689-.8054034.2179583-.1843862.3836836-.4130535.5561057-.6392737.1049844-.137741.1975311-.2833206.2743472-.4386761.1275173-.2578954.2438493-.527523.3247278-.8043838.0825166-.2824684.1160079-.5798612.1486024-.8707311.0190506-.1700058.0222817-.3417712.0086964-.5123161-.0230627-.2895207-.0579705-.5888961-.1375756-.8700807-.3028746-1.0698266-1.0732245-1.9676644-2.0187926-2.5315846-.4264833-.2543472-.9072472-.4521413-1.390021-.5703091-.3111818-.0761675-.6339751-.1169024-.9518482-.1482202-.1865269-.0183772-.3744156-.0235049-.5616488-.0147051-2.1483486.1009701-4.0576937,1.3730404-5.3898861,2.9999581-.6223161.7599931-1.1686022,1.5677238-1.6068501,2.4474228-.4395324.8822774-.8028307,1.8082178-1.0943528,2.7496562-.5258001,1.6980135-.8273129,3.4559146-1.091685,5.2105273-.0325813.2162391-.0645557.4325688-.0963091.6489308-.0621515.1982308-.0710303.3964616-.0266363.5946924.0090009.1984732.0679934.3833016.1769775.5544853.1810327.3093574.5357454.6043879.8912809.6853676.38177.086955.8103012.068137,1.1491777-.1503412l.3018321-.2331943c.1848331-.1860815.3126783-.4054437.3835355-.6580866.2902114-1.9774493.5993529-3.9642702,1.1935287-5.8773319.1654165-.5325897.3539353-1.0578715.5700202-1.5720476l-.1503412.3562545c.4108324-.9708603.9244137-1.8970177,1.5695316-2.7324587l-.2331943.3018321c.4543936-.5841657.9667526-1.1227652,1.5508074-1.5787961l-.3018321.2331943c.4291971-.3315399.8926365-.6155969,1.3919523-.8287359l-.3562545.1503412c.3926019-.1643426.8014027-.2816479,1.2231911-.3406029l-.3964616.0532727c.3447727-.0451916.6904614-.045939,1.0353987-.001702l-.3964616-.0532727c.3508319.0479793.6925477.1402489,1.0190206.2775276l-.3562545-.1503412c.2807499.1209509.5450336.273451.7871718.4602799l-.3018321-.2331943c.2034317.1602105.3865662.3419058.5453497.5465826l-.2331943-.3018321c.1363568.1799261.2519313.3734267.342128.5805121l-.1503412-.3562545c.0832637.1982799.1381875.4049329.1676108.6178731l-.0532727-.3964616c.0295084.2335463.0278838.4680453-.0020391.7014636l.0532727-.3964616c-.03372.2426861-.0972429.4785992-.1903054.7052619l.1503412-.3562545c-.0902927.2134384-.2051189.413828-.3465973.5975082l.2331943-.3018321c-.1174565.1488129-.2500566.2827962-.3996334.3994073l.3018321-.2331943c-.1356206.1028121-.281106.1884713-.4375193.2556585l.3562545-.1503412c-.106957.0440586-.2163207.0786829-.3291409.1042437-.3553713.0805138-.7104609.3763736-.8912809.6853676-.1870662.3196677-.2663198.7907919-.1503412,1.1491777.1167802.3608631.3404075.7090228.6853676.8912809.3642675.1924592.7436399.2422208,1.1491777.1503412h0Z"/>
</svg>