<?xml version="1.0" encoding="UTF-8"?>
<svg id="Layer_1" data-name="Layer 1" xmlns="http://www.w3.org/2000/svg" viewBox="0 0 150 150">
  <defs>
    <style>
      .cls-1 {
        fill: #2c2b32;
      }

      .cls-2 {
        fill: #df9e81;
      }

      .cls-3 {
        fill: #b5c082;
      }

      .cls-4 {
        fill: #f6e6c4;
      }

      .cls-5 {
        fill: #425636;
      }

      .cls-6 {
        fill: #b35d38;
      }
    </style>
  </defs>
  <rect class="cls-2" x="81.9638386" y="69.3783034" width="64.3523253" height="69.1099754" rx="2" ry="2"/>
  <path class="cls-4" d="M5.6838361,11.5117212h67.1178103c9.86581,0,17.8755959,8.009786,17.8755959,17.8755959v107.1009616c0,1.10383-.89617,2-2,2H5.6838361c-1.10383,0-2-.89617-2-2V13.5117212c0-1.10383.89617-2,2-2Z"/>
  <g>
    <g>
      <path class="cls-3" d="M120.6106416,90.8224019H52.6313906l-11.543737-47.2790222h88.0895536c3.9525126,0,6.8602415,3.7031033,5.9227289,7.5428201l-8.5665656,35.0855917c-.6665385,2.7299036-3.1126315,4.6506104-5.9227289,4.6506104Z"/>
      <path class="cls-5" d="M122.928914,112.71137h0l-59.5927043-.0018832c-9.1712953,0-16.9273487-6.8652889-18.0403334-15.9697299l-6.8455151-56.0174057c-.5225943-4.2739743-4.1647474-7.4971102-8.4707364-7.4971102h-9.5658305c-2.6628771,0-4.8210505-2.1581734-4.8210505-4.8210505s2.1581734-4.8210505,4.8210505-4.8210505h9.5658305c9.172237,0,16.9282903,6.8652889,18.041275,15.9687883l6.8455151,56.0174057c.5225943,4.2739743,4.1638057,7.4980518,8.4697948,7.4980518l59.5927043.0018832c2.6628771,0,4.8210505,2.1581734,4.8210505,4.8210505s-2.159115,4.8210505-4.8210505,4.8210505Z"/>
      <g>
        <circle class="cls-6" cx="64.7752324" cy="127.7826781" r="10.7056006"/>
        <circle class="cls-6" cx="110.2348687" cy="127.7826781" r="10.7056006"/>
      </g>
    </g>
    <rect class="cls-1" x="66.916179" y="58.6799184" width="4.9900184" height="17.0059449" rx="2.3663808" ry="2.3663808"/>
    <rect class="cls-6" x="85.6872239" y="58.6799184" width="4.9900184" height="17.0059449" rx="2.3663808" ry="2.3663808"/>
    <rect class="cls-6" x="104.4582688" y="58.6799184" width="4.9900185" height="17.0059449" rx="2.3663809" ry="2.3663809"/>
  </g>
</svg>