<?xml version="1.0" encoding="UTF-8"?>
<svg id="Layer_1" data-name="Layer 1" xmlns="http://www.w3.org/2000/svg" viewBox="0 0 150 150">
  <defs>
    <style>
      .cls-1 {
        fill: #df9e81;
      }

      .cls-2 {
        fill: #b5c082;
      }

      .cls-3 {
        fill: #f6e6c4;
      }

      .cls-4 {
        fill: #425636;
      }
    </style>
  </defs>
  <rect class="cls-3" x="7.3776622" y="7.0272523" width="63.5779798" height="73.3955378"/>
  <rect class="cls-1" x="21.6188012" y="80.4227901" width="58.1139295" height="62.5499577"/>
  <rect class="cls-2" x="74.9723625" y="50.1176049" width="67.6499753" height="78.0612149"/>
  <g>
    <path class="cls-4" d="M77.5329763,32.9057786c-17.2507439,0-22.8235569,5.2249231-27.9451444,15.1434786-3.5598832,6.8941307-4.0875385,15.0720294-3.1022619,22.7681997,2.162439,16.8911942,9.979082,24.1464208,15.4205019,43.4505059,2.062449,7.3167833.6178459,13.6655651,4.5561096,20.1678026,4.1458438,6.8449608,12.0488585,10.3646095,22.0247951,7.5791207,14.699932-4.1045265,14.0928834-20.7979936,10.1447005-27.4655005-3.9481829-6.6675069-9.1374142-11.08324-12.5476855-17.9571321-3.4433762-6.9406191-3.795073-13.2695192-.8922799-20.3737234,2.8255529-6.9151689,13.6095445-18.4404504,13.6095445-26.6369805,0-10.3926336-10.486565-16.675771-21.26828-16.675771"/>
    <path class="cls-4" d="M47.9143394,32.2143523c1.0395773,3.1392129-.0116996,6.3105885-2.3481917,7.0840558-2.3365011.7734673-5.0721538-1.1448558-6.1117311-4.2840598-1.0395862-3.1406764.0131542-6.3120521,2.3481917-7.0855193,2.3364921-.7734673,5.0736084,1.1463194,6.1117311,4.2855233Z"/>
    <path class="cls-4" d="M70.8552643,19.1984055c.5834002,4.1305372-1.4358197,7.8312057-4.5092257,8.265465-3.0734149.4327958-6.0371696-2.5645852-6.6190973-6.6951223-.5819277-4.1305372,1.4358197-7.8312057,4.5092346-8.2640014,3.073406-.4342504,6.0371607,2.5631305,6.6190883,6.6936588Z"/>
    <path class="cls-4" d="M58.0177028,23.6330696c.7968665,3.6758147-.7734673,7.1381541-3.5091289,7.7317814-2.7371163.5936273-5.5999831-1.9066235-6.3983131-5.5839017-.7968576-3.6758147.7749398-7.1381541,3.5091289-7.7303178,2.7371252-.5950908,5.6014467,1.9051689,6.3983131,5.5824382Z"/>
    <path class="cls-4" d="M85.8217059,17.3210265c.2544104,4.5194617-2.2648578,8.3371083-5.627773,8.5271843-3.3643698.1886125-6.2959618-3.32198-6.5503722-7.8429053-.2529469-4.5194617,2.2663124-8.3370994,5.6292276-8.5257208,3.3629152-.190076,6.2959618,3.32198,6.5489175,7.8414417Z"/>
    <path class="cls-4" d="M106.7682737,21.4033106c-1.811581,6.4524115-7.1717804,10.588794-11.9719699,9.2421715-4.801662-1.3495586-7.221497-7.6718377-5.4113706-14.1242403,1.8130446-6.4509479,7.173244-10.5873393,11.9719788-9.2392444,4.8016531,1.3480861,7.2229517,7.6703652,5.4113617,14.1213132Z"/>
  </g>
</svg>