<?xml version="1.0" encoding="UTF-8"?>
<svg id="Layer_1" data-name="Layer 1" xmlns="http://www.w3.org/2000/svg" viewBox="0 0 150 150">
  <defs>
    <style>
      .cls-1 {
        fill: #2c2b32;
      }

      .cls-2 {
        fill: #df9e81;
      }

      .cls-3 {
        fill: #b5c082;
      }

      .cls-4 {
        fill: #f6e6c4;
      }

      .cls-5 {
        fill: #425636;
      }

      .cls-6 {
        fill: #b35d38;
      }
    </style>
  </defs>
  <g>
    <rect class="cls-2" x="4.1979757" y="11.6542293" width="96.6915414" height="96.6915414"/>
    <path class="cls-3" d="M71.8247581,26.455332h73.9772662v111.8904387H33.9115856v-73.9772662c0-20.9248495,16.988323-37.9131725,37.9131725-37.9131725Z"/>
  </g>
  <g>
    <circle class="cls-6" cx="33.8920908" cy="71.4156002" r="8.8291861"/>
    <path class="cls-4" d="M101.4353642,67.1997763h.0000373c20.5882373,0,37.3032738,16.7150365,37.3032738,37.3032738v.4838448h-37.3033111v-37.7871186h0Z" transform="translate(85.7185701 -57.6138821) rotate(40.9123282)"/>
    <path class="cls-6" d="M108.0572538,62.2311609h.0000373c20.5882373,0,37.3032738,16.7150365,37.3032738,37.3032738v.483845h-37.3033111v-37.7871189h0Z" transform="translate(44.0098819 -44.5623467) rotate(24.0268656)"/>
    <path class="cls-4" d="M33.8920908,52.0775967h.0000373c20.5882373,0,37.3032739,16.7150366,37.3032739,37.3032739v38.2709645h-.0000373c-20.5882373,0-37.3032739-16.7150366-37.3032739-37.3032739v-38.2709645h0Z"/>
    <path class="cls-5" d="M108.498747,52.0775757h-.000061c-20.6020508,0-37.3032837,16.7012329-37.3032837,37.3032837v38.2709351h.000061c20.6019897,0,37.3032227-16.7012329,37.3032227-37.3032227v-.4838867h37.3033447v-.4838257c0-20.6020508-16.7012329-37.3032837-37.3032837-37.3032837Z"/>
    <path class="cls-6" d="M49.8514482,32.5173551h1.6990148v19.5602415h-17.6583721v-3.6008841c0-8.8082091,7.1511483-15.9593574,15.9593574-15.9593574Z"/>
    <path class="cls-6" d="M23.1981552,41.383661h10.6939356v10.6939356h-.0000106c-5.9021379,0-10.693925-4.7917871-10.693925-10.693925v-.0000106h0Z" transform="translate(57.0902461 93.4612577) rotate(180)"/>
    <path class="cls-1" d="M60.4900946,127.6518351h10.6939356v10.6939356h-.0000107c-5.9021378,0-10.6939249-4.7917871-10.6939249-10.6939249v-.0000107h0Z" transform="translate(198.8358653 67.1617404) rotate(90)"/>
    <polygon class="cls-1" points="23.1981552 62.7715323 33.8920908 62.7715323 33.8920908 52.0775967 23.1981552 62.7715323"/>
  </g>
</svg>