<?xml version="1.0" encoding="UTF-8"?>
<svg id="Layer_1" data-name="Layer 1" xmlns="http://www.w3.org/2000/svg" viewBox="0 0 150 150">
  <defs>
    <style>
      .cls-1 {
        fill: #2c2b32;
      }

      .cls-2 {
        fill: #b5c082;
      }

      .cls-3 {
        fill: #f6e6c4;
      }

      .cls-4 {
        fill: #b35d38;
      }
    </style>
  </defs>
  <g>
    <path class="cls-2" d="M31.9373679,10.5642307h81.8276726c1.10383,0,2,.89617,2,2v109.3079465H6.457094c-1.10383,0-2-.89617-2-2V38.0445046c0-15.166776,12.3134979-27.4802739,27.4802739-27.4802739Z"/>
    <path class="cls-3" d="M75,47.3794269h68.542906c1.10383,0,2,.89617,2,2v62.5760684c0,15.166776-12.3134979,27.4802739-27.4802739,27.4802739h-43.0626321V47.3794269h0Z"/>
  </g>
  <path class="cls-4" d="M124.5040154,89.7301583c-.1349779-.99265-.8529853-1.774397-1.8306377-1.990924-.9889006-.2202764-1.9759265.1912187-2.5223995,1.0404546-2.9413934,4.5761257-6.9401136,7.9402623-9.7755868,9.9564947-.6739521.4780467-1.0460787,1.255107-.995462,2.0780972.0496794.8239276.5146032,1.5513085,1.2429215,1.9440567l1.5803662.8539227c.3796253.2062162.6355209.568032.7020725.99265.0665516.4255553-.0665516.8482986-.3665025,1.1613723-2.4221034,2.5233368-7.6103164,6.9551111-15.148457,8.272083-5.691568.99265-9.005088.7058219-11.0738117-.9617175-2.1165284-1.704096-3.1701059-5.1197867-3.4175654-11.0813105l-2.604886-40.9287767c-.0440553-.7320676.2080909-1.4285161.7105087-1.9628036s1.1838686-.8286143,1.9168736-.8286143h14.082694c1.5541205,0,3.0707472-.6467691,4.1608812-1.7753343,1.0301438-1.065763,1.5700554-2.4380383,1.5213134-3.8637423-.0478047-1.3835235-.613962-2.6836231-1.5925517-3.6603381-1.0292065-1.0292065-2.3977324-1.5963011-3.8534315-1.5963011h-15.050973c-1.4163306,0-2.5720788-1.1088809-2.6301943-2.5242742-.0440553-1.0667003.546473-2.0406034,1.5053785-2.4820936,5.1019771-2.3499277,8.4201837-7.4950227,8.4529909-13.1078537.0440553-7.6918655-6.1630533-14.2354815-13.8352346-14.5860491-4.009031-.192156-7.8146579,1.2372974-10.7091839,4.0024696-2.8964007,2.7661096-4.4917645,6.494874-4.4917645,10.4992183,0,5.661573,3.3275801,10.8441618,8.4782992,13.2025257.9439079.4330541,1.5250628,1.4041451,1.4800701,2.4736575-.0581155,1.4144559-1.2138637,2.5223995-2.629257,2.5223995h-14.9309926c-1.5559952,0-3.0726219.6477064-4.1627559,1.777209-1.0301438,1.0676377-1.5691181,2.4417877-1.5185014,3.8674917.048742,1.3797741.6148993,2.677999,1.5925517,3.6556514,1.0282691,1.0292065,2.396795,1.5953638,3.8534315,1.5953638h14.4332616c.7339423,0,1.4144559.2943268,1.9168736.8286143.5024177.5333502.7545639,1.230736.7105087,1.9628036l-2.6058233,40.9381501c-.2465221,5.9521504-1.3000996,9.3669037-3.4156907,11.071937-2.0696611,1.6675395-5.380369,1.9543675-11.0728744.9617175-7.5381407-1.3169719-12.727291-5.7487462-15.1503317-8.2730203-.2990135-.311199-.4330541-.7348797-.3665025-1.160435s.3224472-.7864337.7020725-.99265l1.5803662-.8539227c.7283182-.3927482,1.1932421-1.1201291,1.2429215-1.9440567.0506167-.8229902-.3215099-1.6000505-.9945247-2.0780972-2.8364106-2.0171697-6.8351308-5.3822437-9.7746495-9.9564947-.546473-.8511106-1.5381856-1.2597937-2.5233368-1.0404546-.9776524.216527-1.6965972.998274-1.8306377,1.990924-.5905283,4.3511625-.9111008,10.9735157.9148502,17.8180199.2305872.8623588.8867298,1.4997544,1.75565,1.7050333.8604841.2062162,1.731279-.070301,2.32087-.7348797.2905774-.3290086.708634-.4958563,1.1454374-.4536757.4452396.0421806.8333011.2887027,1.0638883.6758268,2.3199326,3.9068603,9.3697158,13.582151,24.6953313,19.0468812,7.276621,2.5945752,12.5435711,6.1733641,15.6546241,10.6360709.4424276.6336462,1.1726205,1.0123342,1.9524928,1.0123342h.0009373c.7808096,0,1.5100652-.378688,1.9515554-1.0123342,3.1119904-4.4627068,8.3798778-8.0414958,15.6555615-10.6360709,15.3237408-5.4637928,22.3753987-15.1400209,24.6962686-19.0468812.2305872-.3871241.6177114-.6336462,1.0620136-.6758268.451801-.0393686.8567347.1237297,1.1473121.4536757.5877163.6636413,1.4528871.9382839,2.3189953.735817.8698576-.2052789,1.5260001-.8426745,1.7565874-1.7059707,1.8278257-6.8482536,1.5072532-13.4696694.9157875-17.8180199ZM74.9999339,22.6897197c3.5741023,0,6.4817512,2.9076489,6.4817512,6.4817512s-2.9076489,6.4817512-6.4817512,6.4817512-6.4817512-2.9076489-6.4817512-6.4817512,2.9076489-6.4817512,6.4817512-6.4817512Z"/>
  <rect class="cls-1" x="68.5187967" y="22.6900267" width="12.9628884" height="12.9628884" rx="6.0935866" ry="6.0935866"/>
</svg>