<?xml version="1.0" encoding="UTF-8"?>
<svg id="Layer_1" data-name="Layer 1" xmlns="http://www.w3.org/2000/svg" xmlns:xlink="http://www.w3.org/1999/xlink" viewBox="0 0 150 150">
  <defs>
    <style>
      .cls-1 {
        fill: none;
      }

      .cls-2 {
        fill: #2c2b32;
      }

      .cls-3 {
        fill: #f9e9c6;
      }

      .cls-4 {
        fill: #df9e81;
      }

      .cls-5 {
        fill: #b5c082;
      }

      .cls-6 {
        fill: #b35d38;
      }

      .cls-7 {
        clip-path: url(#clippath);
      }
    </style>
    <clipPath id="clippath">
      <path class="cls-1" d="M63.3900735,13.4907914h73.7173711c1.10383,0,2,.89617,2,2v68.5208989c0,28.9741691-23.5233492,52.4975182-52.4975182,52.4975182H12.8925553c-1.10383,0-2-.89617-2-2v-68.5208989c0-28.9741691,23.5233492-52.4975182,52.4975182-52.4975182Z"/>
    </clipPath>
  </defs>
  <g class="cls-7">
    <path class="cls-5" d="M63.3900735,13.4907914h73.7173711c1.10383,0,2,.89617,2,2v68.5208989c0,28.9741691-23.5233492,52.4975182-52.4975182,52.4975182H12.8925553c-1.10383,0-2-.89617-2-2v-68.5208989c0-28.9741691,23.5233492-52.4975182,52.4975182-52.4975182Z"/>
    <g>
      <polygon class="cls-6" points="69.5976564 22.4721177 82.5007278 22.4721177 95.6259718 9.3468737 153.4074504 10.101043 151.4149387 45.7604417 116.5467808 80.6285997 67.9135698 31.9953887 69.5976564 22.4721177"/>
      <path class="cls-3" d="M-6.6986067,38.5403454l87.1525737,86.5258491c2.5246423,2.4982524,6.5932508,2.4875643,9.1047328-.0239177l.0000091-.0000091c2.520842-2.520842,2.520842-6.6079344,0-9.1287765l-3.7600446-3.7600446c-.4345595-.4345595-.4345595-1.1391197,0-1.5736792l.2248131-.2248131c.4345595-.4345595,1.1391197-.4345595,1.5736792,0l5.6871159,5.6871159c2.6694371,2.6694371,6.9974497,2.669437,9.6668867,0l.0000097-.0000097c2.669437-2.6694371,2.669437-6.9974497,0-9.6668867l-5.4623043-5.4623044c-.4345595-.4345595-.4345595-1.1391197,0-1.5736792l.2248131-.2248131c.4345595-.4345595,1.1391197-.4345595,1.5736792,0l6.7965188,6.7965188c2.5763172,2.5763172,6.7533526,2.5763171,9.3296697,0l.0000093-.0000093c2.5763172-2.5763172,2.5763171-6.7533526,0-9.3296697l-6.7965188-6.7965188c-.4345595-.4345595-.4345595-1.1391197,0-1.5736792l.0000016-.0000016c.4345595-.4345595,1.1391197-.4345595,1.5736792,0l3.6760893,3.6760893c2.7499119,2.7499119,7.2083999,2.7499119,9.9583118,0l.00001-.00001c2.7526442-2.7526442,2.7495084-7.2165282-.0070003-9.9653023L43.0034818,1.3010506.6126048-.258271l-7.3112115,38.7986165Z"/>
      <path class="cls-4" d="M32.7602769,91.3254669l32.9070179,33.5196341c4.3759979,4.3759979,6.6196487,1.7184115,11.4769326-3.1388724l.0000067-.0000073-37.6122185-37.2712956-7.0168474-7.5257845c-4.0843868,3.979659-3.9722039,10.5778136.2451087,14.4163257Z"/>
      <rect class="cls-6" x="23.1405785" y="76.0050783" width="21.462627" height="13.826934" rx="6.9134614" ry="6.9134614" transform="translate(-48.7114181 48.237324) rotate(-44.9999999)"/>
      <path class="cls-6" d="M58.934751,26.6876934h11.971806c4.7195783,0,8.5512771,3.8316988,8.5512771,8.5512771v8.5512921h-20.5230793c-4.7195788,0-8.5512779-3.8316992-8.5512779-8.5512779v-.0000171c0-4.7195767,3.8316975-8.5512742,8.5512742-8.5512742Z" transform="translate(-5.9029006 56.2270932) rotate(-44.9999999)"/>
      <rect class="cls-6" x="31.0673747" y="88.6234825" width="25.3492824" height="13.826934" rx="6.913459" ry="6.913459" transform="translate(-54.743085 58.9124007) rotate(-45)"/>
      <rect class="cls-6" x="44.5915695" y="98.7981574" width="22.5744492" height="13.8269341" rx="6.9134596" ry="6.9134596" transform="translate(-58.3828866 70.4744921) rotate(-44.9999999)"/>
      <polygon class="cls-6" points="74.0148046 37.9038627 88.1806425 46.3705671 77.0841048 35.0542959 74.0148046 37.9038627"/>
      <polygon class="cls-2" points="68.4972112 43.6758847 74.311731 37.9616153 88.1806425 46.3705671 109.8229749 67.9467451 68.4972112 43.6758847"/>
      <rect class="cls-6" x="58.1610774" y="108.9335951" width="19.743381" height="13.826934" rx="6.9134603" ry="6.9134603" transform="translate(-61.9899059 82.0372469) rotate(-44.9999984)"/>
    </g>
  </g>
</svg>