<?xml version="1.0" encoding="UTF-8"?>
<svg id="Layer_1" data-name="Layer 1" xmlns="http://www.w3.org/2000/svg" viewBox="0 0 150 150">
  <defs>
    <style>
      .cls-1 {
        fill: #2c2b32;
      }

      .cls-2 {
        fill: #b5c082;
      }

      .cls-3 {
        fill: #f6e6c4;
      }

      .cls-4 {
        fill: #425636;
      }

      .cls-5 {
        fill: #b35d38;
      }
    </style>
  </defs>
  <circle class="cls-3" cx="75" cy="81.4981844" r="57.5"/>
  <g>
    <path class="cls-4" d="M121.8333333,58.9981844H34.5c-1.1045695,0-2-.8954305-2-2V10.9981844c0-1.1045695.8954305-2,2-2h87.1715729c.530433,0,1.0391408.2107137,1.4142136.5857864l18.8284271,18.8284271c.3750728.3750728.5857864.8837806.5857864,1.4142136v44.1715729c0,1.6480906-1.8815275,2.5888544-3.2,1.6l-16.2666667-16.2c-.3461923-.2596443-.7672596-.4-1.2-.4Z"/>
    <circle class="cls-2" cx="55" cy="33.9981844" r="7.5"/>
    <circle class="cls-2" cx="78.75" cy="33.9981844" r="7.5"/>
    <circle class="cls-2" cx="102.5" cy="33.9981844" r="7.5"/>
  </g>
  <g>
    <path class="cls-5" d="M28.1666667,123.9981844h87.3333333c1.1045695,0,2-.8954305,2-2v-46c0-1.1045695-.8954305-2-2-2H28.3284271c-.530433,0-1.0391408.2107137-1.4142136.5857864l-18.8284271,18.8284271c-.3750728.3750728-.5857864.8837806-.5857864,1.4142136v44.1715729c0,1.6480906,1.8815275,2.5888544,3.2,1.6l16.2666667-16.2c.3461923-.2596443.7672596-.4,1.2-.4Z"/>
    <circle class="cls-1" cx="95" cy="98.9981844" r="7.5"/>
    <circle class="cls-1" cx="71.25" cy="98.9981844" r="7.5"/>
    <circle class="cls-1" cx="47.5" cy="98.9981844" r="7.5"/>
  </g>
</svg>