<?xml version="1.0" encoding="UTF-8"?>
<svg id="Layer_1" data-name="Layer 1" xmlns="http://www.w3.org/2000/svg" viewBox="0 0 150 150">
  <defs>
    <style>
      .cls-1 {
        fill: #2c2b32;
      }

      .cls-2 {
        fill: #df9e81;
      }

      .cls-3 {
        fill: #b5c082;
      }

      .cls-4 {
        fill: #f6e6c4;
      }

      .cls-5 {
        fill: #425636;
      }

      .cls-6 {
        fill: #b35d38;
      }
    </style>
  </defs>
  <path class="cls-4" d="M48.3124768,37.415655h92.3156664c1.1964414,0,2.1678.9713586,2.1678,2.1678v99.4983145H48.3124768V37.415655h0Z"/>
  <path class="cls-2" d="M31.0293925,21.9989995h43.9706075v55.9986904H8.412259v-33.3815569c0-12.4827358,10.1343977-22.6171335,22.6171335-22.6171335Z"/>
  <path class="cls-5" d="M10.580059,75.0388216h132.2158842v64.0429479H10.580059c-1.1964414,0-2.1678-.9713586-2.1678-2.1678v-59.7073479c0-1.1964414.9713586-2.1678,2.1678-2.1678Z"/>
  <path class="cls-3" d="M130.5330805,52.447998v-11.045166h-4.914978v-10.7675781h-6.6259766v-14.538208h-3.4324951v14.538208h-6.6259766v10.7675781h-4.914978v11.045166h-5.0341187v86.4660645c0,.0925293.0750732.1677246.1677246.1677246h36.414917V52.447998h-5.0341187Z"/>
  <path class="cls-6" d="M101.0070179,35.0703315V15.2291475c0-1.2316767-.9705483-2.230148-2.1677802-2.230148h-33.6005938c-1.197232,0-2.1677802.9984713-2.1677802,2.230148v19.841184c0,1.2316767-.9705483,2.230148-2.1677802,2.230148h-6.5033407c-1.197232,0-2.1677802.9984713-2.1677802,2.230148v99.5511421h57.4461766c1.197232,0,2.1677802-1.0228242,2.1677802-2.2845419V39.5306275c0-1.2316767-.9705483-2.230148-2.1677802-2.230148h-6.5033407c-1.197232,0-2.1677802-.9984713-2.1677802-2.230148Z"/>
  <g>
    <rect class="cls-1" x="87.6082761" y="88.4137186" width="18.5693357" height="18.5693357" rx="2" ry="2" transform="translate(194.5913303 .8054425) rotate(90)"/>
    <rect class="cls-1" x="57.9002698" y="88.4137186" width="18.5693357" height="18.5693357" rx="2" ry="2" transform="translate(164.883324 30.5134488) rotate(90)"/>
  </g>
  <g>
    <rect class="cls-1" x="87.6082761" y="63.4353929" width="18.5693357" height="18.5693357" rx="2" ry="2" transform="translate(169.6130046 -24.1728832) rotate(90)"/>
    <rect class="cls-1" x="57.9002698" y="63.4353929" width="18.5693357" height="18.5693357" rx="2" ry="2" transform="translate(139.9049983 5.5351231) rotate(90)"/>
  </g>
  <g>
    <rect class="cls-1" x="87.6082761" y="113.3920443" width="18.5693357" height="18.5693357" rx="2" ry="2" transform="translate(219.569656 25.7837682) rotate(90)"/>
    <rect class="cls-1" x="57.9002698" y="113.3920443" width="18.5693357" height="18.5693357" rx="2" ry="2" transform="translate(189.8616497 55.4917745) rotate(90)"/>
  </g>
  <path class="cls-4" d="M47.1978437,52.447998v-11.045166h-4.914978v-10.7675781h-6.6259766v-14.538208h-3.4324951v14.538208h-6.6259766v10.7675781h-4.914978v11.045166h-5.0341187v86.4660645c0,.0925293.0750732.1677246.1677246.1677246h36.414917V52.447998h-5.0341187Z"/>
  <rect class="cls-1" x="24.6559585" y="88.4137186" width="18.5693357" height="18.5693357" rx="2" ry="2"/>
  <rect class="cls-1" x="24.6559585" y="63.4353929" width="18.5693357" height="18.5693357" rx="2" ry="2"/>
  <rect class="cls-1" x="24.6559585" y="113.3920443" width="18.5693357" height="18.5693357" rx="2" ry="2"/>
</svg>