<?xml version="1.0" encoding="UTF-8"?>
<svg id="Layer_1" data-name="Layer 1" xmlns="http://www.w3.org/2000/svg" viewBox="0 0 150 150">
  <defs>
    <style>
      .cls-1 {
        fill: #df9e81;
      }

      .cls-2 {
        fill: #b5c082;
      }

      .cls-3 {
        fill: #f6e6c4;
      }

      .cls-4 {
        fill: #425636;
      }

      .cls-5 {
        fill: #b35d38;
      }
    </style>
  </defs>
  <circle class="cls-3" cx="75" cy="75" r="58.2978241"/>
  <g>
    <circle class="cls-4" cx="118.6154092" cy="95.4478897" r="28.9083823"/>
    <circle class="cls-2" cx="118.6154092" cy="95.4478897" r="20.7102665"/>
    <circle class="cls-4" cx="31.3845908" cy="95.4478897" r="28.9083823"/>
    <circle class="cls-2" cx="31.3845908" cy="95.4478897" r="20.7102665"/>
    <path class="cls-1" d="M121.6931838,94.1223421l-17.4516376-40.5201809c-2.4167708-5.611997-1.1862957-12.0298569,3.133457-16.3500188l5.8225419-5.822131c1.131529-1.1314491,1.3931253-2.9261586.5093276-4.2601139-1.2149031-1.8337075-3.711819-2.0145714-5.1823899-.5449196l-5.8881175,5.8877085c-4.5486439,4.5484614-6.7380492,10.6979741-6.2607634,16.8416767.092578,1.1916794-.8109335,2.2220958-2.0062036,2.2220958l-37.6120363-.0000013c-.7875839,0-1.576272.2245818-2.1907577.7172234-1.2280163.9845177-1.5867654,2.6116768-.9970671,3.9690552l12.5925268,28.9865497c.537999,1.2384118-.2681877,2.6456154-1.608628,2.8078697l-33.4060704,4.0436554c-1.7400494.2106252-3.1546942,1.6642305-3.112852,3.4164816.0446175,1.8684738,1.5676378,3.2819182,3.3463845,3.2819182.1341741,0,.2699845-.0081813.4066131-.024544l40.714488-4.9288543c.7911365-.0940855,1.5495477-.4687914,2.1140608-1.1077548.0327254-.0372251.0646327-.0748594.0957218-.1137208l23.4550813-28.7274721c.957709-1.1729893,2.8180727-.9127003,3.4170754.4780931l13.9535977,32.3981416c.545696,1.2681092,1.7810799,2.0265204,3.0794601,2.0265204.442611,0,.8917671-.0879495,1.3237424-.2740752,1.7000845-.7322308,2.484676-2.7035271,1.7524452-4.4032025ZM71.66739,81.1011533l-8.6886763-20.0000268c-.5790612-1.3329119.3978989-2.8225057,1.8511594-2.8225057h25.0182246c1.7017288,0,2.6396361,1.9766003,1.5633844,3.2947668l-16.3295483,20.0000268c-.9559467,1.1708199-2.8122738.9140737-3.4145437-.4722612Z"/>
    <path class="cls-5" d="M58.7028465,48.4802417l-13.0282547,1.9658624c-5.6926834.8589817-10.8155784-3.5489003-10.8155784-9.3060257v-.0000135c0-1.4097171,1.1428015-2.5525186,2.5525186-2.5525186h20.9104705c1.4097171,0,2.5525186,1.1428015,2.5525186,2.5525186v4.8162297c0,1.262643-.9231649,2.3355567-2.1716746,2.5239471Z"/>
  </g>
</svg>