<?xml version="1.0" encoding="UTF-8"?>
<svg id="Layer_1" data-name="Layer 1" xmlns="http://www.w3.org/2000/svg" viewBox="0 0 150 150">
  <defs>
    <style>
      .cls-1 {
        fill: #2c2b32;
      }

      .cls-2 {
        fill: #f6e6c4;
      }

      .cls-2, .cls-3 {
        fill-rule: evenodd;
      }

      .cls-4 {
        fill: #df9e81;
      }

      .cls-5 {
        fill: #b5c082;
      }

      .cls-6 {
        fill: #425636;
      }

      .cls-7, .cls-3 {
        fill: #b35d38;
      }
    </style>
  </defs>
  <g>
    <path class="cls-4" d="M47.1040652,9.3735057h98.6979591v99.4519399H47.1040652c-1.10383,0-2-.89617-2-2V11.3735057c0-1.10383.89617-2,2-2Z" transform="translate(190.9060895 118.1989513) rotate(180)"/>
    <path class="cls-5" d="M46.793426,26.9350069h67.2949884c1.10383,0,2,.89617,2,2v97.3273461c0,1.10383-.89617,2-2,2H42.1111482c-20.9248495,0-37.9131725-16.988323-37.9131725-37.9131725v-20.8187233c0-23.509069,19.0863813-42.5954503,42.5954503-42.5954503Z" transform="translate(120.2863901 155.1973599) rotate(180)"/>
  </g>
  <g>
    <path class="cls-2" d="M133.0435212,76.5456797c0,31.513019-25.5463494,57.0593685-57.0593685,57.0593685s-57.0593685-25.5463494-57.0593685-57.0593685c0-15.7565076,42.7648077-14.1794645,53.0905203-24.5051789,10.325715-10.3257169-11.7876632-32.5541896,3.9688482-32.5541896,31.513019,0,57.0593685,25.5463494,57.0593685,57.0593685Z"/>
    <path class="cls-3" d="M45.1040707,140.6264943h-.000011c-3.0949861,0-5.6625235-1.9527752-5.87828-4.4708051l-3.5076098-40.9362735,3.8274557-44.6690993c.0356141-.4156419.4594281-.7379793.970306-.7379793h9.1762673c.5108779,0,.9346918.3223374.970306.7379793l3.8274557,44.6690993-3.5076099,40.9362736c-.2157565,2.5180299-2.7832939,4.4708051-5.87828,4.4708051Z"/>
    <path class="cls-1" d="M34.4030958,30.1213491c0-7.6710442,7.1824025-17.1376891,9.7786552-20.3090547.478955-.5850515,1.3656734-.5850515,1.8446285,0,2.5962527,3.1713657,9.7786552,12.6380105,9.7786552,20.3090547,0,5.9099822-4.7909872,10.7009694-10.7009694,10.7009694s-10.7009694-4.7909872-10.7009694-10.7009694Z"/>
    <rect class="cls-7" x="42.609056" y="36.8143553" width="4.9900184" height="17.0059449" rx="2.3663808" ry="2.3663808" transform="translate(90.4213933 .2132629) rotate(90.0000004)"/>
    <circle class="cls-5" cx="104.6383672" cy="56.9569651" r="10.7056006"/>
    <circle class="cls-6" cx="104.9843394" cy="91.3020768" r="10.7056006"/>
    <circle class="cls-4" cx="75" cy="109.4204325" r="10.7056006"/>
  </g>
</svg>