<?xml version="1.0" encoding="UTF-8"?>
<svg id="Layer_1" data-name="Layer 1" xmlns="http://www.w3.org/2000/svg" viewBox="0 0 150 150">
  <defs>
    <style>
      .cls-1 {
        fill: #df9e81;
      }

      .cls-2 {
        fill: #b5c082;
      }

      .cls-3 {
        fill: #f6e6c4;
      }

      .cls-4 {
        fill: #425636;
      }

      .cls-5 {
        fill: #b35d38;
      }
    </style>
  </defs>
  <path class="cls-2" d="M9.2424753,5.8704135h80.4225329c1.10383,0,2,.89617,2,2v120.0525119H9.2424753c-1.10383,0-2-.89617-2-2V7.8704135c0-1.10383.89617-2,2-2Z"/>
  <path class="cls-4" d="M67.5445081,68.9165699h73.2130166c1.10383,0,2,.89617,2,2v71.2130166c0,1.10383-.89617,2-2,2h-71.2130166c-1.10383,0-2-.89617-2-2v-73.2130166h0Z"/>
  <g>
    <path class="cls-3" d="M109.0888169,41.5572251v-13.6369172c0-2.5911137-2.1005127-4.6916265-4.6916265-4.6916265h-58.7943809c-2.5911137,0-4.6916265,2.1005127-4.6916265,4.6916265v13.6369172c0,12.7727891,7.0270521,23.899109,17.424944,29.7351646,2.7107071,1.5214466,2.7107081,5.5196966.0000015,7.0411441-10.3978928,5.8360604-17.4249455,16.9624044-17.4249455,29.7353044v13.6367769c0,2.5911137,2.1005127,4.6916265,4.6916265,4.6916265h58.7943809c2.5911137,0,4.6916265-2.1005127,4.6916265-4.6916265v-13.6367769c0-12.7729-7.0270961-23.8992439-17.4250074-29.7353044-2.7107091-1.5214461-2.710708-5.5196988.0000015-7.0411441,10.3979105-5.8360556,17.4250059-16.9623754,17.4250059-29.7351646Z"/>
    <path class="cls-1" d="M47.2399649,125.3254879c2.6578728-12.9179245,14.0941994-22.6369472,27.7596493-22.6369472,13.6744298,0,25.1174912,9.7336149,27.7652645,22.6369476l-55.5249138-.0000004Z"/>
    <rect class="cls-5" x="34.7724973" y="116.4704345" width="80.4550054" height="11.4524909" rx="5.7262397" ry="5.7262397"/>
    <rect class="cls-5" x="34.7724973" y="22.0770747" width="80.4550054" height="11.4524909" rx="5.7262396" ry="5.7262396"/>
    <path class="cls-1" d="M74.5732021,68.8702589c-12.1856165,0-22.6002611-7.7308551-26.5966697-18.5453011-1.8401899-4.9796295,1.3408599-10.4146565,6.5463812-11.4565569l.0000181-.0000036c6.122378-1.225412,12.4590715.5906348,17.0029857,4.8729228l.0000187.0000176c6.6481486,6.2653662,16.7812535,7.0035838,24.2672757,1.767921l.00002-.000014c2.9241509-2.0451272,6.7491372.8524449,5.5870376,4.2262748-3.8308763,11.1218737-14.4011846,19.1347393-26.8070673,19.1347393Z"/>
    <circle class="cls-1" cx="75.0024218" cy="82.2156201" r="6.1407424"/>
    <circle class="cls-1" cx="75.0024218" cy="95.0955485" r="3.6295505"/>
  </g>
</svg>