<?xml version="1.0" encoding="UTF-8"?>
<svg id="Layer_1" data-name="Layer 1" xmlns="http://www.w3.org/2000/svg" xmlns:xlink="http://www.w3.org/1999/xlink" viewBox="0 0 150 150">
  <defs>
    <style>
      .cls-1 {
        fill: none;
      }

      .cls-2 {
        fill: #f9e9c6;
      }

      .cls-3 {
        fill: #df9e81;
      }

      .cls-4 {
        fill: #b5c082;
      }

      .cls-5 {
        fill: #425636;
      }

      .cls-6 {
        fill: #b35d38;
      }

      .cls-7 {
        clip-path: url(#clippath);
      }
    </style>
    <clipPath id="clippath">
      <circle class="cls-1" cx="75" cy="75" r="59.0207839"/>
    </clipPath>
  </defs>
  <g>
    <path class="cls-3" d="M32.1608071,4.5806601h72.6992507v103.0100675H3.3666178V33.3748494c0-15.8919457,12.9022436-28.7941893,28.7941893-28.7941893Z"/>
    <path class="cls-6" d="M49.7903803,75h96.8430019v41.6251506c0,15.8919457-12.9022436,28.7941893-28.7941893,28.7941893H49.7903803v-70.4193399h0Z"/>
  </g>
  <g>
    <circle class="cls-2" cx="75" cy="75" r="59.0207839"/>
    <g class="cls-7">
      <path class="cls-4" d="M102.7534188,19.5803352s-8.5490822.3466383-6.9259079,3.4663826c1.6231743,3.1197443,2.0671652,9.0125947-2.8344468,11.7857008-4.9016119,2.7731061-6.3867333,9.7058713-2.0044709,11.4390625,4.3822624,1.7331913,7.0150497-9.1852041,11.7648256-6.1524742s8.979501,11.3520481,13.6240845,9.2722186,3.9607491-2.1337395,8.5152273.329761c4.5544783,2.4635004,10.3410496-2.0629523,9.1280533-3.4495053-1.2129963-1.386553-27.2968921-26.6911459-27.2968921-26.6911459h-3.970473Z"/>
      <path class="cls-4" d="M59.2251178,10.2211022s2.4386158,3.1593504,1.6136256,7.4725256c-.8249902,4.3131752-10.8774997,3.9665369-8.7976701,7.4329195,2.0798296,3.4663826,5.9123073,3.8130208,4.3427067,8.3193182s-8.3332896,2.9471349-10.3243381,6.6731414-1.9910485,9.9874826-5.8040694,10.3231271-12.8249198,1.6209565-14.2121686,7.2684097-2.1763282,16.5373954-5.5462121,11.0924243c-3.369884-5.4449712-6.5861269-10.745786-6.5861269-10.745786l19.7583808-38.4768467,25.5558722-9.359233Z"/>
      <path class="cls-4" d="M51.3477968,87.8680723s-2.9506681-2.0798296-5.2883549-5.8928504-8.2305372-9.0975081-15.8565789-6.9752219c-7.6260417,2.1222862-8.3193182,12.521434-5.5462121,15.6411783s7.6260417,3.4663826,9.7058713,9.7058713,1.657101,8.1278822,2.8945909,11.2062592,4.315867,10.6717071,7.394244,11.4926076-.4104503-7.7985552,1.6418011-10.0560317c2.0522514-2.2574765,4.1045027-1.0261257,6.7724295-3.2836022s1.0261257-4.7201781,2.6679268-6.1567541,6.9776546-1.6418011,6.9776546-5.9515289-1.1781052-11.045624-11.3633722-9.7299273Z"/>
      <path class="cls-4" d="M90.4165624,60.6574751c-4.2989307,1.7195723-15.3918852,7.59333-10.8769322,16.0075606,4.514953,8.4142306,14.3657595-.4104503,18.2650371,6.1567541,3.8992776,6.5672043-1.8470262,13.7500841,1.0261257,16.8284611s3.6940524,5.3358535,1.8470262,7.59333c-1.8470262,2.2574765-4.1045027,6.1567541-2.0522514,7.1828798s10.0560317,1.0261257,16.4180109-7.59333c0,0,3.078377-5.5410787,5.1306284-11.6978327,2.0522514-6.1567541,6.5672043-4.9254033,7.7985552-8.2090054,1.2313508-3.2836022,1.436576-13.544859-1.6418011-13.7500841s-4.1045027,2.0522514-5.5410787-1.436576c-1.436576-3.4888273-1.6406335-8.3816356-6.1567541-8.3816356s-4.7201781-.032595-8.0037803-2.7005217c-3.2836022-2.6679268-7.3881049-6.7724295-10.4664819-4.514953,0,0-2.6679268,3.2836022-5.7463038,4.514953Z"/>
      <circle class="cls-5" cx="57.1700904" cy="53.2693702" r="3.8390565"/>
      <circle class="cls-5" cx="73.7933264" cy="107.0383558" r="2.7705393"/>
      <circle class="cls-5" cx="74.595719" cy="24.3387954" r="1.9681467"/>
      <circle class="cls-5" cx="64.6793157" cy="126.7399688" r="1.9681467"/>
      <circle class="cls-5" cx="88.3883696" cy="125.0452581" r="1.9681467"/>
    </g>
  </g>
</svg>