<?xml version="1.0" encoding="UTF-8"?>
<svg id="Layer_1" data-name="Layer 1" xmlns="http://www.w3.org/2000/svg" viewBox="0 0 150 150">
  <defs>
    <style>
      .cls-1 {
        fill: #f6e6c4;
      }

      .cls-1, .cls-2 {
        fill-rule: evenodd;
      }

      .cls-3 {
        fill: #df9e81;
      }

      .cls-4, .cls-2 {
        fill: #b5c082;
      }

      .cls-5 {
        fill: #425636;
      }

      .cls-6 {
        fill: #b35d38;
      }
    </style>
  </defs>
  <g>
    <path class="cls-3" d="M45.4132,34.8822426h58.8776836v91.7923612H7.5v-53.8791612c0-20.9248647,16.9883353-37.9132,37.9132-37.9132Z"/>
    <path class="cls-6" d="M52.013388,70.5091893h78.7049839v75.0824482c0,1.10383-.89617,2-2,2H34.6256873v-59.6947474c0-9.5965333,7.7911675-17.3877007,17.3877007-17.3877007Z"/>
  </g>
  <g>
    <circle class="cls-5" cx="95.5776433" cy="48.5296236" r="29.6716822"/>
    <circle class="cls-4" cx="95.5776433" cy="48.5296236" r="12.2681694"/>
    <path class="cls-1" d="M114.8002241,29.1634675c-4.918746-4.9189603-11.7152416-7.9616373-19.2226701-7.9616373-7.5070112,0-14.3037211,3.042677-19.2228844,7.9616373-4.9187516,4.9191633-7.9616373,11.7152416-7.9616373,19.2222528,0,7.5076372,3.0428857,14.3043471,7.9616373,19.2233017,4.9191633,4.9189603,11.7154559,7.96122,19.2228844,7.96122s14.3039241-3.0422597,19.2226701-7.96122c4.9189603-4.9189547,7.961846-11.7156646,7.961846-19.2233017,0-7.5070112-3.0428857-14.3030894-7.961846-19.2222528M105.2555896,13.5874676c3.0752462.8535774,5.9853568,2.1040137,8.6723615,3.6924757l-.0292023-.0180695,7.7965103-6.4569958c.5315649-.440237,1.3108187-.4037078,1.7988689.0843258l5.2625423,5.262363,5.2623603,5.2625396c.4880347.4880513.5245628,1.2673073.0843232,1.7988721l-6.7023676,8.0927342-.0170206-.0313002c1.3966564,2.5909891,2.4861643,5.3716916,3.2197857,8.2939895l-.0033669-.0161746,10.6872481,1.0043454c.6872146.0645817,1.2124178.6414978,1.2123675,1.3317403l-.0005428,7.4425844.0005428,7.4423465c.0000503.6902548-.525171,1.2671769-1.2123994,1.3317433l-11.2336451,1.0554221.0029383-.0107154c-.7247482,2.324341-1.6779399,4.5473386-2.8333792,6.6433858-.2674836.4852338-.2209129,1.0815137.1324964,1.5082468l6.7473648,8.1472777c.4402286.5315653.403696,1.3108122-.0843341,1.7988589l-5.2623714,5.2625507-5.2625429,5.2623636c-.4880499.4880333-1.2673032.5245628-1.7988681.0843264l-9.1561874-7.5830559.0376054-.0210078c-2.2460322,1.2006435-4.6334513,2.1710301-7.13138,2.8788104l.025841-.0069312-1.1193146,11.9160715c-.0645511.6872018-.6414211,1.2124241-1.3316481,1.2124241h-14.8852438c-.6902267,0-1.2670967-.5252219-1.331648-1.2124235l-1.0353632-11.0222857c-.050782-.5406162-.4264798-.9886919-.9448973-1.1502099-2.167047-.6751646-4.2460017-1.5490911-6.2168623-2.60033l.0098751.0054649-9.1563833,7.5834357c-.531571.440254-1.3108458.4037224-1.7988987-.0843305l-5.262322-5.262322-5.2625394-5.2625394c-.4880493-.4880493-.5245845-1.2673169-.0843391-1.7988884l7.3342974-8.8557504.0128134.0205905c-1.3670311-2.3334248-2.4802765-4.8336601-3.3004557-7.4633092l.0033613.0102924-11.2338818-1.0554267c-.6872167-.0645642-1.2124347-.6414675-1.2124015-1.3317104l.0003587-7.4423748-.0003587-7.4426147c-.0000333-.6902298.5251654-1.2671266,1.2123674-1.3317072l10.6872726-1.0043482-.0109241.0455856c.7334127-2.9311184,1.8246012-5.7206413,3.2248219-8.3189902l-.0147027.02689-6.7025444-8.0927158c-.4402573-.5315708-.403727-1.3108484.0843273-1.7989027l5.2625274-5.2625274,5.262344-5.262344c.4880437-.4880437,1.2673004-.5245844,1.7988726-.0843522l7.7967106,6.4570032-.0069368.0044102c2.6735597-1.578164,5.5685447-2.8216635,8.6257214-3.6725169l-.0090348.0025209.9371613-9.9755185c.0645593-.6871945.6414261-1.212407,1.3316465-1.212407h14.8852973c.6902109,0,1.2670731.5251985,1.3316441,1.2123824l.9373496,9.9755432-.0336182-.0088205Z"/>
  </g>
  <path class="cls-2" d="M7.5,145.5916374v-23.6693113h52.9369146v25.6693113H9.5c-1.1045695,0-2-.8954305-2-2Z"/>
  <path class="cls-1" d="M60.4369146,147.5916374v-25.6693113h70.2814574v23.6693113c0,1.1045695-.8954305,2-2,2H60.4369146Z"/>
  <path class="cls-2" d="M60.4369146,121.9223262v-25.6693113h70.2814574v25.6693113H60.4369146Z"/>
</svg>