<?xml version="1.0" encoding="UTF-8"?>
<svg id="Layer_1" data-name="Layer 1" xmlns="http://www.w3.org/2000/svg" viewBox="0 0 150 150">
  <defs>
    <style>
      .cls-1 {
        fill: #f9e9c6;
      }

      .cls-2 {
        fill: #df9e81;
      }

      .cls-3 {
        fill: #b5c082;
      }

      .cls-4 {
        fill: #c56b2f;
      }
    </style>
  </defs>
  <g>
    <path class="cls-2" d="M32.8821318,4.0547807h83.0962387v111.8904387H4.0879318V32.8489807c0-15.8919516,12.9022484-28.7942,28.7942-28.7942Z"/>
    <path class="cls-3" d="M34.0216295,34.0547807h111.8904387v83.0962387c0,15.8919516-12.9022484,28.7942-28.7942,28.7942H34.0216295V34.0547807h0Z"/>
  </g>
  <g>
    <polygon class="cls-4" points="75 7.8613457 89.2476984 19.0777906 107.0759506 15.7673575 114.4791191 32.3202618 131.8036875 37.6742207 130.6663495 55.7715135 143.5183841 68.5633371 134.10109 84.0591468 139.5363447 101.3583823 123.9964831 110.7028056 120.7698064 128.5464068 102.6673723 129.5987488 91.5179571 143.8989616 75 136.4181436 58.4820429 143.8989616 47.3326277 129.5987488 29.2301936 128.5464068 26.0035169 110.7028056 10.4636553 101.3583823 15.89891 84.0591468 6.4816159 68.5633371 19.3336505 55.7715135 18.1963125 37.6742207 35.5208809 32.3202618 42.9240494 15.7673575 60.7523016 19.0777906 75 7.8613457"/>
    <circle class="cls-1" cx="75" cy="76.8829752" r="53.3811988"/>
  </g>
</svg>