<?xml version="1.0" encoding="UTF-8"?>
<svg id="Layer_1" data-name="Layer 1" xmlns="http://www.w3.org/2000/svg" xmlns:xlink="http://www.w3.org/1999/xlink" viewBox="0 0 150 150">
  <defs>
    <style>
      .cls-1 {
        fill: none;
      }

      .cls-2 {
        fill: #bec793;
      }

      .cls-3 {
        fill: #df9e81;
      }

      .cls-4 {
        fill: #f6e6c4;
      }

      .cls-5 {
        fill: #425636;
      }

      .cls-6 {
        fill: #b35d38;
      }

      .cls-7 {
        clip-path: url(#clippath-1);
      }

      .cls-8 {
        clip-path: url(#clippath);
      }
    </style>
    <clipPath id="clippath">
      <path class="cls-1" d="M17.5932915,21.633495h72.6338822c3.3114901,0,6,2.6885099,6,6v48.1967607c0,3.3114901-2.6885099,6-6,6H17.9250784c-3.4946084,0-6.331787-2.8371786-6.331787-6.331787V27.633495c0-3.3114901,2.6885099-6,6-6Z"/>
    </clipPath>
    <clipPath id="clippath-1">
      <path class="cls-1" d="M59.7728263,51.8130298h72.6338822c3.3114901,0,6,2.6885099,6,6v48.1967607c0,3.3114901-2.6885099,6-6,6H60.1046132c-3.4946084,0-6.331787-2.8371786-6.331787-6.331787v-47.8649737c0-3.3114901,2.6885099-6,6-6Z"/>
    </clipPath>
  </defs>
  <circle class="cls-3" cx="72.2049308" cy="76.2109859" r="59.1374511"/>
  <g>
    <path class="cls-4" d="M9.8518111,14.6515631h88.116843c3.3114901,0,6,2.6885099,6,6v62.1606245c0,3.3114901-2.6885099,6-6,6H10.183598c-3.4946084,0-6.331787-2.8371786-6.331787-6.331787V20.6515631c0-3.3114901,2.6885099-6,6-6Z"/>
    <g>
      <path class="cls-2" d="M17.5932915,21.633495h72.6338822c3.3114901,0,6,2.6885099,6,6v48.1967607c0,3.3114901-2.6885099,6-6,6H17.9250784c-3.4946084,0-6.331787-2.8371786-6.331787-6.331787V27.633495c0-3.3114901,2.6885099-6,6-6Z"/>
      <circle class="cls-6" cx="49.1089229" cy="43.6410452" r="10.8503818"/>
      <g class="cls-8">
        <path class="cls-5" d="M7.7260572,73.8199921l15.5898904-20.0561585c2.709998-3.4863715,7.9824141-3.4748938,10.6772073.0232436l9.5940748,12.4541625c2.658954,3.4516142,7.8427491,3.5175664,10.5886564.1347169l15.2374724-18.7719652c2.7042422-3.3315198,7.7898019-3.3275214,10.4888021.0082467l20.1922475,24.9561503v9.2618672H7.7260572s0-8.510905,0-8.0102635Z"/>
      </g>
    </g>
  </g>
  <g>
    <path class="cls-4" d="M52.0313459,44.8310979h88.116843c3.3114901,0,6,2.6885099,6,6v62.1606245c0,3.3114901-2.6885099,6-6,6H52.3631328c-3.4946084,0-6.331787-2.8371786-6.331787-6.331787v-61.8288375c0-3.3114901,2.6885099-6,6-6Z"/>
    <g>
      <path class="cls-2" d="M59.7728263,51.8130298h72.6338822c3.3114901,0,6,2.6885099,6,6v48.1967607c0,3.3114901-2.6885099,6-6,6H60.1046132c-3.4946084,0-6.331787-2.8371786-6.331787-6.331787v-47.8649737c0-3.3114901,2.6885099-6,6-6Z"/>
      <circle class="cls-6" cx="91.2884577" cy="73.82058" r="10.8503818"/>
      <g class="cls-7">
        <path class="cls-5" d="M49.905592,103.9995269l15.5898904-20.0561585c2.709998-3.4863715,7.9824141-3.4748938,10.6772073.0232436l9.5940748,12.4541625c2.658954,3.4516142,7.8427491,3.5175664,10.5886564.1347169l15.2374724-18.7719652c2.7042422-3.3315198,7.7898019-3.3275214,10.4888021.0082467l20.1922475,24.9561503v9.2618672H49.905592s0-8.510905,0-8.0102635Z"/>
      </g>
    </g>
  </g>
</svg>