<?xml version="1.0" encoding="UTF-8"?>
<svg id="Layer_1" data-name="Layer 1" xmlns="http://www.w3.org/2000/svg" viewBox="0 0 150 150">
  <defs>
    <style>
      .cls-1 {
        fill: #df9e81;
      }

      .cls-2 {
        fill: #b5c082;
      }

      .cls-3 {
        fill: #f6e6c4;
      }

      .cls-4 {
        fill: #425636;
      }

      .cls-5 {
        fill: #b35d38;
      }
    </style>
  </defs>
  <g>
    <path class="cls-3" d="M36.1586766,5.8236264h92.5143416c1.10383,0,2,.89617,2,2v99.0094114H10.6784027c-1.10383,0-2-.89617-2-2V33.3039003c0-15.166776,12.3134979-27.4802739,27.4802739-27.4802739Z"/>
    <path class="cls-5" d="M75.0003933,73.0019531h64.3212039c1.10383,0,2,.89617,2,2v44.0317414c0,15.166776-12.3134979,27.4802739-27.4802739,27.4802739h-36.84093c-1.10383,0-2-.89617-2-2v-71.5120153h0Z"/>
  </g>
  <g>
    <g>
      <path class="cls-1" d="M91.4222307,93.4582488l11.8520536,34.4469055c.8385229,2.4370899-2.0639969,4.4311921-4.0381394,2.7743006l-6.2016794-5.2050496c-1.4687079-1.2326818-3.721394-.4576062-4.1207099,1.4178015l-1.6861279,7.9189861c-.5367347,2.5208022-4.0517434,2.7347617-4.8902664.2976718l-11.8520536-34.4469055s21.0807298-6.785749,20.9369229-7.2037105Z"/>
      <path class="cls-4" d="M59.4156841,93.4582488l-11.8520536,34.4469055c-.8385229,2.4370899,2.0639969,4.4311921,4.0381394,2.7743006l6.2016794-5.2050496c1.4687079-1.2326818,3.721394-.4576062,4.1207099,1.4178015l1.6861279,7.9189861c.5367347,2.5208022,4.0517434,2.7347617,4.8902664.2976718l11.8520536-34.4469055s-21.0807298-6.785749-20.9369229-7.2037105Z"/>
    </g>
    <g>
      <path class="cls-2" d="M81.1259014,15.1279138l2.8147121,1.9966387c1.9254788,1.3658539,4.2521955,2.0490397,6.6104477,1.941003l3.4473509-.1579307c4.4939259-.2058766,8.6272956,2.4504791,10.3068675,6.6238223l1.2884221,3.2014276c.8813795,2.1900218,2.46938,4.0226723,4.5116771,5.2067535l2.9854799,1.7309188c3.8918364,2.2564054,5.9329139,6.7257423,5.08958,11.1446272l-.6469327,3.3897859c-.4425516,2.3188734-.0974462,4.7191349.9804808,6.8193965l1.5757401,3.0702139c2.0541162,4.0022946,1.3548739,8.8656299-1.7436132,12.1270917l-2.3768911,2.5019111c-1.6259757,1.711499-2.6333339,3.9173055-2.8620112,6.2669294l-.334286,3.4347377c-.4357713,4.4774836-3.6533289,8.1907426-8.0232216,9.2592903l-3.3522033.8196972c-2.293164.5607357-4.3331567,1.8717593-5.7958348,3.7247564l-2.1381787,2.7087566c-2.7873045,3.5311031-7.5016257,4.9153524-11.7555137,3.4517296l-3.2632146-1.1227647c-2.2322889-.7680571-4.6572329-.7680573-6.8895219-.0000004l-3.2632147,1.1227644c-4.2538882,1.4636224-8.9682092.0793726-11.7555134-3.4517309l-2.1381784-2.7087568c-1.4626779-1.8529973-3.5026705-3.1640211-5.7958344-3.7247571l-3.3522032-.8196976c-4.3698925-1.0685481-7.5874498-4.7818075-8.0232206-9.2592911l-.3342856-3.4347377c-.228677-2.3496239-1.236035-4.5554306-2.8620105-6.2669297l-2.3768908-2.5019113c-3.0984868-3.2614621-3.7977286-8.1247975-1.7436119-12.1270919l1.5757405-3.0702137c1.0779272-2.1002615,1.4230329-4.500523.9804816-6.8193964l-.6469324-3.3897859c-.8433334-4.418885,1.1977446-8.8882217,5.0895812-11.1446267l2.9854801-1.7309185c2.0422972-1.1840809,3.6302979-3.0167312,4.5116776-5.206753l1.2884225-3.2014274c1.6795724-4.1733431,5.8129423-6.8296983,10.3068682-6.6238212l3.4473509.1579311c2.3582522.108037,4.684969-.5751486,6.6104479-1.9410023l2.8147123-1.9966383c3.6692258-2.6027942,8.5825719-2.6027939,12.2517974.0000007Z"/>
      <path class="cls-4" d="M85.1424848,107.4648438c-1.4199219,0-2.8544922-.2314453-4.2480469-.7109375l-3.2626953-1.1230469c-1.6972656-.5839844-3.5664062-.5839844-5.2636719,0l-3.2626953,1.1230469c-5.25,1.8037109-11.0898438.0917969-14.53125-4.2675781l-2.1386719-2.7089844c-1.1113281-1.4072266-2.6835938-2.4179688-4.4277344-2.8447266l-3.3515625-.8193359c-5.3935547-1.3193359-9.3789062-5.9189453-9.9169922-11.4462891l-.3349609-3.4345703c-.1738281-1.7861328-.9501953-3.4863281-2.1855469-4.7871094l-2.3769531-2.5019531c-3.8242188-4.0253906-4.6914062-10.0498047-2.15625-14.9902344l1.5771484-3.0703125c.8183594-1.5966797,1.0849609-3.4462891.7480469-5.2089844l-.6474609-3.3896484c-1.0400391-5.4550781,1.4882812-10.9912109,6.2919922-13.7763672l2.9853516-1.7314453c1.5527344-.8994141,2.7763672-2.3115234,3.4462891-3.9765625l1.2880859-3.2021484c2.0742188-5.1494141,7.1669922-8.4550781,12.7412109-8.1875l3.4472656.1582031c1.7890625.0742188,3.5849609-.4433594,5.0498047-1.4824219l2.8144531-1.9970703c4.5302734-3.2128906,10.6162109-3.2109375,15.1445312,0l2.8144531,1.9970703c1.4648438,1.0390625,3.2724609,1.5546875,5.0488281,1.4824219l3.4482422-.1582031c5.5517578-.2822266,10.6669922,3.0371094,12.7412109,8.1875l1.2880859,3.2011719c.6699219,1.6660156,1.8945312,3.078125,3.4462891,3.9775391l2.9853516,1.7324219c4.8037109,2.7841797,7.3320312,8.3203125,6.2919922,13.7753906l-.6474609,3.3896484c-.3369141,1.7617188-.0703125,3.6123047.7490234,5.2099609l1.5751953,3.0693359c2.5351562,4.9394531,1.6699219,10.9638672-2.1542969,14.9902344l-2.3769531,2.5019531c-1.2363281,1.3017578-2.0126953,3.0019531-2.1865234,4.7871094l-.3339844,3.4345703c-.5390625,5.5283203-4.5244141,10.1279297-9.9179688,11.4462891l-3.3525391.8193359c-1.7431641.4267578-3.3154297,1.4375-4.4277344,2.8457031l-2.1367188,2.7080078c-2.5283203,3.203125-6.3515625,4.9785156-10.2841797,4.9785156ZM75.0008832,100.1943359c1.4423828,0,2.8847656.2363281,4.2568359.7080078l3.2636719,1.1230469c3.2480469,1.1181641,6.8535156.0566406,8.9804688-2.6367188l2.1367188-2.7089844c1.7998047-2.2783203,4.34375-3.9130859,7.1640625-4.6044922l3.3535156-.8193359c3.3330078-.8144531,5.7958984-3.6572266,6.1289062-7.0732422l.3339844-3.4345703c.28125-2.8886719,1.5371094-5.6396484,3.5380859-7.7460938l2.3769531-2.5019531c2.3632812-2.4882812,2.8984375-6.2109375,1.3310547-9.2636719l-1.5751953-3.0703125c-1.3261719-2.5849609-1.7568359-5.5791016-1.2128906-8.4296875l.6474609-3.3896484c.6435547-3.3710938-.9189453-6.7919922-3.8876953-8.5126953l-2.9853516-1.7314453c-2.5117188-1.4560547-4.4921875-3.7421875-5.5771484-6.4365234l-1.2880859-3.2011719c-1.28125-3.1826172-4.4482422-5.1757812-7.8740234-5.0605469l-3.4472656.1582031c-2.8867188.1455078-5.8007812-.7177734-8.1708984-2.3984375l-2.8144531-1.9970703c-2.7988281-1.984375-6.5605469-1.9863281-9.359375,0l-2.8144531,1.9970703c-2.3710938,1.6787109-5.2587891,2.5449219-8.171875,2.3984375l-3.4462891-.1582031c-3.4287109-.1347656-6.5927734,1.8769531-7.8740234,5.0605469l-1.2880859,3.2011719c-1.0839844,2.6943359-3.0644531,4.9804688-5.578125,6.4365234l-2.984375,1.7304688c-2.96875,1.7216797-4.53125,5.1425781-3.8876953,8.5136719l.6474609,3.3896484c.5439453,2.8525391.1132812,5.8466797-1.2119141,8.4296875l-1.5771484,3.0703125c-1.5664062,3.0527344-1.0302734,6.7753906,1.3330078,9.2636719l2.3769531,2.5019531c2,2.1054688,3.2558594,4.8564453,3.5371094,7.7460938l.3349609,3.4345703c.3320312,3.4160156,2.7949219,6.2587891,6.1279297,7.0732422l3.3525391.8193359c2.8212891.6914062,5.3652344,2.3261719,7.1640625,4.6035156l2.1386719,2.7099609c2.1259766,2.6923828,5.7353516,3.7558594,8.9794922,2.6367188l3.2636719-1.1230469c1.3730469-.4716797,2.8154297-.7080078,4.2587891-.7080078Z"/>
    </g>
    <path class="cls-4" d="M85.7390295,98.554303c-.2384465,0-.4752542-.0401508-.7038678-.1188135l-4.9598511-1.7068181c-1.6379882-.5629304-3.3448062-.8489023-5.0745676-.8489023-1.7305808,0-3.4373989.2859719-5.0737482.8480829l-4.9614899,1.7076375c-.2294331.0786628-.4662408.1188135-.7055067.1188135-.6694529,0-1.2913804-.3015406-1.7059987-.8267784l-3.248936-4.117504c-2.1460185-2.7171429-5.1778125-4.6656851-8.5390068-5.4875471l-5.0958721-1.2454937c-.8939695-.2187808-1.5560478-.9816457-1.6445434-1.8985586l-.5088497-5.2212409c-.3343167-3.4447735-1.8321869-6.723208-4.2166518-9.2322224l-3.6111125-3.8028529c-.6350379-.6686335-.779253-1.6683061-.3588989-2.4877099l2.3951172-4.6673239c1.5806299-3.0785,2.0935767-6.6470035,1.4437895-10.0467097l-.9824651-5.1507722c-.1728942-.9046218.2466405-1.8231734,1.043101-2.2853171l4.5394969-2.6327443c2.9924626-1.733039,5.3531649-4.4575566,6.6453647-7.6688l1.958375-4.8656196c.3334973-.8275978,1.1225832-1.3610297,2.0116363-1.3610297l.1024255.0016388,5.2400872.2400853c.2392659.0114717.4760736.0163881.7120619.0163881,3.2538524,0,6.3757808-.9947562,9.0273714-2.8769267l4.2764683-3.0334328c.4670602-.3310391.9414949-.4006884,1.2569654-.4006884s.7899052.0696493,1.256146.4006884l4.2797459,3.0350716c2.6491324,1.8805317,5.7710608,2.8752879,9.0249132,2.8752879.2368077,0,.472796-.0049164.7104231-.0155687l5.241726-.2409047.1024255-.0016388c.8890531,0,1.6789583.5334319,2.0116363,1.3602103l1.958375,4.866439c1.2921998,3.2112434,3.652902,5.935761,6.6478229,7.6704388l4.5353999,2.6302861c.7989187.4629631,1.217634,1.3815148,1.0447398,2.2861365l-.9832845,5.152411c-.6481484,3.4013451-.1352016,6.9690291,1.4454283,10.0467097l2.3942978,4.6656851c.4211735.8202232.2777779,1.8190764-.3564406,2.4868905l-3.6143901,3.8044917c-2.3820068,2.5065562-3.8798769,5.7841713-4.2158324,9.2289448l-.5080303,5.2236991c-.089315.9169128-.7513933,1.6797777-1.6470016,1.899378l-5.0934139,1.2446743c-3.3620137.821862-6.3946271,2.7704042-8.5390068,5.4875471l-3.2497554,4.1183234c-.4146183.5244184-1.0365458.825959-1.7068181.825959Z"/>
    <g>
      <rect class="cls-2" x="58.8549486" y="53.5131155" width="43.7456292" height="9.3298555" rx="4.6649194" ry="4.6649194" transform="translate(-17.4934725 74.1231154) rotate(-45.0000071)"/>
      <rect class="cls-2" x="50.0773217" y="59.978136" width="25.4597952" height="9.3298555" rx="4.6649241" ry="4.6649241" transform="translate(64.105357 -25.4778957) rotate(44.9999998)"/>
    </g>
  </g>
</svg>