<?xml version="1.0" encoding="UTF-8"?>
<svg id="Layer_1" data-name="Layer 1" xmlns="http://www.w3.org/2000/svg" viewBox="0 0 150 150">
  <defs>
    <style>
      .cls-1 {
        fill: #df9e81;
      }

      .cls-2 {
        fill: #f6e6c4;
      }

      .cls-3 {
        fill: #b35d38;
      }
    </style>
  </defs>
  <rect class="cls-2" x="17.5815035" y="18.6198863" width="57.482319" height="105.2845814"/>
  <rect class="cls-1" x="74.9799354" y="58.9499191" width="57.4385611" height="72.4301945"/>
  <path class="cls-3" d="M123.5070413,46.5384265c-2.2065824-3.8298618-5.4023652-7.1016535-9.3591666-9.4096329-8.8263297-5.1487956-19.8592419-4.5908804-28.1149625,1.4074819l-.8244884.608691c-5.4147496,3.9441074-9.0418175,9.8029909-10.1957298,16.2959534-1.1669158-6.4929625-4.7936742-12.351846-10.2214273-16.2959534l-.8114849-.608691c-8.2684146-5.9983623-19.3016364-6.5562775-28.1152721-1.4074819-3.9564918,2.3079793-7.1522746,5.5797711-9.358857,9.4096329-2.2065824,3.8425557-3.4239645,8.2430266-3.4239645,12.8210582,0,4.0328104.7353211,8.0019961,2.1304187,11.7052279,1.394788,3.72831,3.4493525,7.1903565,6.0996044,10.2339665l43.2950856,49.6230265.4058972.4565183.3928937-.4565183,43.2950856-49.6230265c2.650252-3.04361,4.7048164-6.5056564,6.099914-10.2339665,1.394788-3.7032317,2.1177247-7.6724175,2.1177247-11.7052279,0-4.5780316-1.2173821-8.9785025-3.4112706-12.8210582Z"/>
</svg>