<?xml version="1.0" encoding="UTF-8"?>
<svg id="Layer_1" data-name="Layer 1" xmlns="http://www.w3.org/2000/svg" viewBox="0 0 150 150">
  <defs>
    <style>
      .cls-1 {
        fill: #2c2b32;
      }

      .cls-2 {
        fill: #df9e81;
      }

      .cls-3 {
        fill: #b5c082;
      }

      .cls-4 {
        fill: #f6e6c4;
      }

      .cls-5 {
        fill: #b35d38;
      }
    </style>
  </defs>
  <path class="cls-2" d="M43.0305427,19.2202591h32.046119v99.9710291H8.0305427c-1.10383,0-2-.89617-2-2v-60.9710291c0-20.4208559,16.5791441-37,37-37Z"/>
  <path class="cls-3" d="M75,44.1237855h66.9694573c1.10383,0,2,.89617,2,2v56.8582475c0,20.4208559-16.5791441,37-37,37h-31.9694573V44.1237855h0Z"/>
  <g>
    <path class="cls-4" d="M87.4847357,75.5177221l-.0000003-53.0150199c0-6.8951289-5.5896065-12.4847353-12.4847354-12.4847353h-.0000312c-6.895112,0-12.4847051,5.5895921-12.4847064,12.4847041l-.0000095,52.859909c-.0000006,3.0819063-1.558872,5.9604723-4.1553756,7.6206878-9.224304,5.8980591-15.1132433,16.5513026-14.1966343,28.5072466,1.1615069,15.1503117,13.4808979,27.3684494,28.6395502,28.4154944,18.0761393,1.2485629,33.1276471-13.0451367,33.1276471-30.8544158,0-11.0426513-5.7897529-20.7283046-14.4970055-26.1993577-2.500517-1.571157-3.9486991-4.381359-3.9486991-7.3345132Z"/>
    <path class="cls-5" d="M74.4695892,129.750286c-13.5396309-.3402898-22.7716067-13.6312215-19.460182-26.7640761,2.0207656-8.0142004,7.9158962-12.0047892,12.3583665-13.9224711,3.2886937-1.419631,5.3725233-4.7103936,5.3725232-8.2924123l-.0000031-58.1353578c0-1.1819116.8480093-2.2613242,2.0238324-2.3811362,1.3515216-.137715,2.4957637.9241822,2.4957637,2.2481195v58.5262211c0,3.4621206,2.0384854,6.6186786,5.2253233,7.9715804,5.4538905,2.3153289,13.2202568,7.7686265,13.2202568,20.0507148,0,11.5934719-9.5773689,20.9918297-21.2358808,20.6988178Z"/>
  </g>
  <rect class="cls-1" x="87.7424091" y="56.8868673" width="4.9900184" height="17.0059449" rx="2.4950067" ry="2.4950067" transform="translate(24.8475783 155.6272578) rotate(-89.9999998)"/>
  <rect class="cls-5" x="90.242409" y="35.6158224" width="4.9900185" height="22.0059449" rx="2.4950067" ry="2.4950067" transform="translate(46.1186233 139.356213) rotate(-89.9999999)"/>
  <rect class="cls-5" x="87.742409" y="19.3447774" width="4.9900185" height="17.0059449" rx="2.4950068" ry="2.4950068" transform="translate(62.3896684 118.0851681) rotate(-90)"/>
</svg>