<?xml version="1.0" encoding="UTF-8"?>
<svg id="Layer_1" data-name="Layer 1" xmlns="http://www.w3.org/2000/svg" viewBox="0 0 150 150">
  <defs>
    <style>
      .cls-1 {
        fill: #df9e81;
      }

      .cls-2 {
        fill: #b5c082;
      }

      .cls-3 {
        fill: #f6e6c4;
      }

      .cls-4 {
        fill: #425636;
      }

      .cls-5 {
        fill: #b35d38;
      }
    </style>
  </defs>
  <circle class="cls-1" cx="75" cy="75" r="69.5868888"/>
  <path class="cls-3" d="M35.9114057,57.0700684h21.1600342v35.8598633h-21.1600342c-4.9499512,0-9.4299927-2.0100098-12.6799927-5.25-3.2399902-3.25-5.25-7.7299805-5.25-12.6799316,0-9.9000244,8.0300293-17.9299316,17.9299927-17.9299316Z"/>
  <path class="cls-3" d="M132.0214521,75c0,9.8999023-8.0300293,17.9299316-17.9299927,17.9299316h-21.1600342v-35.8598633h21.1600342c9.8999634,0,17.9299927,8.0299072,17.9299927,17.9299316Z"/>
  <rect class="cls-2" x="57.0714399" y="57.0700684" width="35.8599854" height="35.8598633"/>
  <path class="cls-5" d="M92.9314252,35.9099121v21.1601562h-35.8599854v-21.1601562c0-4.9499512,2.0100098-9.4299316,5.25-12.6799316,3.25-3.2399902,7.7299805-5.25,12.6799927-5.25,9.9000244,0,17.9299927,8.0300293,17.9299927,17.9299316Z"/>
  <path class="cls-4" d="M57.0714399,92.9299316h35.8599854v21.1600342c0,9.9000244-8.0299683,17.9300537-17.9299927,17.9300537s-17.9299927-8.0300293-17.9299927-17.9300537v-21.1600342Z"/>
</svg>