<?xml version="1.0" encoding="UTF-8"?>
<svg id="Layer_1" data-name="Layer 1" xmlns="http://www.w3.org/2000/svg" xmlns:xlink="http://www.w3.org/1999/xlink" viewBox="0 0 150 150">
  <defs>
    <style>
      .cls-1 {
        fill: none;
      }

      .cls-2 {
        fill: #2c2b32;
      }

      .cls-3 {
        fill: #df9e81;
      }

      .cls-4 {
        fill: #f6e6c4;
      }

      .cls-5 {
        fill: #425636;
      }

      .cls-6 {
        fill: #b35d38;
      }

      .cls-7 {
        clip-path: url(#clippath);
      }
    </style>
    <clipPath id="clippath">
      <circle class="cls-1" cx="74.9999405" cy="92.7564796" r="55.752479"/>
    </clipPath>
  </defs>
  <g>
    <g class="cls-7">
      <circle class="cls-4" cx="74.9999405" cy="92.7564796" r="55.752479"/>
      <g>
        <rect class="cls-6" x="49.9742309" y="102.8765508" width="53.7077824" height="53.7077824"/>
        <path class="cls-2" d="M103.6820133,102.8765508v7.6840327c-5.6218597,4.0348149-12.5619515,6.3301194-20.0037684,6.1328881l-16.3362722-.4303627v.0359c-6.4291729-.1523563-12.3828891-2.1519232-17.3677418-5.4695034v-7.9529547h53.7077824Z"/>
        <path class="cls-6" d="M114.6521042,76.0813255c-11.7788128-18.9899996-28.5432288-17.7893396-48.2094492-27.7108865l-14.9882039,13.1680843c-.0083183.3473986-.2031417.6339423-.4758945.807751.1882563,8.4152773-1.4263701,18.1951941-8.5048085,23.6872445-2.9473062,2.2869862-6.1305896,3.7939125-9.3550267,4.3782733,3.1552638,14.4892805,15.8695716,25.5038087,31.3529988,25.8874357l.0013134-.038308,16.3349588.4341935c18.1930051.469218,33.3161184-13.9085316,33.7666202-32.1015367l.2110222-8.5191466c-.0446562.0015323-.1099838.0448581-.1335307.0068954Z"/>
        <g>
          <path class="cls-2" d="M70.896342,29.4426851l-8.2597855,33.4292307c-.941482,3.8103916-5.0021162,6.1101176-9.1205851,5.1654115l-.0000151-.0000035c-4.2100012-.9657021-6.8698595-4.9466651-5.9075819-8.8417735l8.2179919-33.2647955c.9818823-3.8041035,5.0057361-6.3215616,9.141707-5.4003528,4.2754829.9623063,6.9433692,5.0055267,5.9282687,8.9122832Z"/>
          <path class="cls-2" d="M87.417203,36.3415937l-7.4458683,30.4881475c-.9328559,3.8197087-4.9990543,6.1292954-9.1248815,5.1829014l-.0082848-.0019004c-4.2033403-.9641742-6.8627549-4.9347887-5.9114497-8.8260355l7.4209924-30.3550446c.9833806-3.8127434,5.0072344-6.3302015,9.1416825-5.4002462,4.2754829.9623063,6.9429098,5.0054213,5.9278093,8.9121778Z"/>
          <path class="cls-2" d="M103.5576883,44.1651311l-6.3965194,26.5843204c-.9218979,3.8314633-4.9951129,6.1535423-9.1302421,5.2050145l-.0086045-.0019737c-4.1940841-.962051-6.8528558-4.9183002-5.9167639-8.8041377l6.3826137-26.4950485c.983405-3.81285,4.9980709-6.3324157,9.132519-5.4024604,4.2754829.9623063,6.9429098,5.0054213,5.9369972,8.9142853Z"/>
          <path class="cls-2" d="M119.5899353,52.33194l-5.2640901,22.3236586c-.9071786,3.8471121-4.9897292,6.1859125-9.1372745,5.2345367l-.0014406-.0003305c-4.1808574-.959017-6.8386578-4.8947702-5.9242352-8.7727913l5.2575487-22.2970051c.9813984-3.8041022,4.9960888-6.3237746,9.132519-5.4024604,4.2750235.9622009,6.9428853,5.005528,5.9369727,8.914392Z"/>
        </g>
        <g>
          <path class="cls-2" d="M71.5380964,29.765411l-8.2597855,33.4292307c-.941482,3.8103916-5.0021162,6.1101176-9.1205851,5.1654115l-.0000151-.0000035c-4.2100012-.9657021-6.8698595-4.9466651-5.9075819-8.8417735l8.2179919-33.2647955c.9818823-3.8041035,5.0057361-6.3215616,9.141707-5.4003528,4.2754829.9623063,6.9433692,5.0055267,5.9282687,8.9122832Z"/>
          <path class="cls-2" d="M88.0589574,36.6643196l-7.4458683,30.4881475c-.9328559,3.8197087-4.9990543,6.1292954-9.1248815,5.1829014l-.0082848-.0019004c-4.2033403-.9641742-6.8627549-4.9347887-5.9114497-8.8260355l7.4209924-30.3550446c.9833806-3.8127434,5.0072344-6.3302015,9.1416825-5.4002462,4.2754829.9623063,6.9429098,5.0054213,5.9278093,8.9121778Z"/>
          <path class="cls-2" d="M104.1994427,44.4878571l-6.3965194,26.5843204c-.9218979,3.8314633-4.9951129,6.1535423-9.1302421,5.2050145l-.0086045-.0019737c-4.1940841-.962051-6.8528558-4.9183002-5.9167639-8.8041377l6.3826137-26.4950485c.983405-3.81285,4.9980709-6.3324157,9.132519-5.4024604,4.2754829.9623063,6.9429098,5.0054213,5.9369972,8.9142853Z"/>
          <path class="cls-2" d="M120.2316897,52.654666l-5.2640901,22.3236586c-.9071786,3.8471121-4.9897292,6.1859125-9.1372745,5.2345367l-.0014406-.0003305c-4.1808574-.959017-6.8386578-4.8947702-5.9242352-8.7727913l5.2575487-22.2970051c.9813984-3.8041022,4.9960888-6.3237746,9.132519-5.4024604,4.2750235.9622009,6.9428853,5.005528,5.9369727,8.914392Z"/>
        </g>
        <g>
          <path class="cls-6" d="M73.5471348,28.0829846l-8.2597855,33.4292307c-.941482,3.8103916-5.0021162,6.1101176-9.1205851,5.1654115l-.0000151-.0000035c-4.2100012-.9657021-6.8698595-4.9466651-5.9075819-8.8417735l8.2179919-33.2647955c.9818823-3.8041035,5.0057361-6.3215616,9.141707-5.4003528,4.2754829.9623063,6.9433692,5.0055267,5.9282687,8.9122832Z"/>
          <path class="cls-6" d="M90.0679958,34.9818931l-7.4458683,30.4881475c-.9328559,3.8197087-4.9990543,6.1292954-9.1248815,5.1829014l-.0082848-.0019004c-4.2033403-.9641742-6.8627549-4.9347887-5.9114497-8.8260355l7.4209924-30.3550446c.9833806-3.8127434,5.0072344-6.3302015,9.1416825-5.4002462,4.2754829.9623063,6.9429098,5.0054213,5.9278093,8.9121778Z"/>
          <path class="cls-6" d="M106.208481,42.8054306l-6.3965194,26.5843204c-.9218979,3.8314633-4.9951129,6.1535423-9.1302421,5.2050145l-.0086045-.0019737c-4.1940841-.962051-6.8528558-4.9183002-5.9167639-8.8041377l6.3826137-26.4950485c.983405-3.81285,4.9980709-6.3324157,9.132519-5.4024604,4.2754829.9623063,6.9429098,5.0054213,5.9369972,8.9142853Z"/>
          <path class="cls-6" d="M122.240728,50.9722395l-5.2640901,22.3236586c-.9071786,3.8471121-4.9897292,6.1859125-9.1372745,5.2345367l-.0014406-.0003305c-4.1808574-.959017-6.8386578-4.8947702-5.9242352-8.7727913l5.2575487-22.2970051c.9813984-3.8041022,4.9960888-6.3237746,9.132519-5.4024604,4.2750235.9622009,6.9428853,5.005528,5.9369727,8.914392Z"/>
        </g>
        <path class="cls-3" d="M73.3854723,86.6636876l-.7301076,29.8183077-8.1869997-.2228237-.0061794.0479353c-5.6857991-.1453591-10.9905993-1.7223504-15.5898808-4.3700871,0,0,.0066624-.010986-.0044809-.0173817-1.1486922-.6483506-2.2608951-1.370874-3.308535-2.1656522-3.15985-2.3798568-5.8972017-5.3130645-8.0268815-8.6530618-.4313515-.6665581-.827543-1.3422934-1.2112302-2.039676-1.1328321-2.0968474-2.0518108-4.332241-2.7082787-6.6630008-.064404-.1779213-.1136395-.3689084-.1517316-.5534998-.798022-2.9517624-1.1730996-6.0587867-1.0944629-9.2736207l.2060567-8.3958515.0481004-1.7588031c.2327496-8.5105537,6.6520381-15.5725333,15.1018542-16.6138329l1.6810709-.2071641-.1592275,5.8836726c-.0221447.5612504.4206228,1.0212988.979684,1.0345134l.195739.0051502c6.4860822.1612671,12.2909958,2.9240948,16.4395378,7.2713515,4.1833644,4.3753534,6.6933994,10.3395075,6.5259529,16.8735249Z"/>
        <path class="cls-3" d="M85.1284702,53.0525712l1.0019228,5.6122527c.816621,4.5672502-2.3874322,8.911856-7.0542028,9.5221957l-7.5565899,1.0036835-4.6600809.5994597-34.2867587,4.3851124.248658-9.0922494c.1174422-4.2943079,3.3565266-7.8576853,7.6201871-8.3831107l8.9621803-1.10444,4.1648271-.5089727.0067214.0260726,16.4117762-2.1753061,12.6597794-1.6801874c1.1817427-.1564647,2.274838.6357506,2.4815801,1.7954897Z"/>
        <path class="cls-2" d="M46.4530106,72.4000576l26.8779025,11.9467687s.3592626-8.2886711-6.4713937-14.5566635l-20.4065088,2.6098949Z"/>
      </g>
    </g>
    <g>
      <path class="cls-2" d="M103.6820133,102.8765508v7.6840327c-5.6218597,4.0348149-12.5619515,6.3301194-20.0037684,6.1328881l-16.3362722-.4303627v.0359c-6.4291729-.1523563-12.3828891-2.1519232-17.3677418-5.4695034v-7.9529547h53.7077824Z"/>
      <path class="cls-6" d="M114.6521042,76.0813255c-11.7788128-18.9899996-28.5432288-17.7893396-48.2094492-27.7108865l-14.9882039,13.1680843c-.0083183.3473986-.2031417.6339423-.4758945.807751.1882563,8.4152773-1.4263701,18.1951941-8.5048085,23.6872445-2.9473062,2.2869862-6.1305896,3.7939125-9.3550267,4.3782733,3.1552638,14.4892805,15.8695716,25.5038087,31.3529988,25.8874357l.0013134-.038308,16.3349588.4341935c18.1930051.469218,33.3161184-13.9085316,33.7666202-32.1015367l.2110222-8.5191466c-.0446562.0015323-.1099838.0448581-.1335307.0068954Z"/>
      <g>
        <path class="cls-2" d="M70.896342,29.4426851l-8.2597855,33.4292307c-.941482,3.8103916-5.0021162,6.1101176-9.1205851,5.1654115l-.0000151-.0000035c-4.2100012-.9657021-6.8698595-4.9466651-5.9075819-8.8417735l8.2179919-33.2647955c.9818823-3.8041035,5.0057361-6.3215616,9.141707-5.4003528,4.2754829.9623063,6.9433692,5.0055267,5.9282687,8.9122832Z"/>
        <path class="cls-2" d="M87.417203,36.3415937l-7.4458683,30.4881475c-.9328559,3.8197087-4.9990543,6.1292954-9.1248815,5.1829014l-.0082848-.0019004c-4.2033403-.9641742-6.8627549-4.9347887-5.9114497-8.8260355l7.4209924-30.3550446c.9833806-3.8127434,5.0072344-6.3302015,9.1416825-5.4002462,4.2754829.9623063,6.9429098,5.0054213,5.9278093,8.9121778Z"/>
        <path class="cls-2" d="M103.5576883,44.1651311l-6.3965194,26.5843204c-.9218979,3.8314633-4.9951129,6.1535423-9.1302421,5.2050145l-.0086045-.0019737c-4.1940841-.962051-6.8528558-4.9183002-5.9167639-8.8041377l6.3826137-26.4950485c.983405-3.81285,4.9980709-6.3324157,9.132519-5.4024604,4.2754829.9623063,6.9429098,5.0054213,5.9369972,8.9142853Z"/>
        <path class="cls-2" d="M119.5899353,52.33194l-5.2640901,22.3236586c-.9071786,3.8471121-4.9897292,6.1859125-9.1372745,5.2345367l-.0014406-.0003305c-4.1808574-.959017-6.8386578-4.8947702-5.9242352-8.7727913l5.2575487-22.2970051c.9813984-3.8041022,4.9960888-6.3237746,9.132519-5.4024604,4.2750235.9622009,6.9428853,5.005528,5.9369727,8.914392Z"/>
      </g>
      <g>
        <path class="cls-2" d="M71.5380964,29.765411l-8.2597855,33.4292307c-.941482,3.8103916-5.0021162,6.1101176-9.1205851,5.1654115l-.0000151-.0000035c-4.2100012-.9657021-6.8698595-4.9466651-5.9075819-8.8417735l8.2179919-33.2647955c.9818823-3.8041035,5.0057361-6.3215616,9.141707-5.4003528,4.2754829.9623063,6.9433692,5.0055267,5.9282687,8.9122832Z"/>
        <path class="cls-2" d="M88.0589574,36.6643196l-7.4458683,30.4881475c-.9328559,3.8197087-4.9990543,6.1292954-9.1248815,5.1829014l-.0082848-.0019004c-4.2033403-.9641742-6.8627549-4.9347887-5.9114497-8.8260355l7.4209924-30.3550446c.9833806-3.8127434,5.0072344-6.3302015,9.1416825-5.4002462,4.2754829.9623063,6.9429098,5.0054213,5.9278093,8.9121778Z"/>
        <path class="cls-2" d="M104.1994427,44.4878571l-6.3965194,26.5843204c-.9218979,3.8314633-4.9951129,6.1535423-9.1302421,5.2050145l-.0086045-.0019737c-4.1940841-.962051-6.8528558-4.9183002-5.9167639-8.8041377l6.3826137-26.4950485c.983405-3.81285,4.9980709-6.3324157,9.132519-5.4024604,4.2754829.9623063,6.9429098,5.0054213,5.9369972,8.9142853Z"/>
        <path class="cls-2" d="M120.2316897,52.654666l-5.2640901,22.3236586c-.9071786,3.8471121-4.9897292,6.1859125-9.1372745,5.2345367l-.0014406-.0003305c-4.1808574-.959017-6.8386578-4.8947702-5.9242352-8.7727913l5.2575487-22.2970051c.9813984-3.8041022,4.9960888-6.3237746,9.132519-5.4024604,4.2750235.9622009,6.9428853,5.005528,5.9369727,8.914392Z"/>
      </g>
      <g>
        <path class="cls-6" d="M73.5471348,28.0829846l-8.2597855,33.4292307c-.941482,3.8103916-5.0021162,6.1101176-9.1205851,5.1654115l-.0000151-.0000035c-4.2100012-.9657021-6.8698595-4.9466651-5.9075819-8.8417735l8.2179919-33.2647955c.9818823-3.8041035,5.0057361-6.3215616,9.141707-5.4003528,4.2754829.9623063,6.9433692,5.0055267,5.9282687,8.9122832Z"/>
        <path class="cls-6" d="M90.0679958,34.9818931l-7.4458683,30.4881475c-.9328559,3.8197087-4.9990543,6.1292954-9.1248815,5.1829014l-.0082848-.0019004c-4.2033403-.9641742-6.8627549-4.9347887-5.9114497-8.8260355l7.4209924-30.3550446c.9833806-3.8127434,5.0072344-6.3302015,9.1416825-5.4002462,4.2754829.9623063,6.9429098,5.0054213,5.9278093,8.9121778Z"/>
        <path class="cls-6" d="M106.208481,42.8054306l-6.3965194,26.5843204c-.9218979,3.8314633-4.9951129,6.1535423-9.1302421,5.2050145l-.0086045-.0019737c-4.1940841-.962051-6.8528558-4.9183002-5.9167639-8.8041377l6.3826137-26.4950485c.983405-3.81285,4.9980709-6.3324157,9.132519-5.4024604,4.2754829.9623063,6.9429098,5.0054213,5.9369972,8.9142853Z"/>
        <path class="cls-6" d="M122.240728,50.9722395l-5.2640901,22.3236586c-.9071786,3.8471121-4.9897292,6.1859125-9.1372745,5.2345367l-.0014406-.0003305c-4.1808574-.959017-6.8386578-4.8947702-5.9242352-8.7727913l5.2575487-22.2970051c.9813984-3.8041022,4.9960888-6.3237746,9.132519-5.4024604,4.2750235.9622009,6.9428853,5.005528,5.9369727,8.914392Z"/>
      </g>
      <path class="cls-3" d="M73.3854723,86.6636876l-.7301076,29.8183077-8.1869997-.2228237-.0061794.0479353c-5.6857991-.1453591-10.9905993-1.7223504-15.5898808-4.3700871,0,0,.0066624-.010986-.0044809-.0173817-1.1486922-.6483506-2.2608951-1.370874-3.308535-2.1656522-3.15985-2.3798568-5.8972017-5.3130645-8.0268815-8.6530618-.4313515-.6665581-.827543-1.3422934-1.2112302-2.039676-1.1328321-2.0968474-2.0518108-4.332241-2.7082787-6.6630008-.064404-.1779213-.1136395-.3689084-.1517316-.5534998-.798022-2.9517624-1.1730996-6.0587867-1.0944629-9.2736207l.2060567-8.3958515.0481004-1.7588031c.2327496-8.5105537,6.6520381-15.5725333,15.1018542-16.6138329l1.6810709-.2071641-.1592275,5.8836726c-.0221447.5612504.4206228,1.0212988.979684,1.0345134l.195739.0051502c6.4860822.1612671,12.2909958,2.9240948,16.4395378,7.2713515,4.1833644,4.3753534,6.6933994,10.3395075,6.5259529,16.8735249Z"/>
      <path class="cls-3" d="M85.1284702,53.0525712l1.0019228,5.6122527c.816621,4.5672502-2.3874322,8.911856-7.0542028,9.5221957l-7.5565899,1.0036835-4.6600809.5994597-34.2867587,4.3851124.248658-9.0922494c.1174422-4.2943079,3.3565266-7.8576853,7.6201871-8.3831107l8.9621803-1.10444,4.1648271-.5089727.0067214.0260726,16.4117762-2.1753061,12.6597794-1.6801874c1.1817427-.1564647,2.274838.6357506,2.4815801,1.7954897Z"/>
      <path class="cls-2" d="M46.4530106,72.4000576l26.8779025,11.9467687s.3592626-8.2886711-6.4713937-14.5566635l-20.4065088,2.6098949Z"/>
    </g>
  </g>
  <g>
    <g id="_Radial_Repeat_" data-name="&amp;lt;Radial Repeat&amp;gt;">
      <rect class="cls-5" x="8.621006" y="53.8387085" width="5.7921175" height="13.4742545" rx="2.5931359" ry="2.5931359" transform="translate(-50.0805983 63.3691414) rotate(-81.8314908)"/>
    </g>
    <g id="_Radial_Repeat_-2" data-name="&amp;lt;Radial Repeat&amp;gt;">
      <rect class="cls-5" x="23.6255812" y="20.9626127" width="5.7921175" height="13.4742543" rx="2.5931358" ry="2.5931358" transform="translate(-11.7799636 29.6128874) rotate(-49.1042248)"/>
    </g>
    <g id="_Radial_Repeat_-3" data-name="&amp;lt;Radial Repeat&amp;gt;">
      <rect class="cls-5" x="54.0224141" y="1.4179314" width="5.7921173" height="13.474254" rx="2.5931358" ry="2.5931358" transform="translate(.0099639 16.3793598) rotate(-16.376962)"/>
    </g>
    <g id="_Radial_Repeat_-4" data-name="&amp;lt;Radial Repeat&amp;gt;">
      <rect class="cls-5" x="90.160793" y="1.4094028" width="5.7921173" height="13.474254" rx="2.5931363" ry="2.5931363" transform="translate(6.0566926 -25.8669368) rotate(16.3503219)"/>
    </g>
    <g id="_Radial_Repeat_-5" data-name="&amp;lt;Radial Repeat&amp;gt;">
      <rect class="cls-5" x="120.5670253" y="20.9403169" width="5.7921174" height="13.4742541" rx="2.5931364" ry="2.5931364" transform="translate(63.5032778 -83.7406679) rotate(49.0775927)"/>
    </g>
    <g id="_Radial_Repeat_-6" data-name="&amp;lt;Radial Repeat&amp;gt;">
      <rect class="cls-5" x="135.5870087" y="53.8098318" width="5.7921177" height="13.4742547" rx="2.5931359" ry="2.5931359" transform="translate(178.6717159 -85.152618) rotate(81.8048761)"/>
    </g>
  </g>
</svg>