<?xml version="1.0" encoding="UTF-8"?>
<svg id="Layer_1" data-name="Layer 1" xmlns="http://www.w3.org/2000/svg" viewBox="0 0 150 150">
  <defs>
    <style>
      .cls-1 {
        fill: #2c2b32;
      }

      .cls-2 {
        fill: #df9e81;
      }

      .cls-3 {
        fill: #b5c082;
      }

      .cls-4 {
        fill: #f6e6c4;
      }

      .cls-5 {
        fill: #425636;
      }

      .cls-6 {
        fill: #b35d38;
      }
    </style>
  </defs>
  <path class="cls-4" d="M63.3900735,13.4907914h73.7173711c1.10383,0,2,.89617,2,2v68.5208989c0,28.9741691-23.5233492,52.4975182-52.4975182,52.4975182H12.8925553c-1.10383,0-2-.89617-2-2v-68.5208989c0-28.9741691,23.5233492-52.4975182,52.4975182-52.4975182Z"/>
  <g>
    <path class="cls-2" d="M105.9086224,75.3162971c-1.2297664,4.7850558-3.568859,8.9927475-6.6702837,12.4111769l-13.0776097-14.1387925c.5779648-.9053372,1.0235373-1.9155632,1.3053599-3.0121427,1.4368559-5.5908468-1.9332194-11.2923972-7.5240661-12.7292531l-22.1058098-5.6812257c.0213449-.0830535.0344003-.1683454.0557191-.2512975,4.3015695.0781748,8.2545233-2.7937399,9.3711281-7.1384805.6533248-2.5421053.2144169-5.1080552-1.0179194-7.204847-.0328523-.0437939-.0554288-.0939197-.0863468-.1460812l-.0083155-.0021371c-1.2432286-2.0199168-3.2425523-3.5788103-5.7264491-4.2171754l24.2824393,6.2406227c7.8753747,2.0239829,14.1916208,7.0480779,18.0308149,13.5432089,2.1479716,3.6339285,3.5149017,7.7224691,3.9547966,12.0066992h0l-.0021371.0083155c.3480364,3.3662583.1111109,6.8389332-.7813206,10.3114096Z"/>
    <path class="cls-1" d="M74.7357793,78.1017111l-46.5795053-11.9710015c-5.5908468-1.4368559-8.960935-7.1383556-7.5240792-12.7292024.7194965-2.7995811,2.4982364-5.0347236,4.8059621-6.3987926,2.3079545-1.3641183,5.1235578-1.8448091,7.9232403-1.1252866l15.5846426,4.0052761-12.3839414-20.9391638,2.2034548-1.3024357-.7145234-.1836336c-15.759065-4.0501029-31.8193781,5.4431279-35.8694811,21.2021929-4.0501029,15.759065,5.4428991,31.8194274,21.201964,35.8695304l46.6543447,11.9902354c7.3352737,1.8851762,14.7420143.8396855,20.9712583-2.4125011l-9.7297935-16.4488886c-2.0088096.8210089-4.2839614,1.024387-6.5435429.4436712Z"/>
    <path class="cls-6" d="M50.4876962,71.8685943l-22.0394887-5.6641811c-5.5908468-1.4368559-9.2598569-7.2506379-7.80637-12.8372104.7235508-2.7808638,2.5003435-5.0075879,4.7976426-6.3655799,2.3077256-1.364069,5.1235578-1.8448091,7.9232403-1.1252866l22.3301252,5.7388751c.0997858.0256451.2076844.0533752.3096073.0707048.6354139.145681,1.2632069.2183775,1.8894793.2288463,4.3015695.0781748,8.2545233-2.7937399,9.3711281-7.1384805.6533248-2.5421053.2144169-5.1080552-1.0179194-7.204847-.0328523-.0437939-.0554288-.0939197-.0863468-.1460812l-.0083155-.0021371c-1.2432286-2.0199168-3.2425523-3.5788103-5.7264491-4.2171754l-21.8068579-5.6043946C22.6171601,23.4896201,5.8524858,33.1382561,2.0479295,49.2172877c-3.693092,15.5763352,5.7605531,31.3077772,21.3368802,35.3109162l22.3717026,5.7495606c5.0842105,1.3066496,10.2636042-1.754871,11.5702277-6.8389801.6533118-2.5420546.2144039-5.1080045-1.0179324-7.2047963-1.2425861-2.0905614-3.2790062-3.7120689-5.8211114-4.3653937Z"/>
    <path class="cls-5" d="M148.6490596,91.5080286c-.0501486-.5973654-.1252307-1.2011928-.2107784-1.7987911-.1334268-.8933582-.3024686-1.7869508-.5171461-2.6745964-.1418258-.5855758-.3000928-1.1753229-.4877833-1.7549025-.0854283-.2876266-.1791722-.5773904-.2812184-.8693419-.3002023-.865302-.637725-1.72252-1.0234261-2.5655798-.1229514-.2795947-.2563685-.5529604-.3959509-.8368293-.2668211-.546782-.5585886-1.0999752-.8712482-1.6408624-1.0901641-1.8919858-2.3993575-3.6897244-3.9444312-5.3621415l-32.7118166-35.364824c-3.9846609-4.3096328-8.9649763-7.1571237-14.2651867-8.5192856-.5315827-.1366175-1.0759579-.2587933-1.6139519-.3704644-.1185539-.0216038-.236905-.0431555-.3552561-.0647072-.2285895-.0410184-.457153-.0821382-.6878796-.1148411-.4654685-.0842753-.9373743-.1435027-1.4031017-.1922776-.2140696-.0285301-.4303023-.0486434-.6381935-.0667209-.8212164-.078083-1.6342981-.1188326-2.4580652-.1180049-.2475905-.0015781-.4951288-.0033589-.7448564.0033785-.9154704.0127188-1.8354217.0773662-2.755606.1774126-.1810666.0155187-.3642442.0392514-.5495589.0712997-.6393278.0748231-1.2682332.178919-1.9035237.3078599-.2708395.0543919-.541653.1086823-.8063402.1736281-.8457846.189977-1.6836894.4174379-2.5133087.6824871-.2335102.0816069-.4649094.1549997-.6901302.2388451-.2710464.0896895-.5276249.1920701-.7903818.283998-.7863145.3026647-1.5540938.6366871-2.3221059,1.0061086-.2546483.1293627-.5071855.2505113-.7535183.3820112-.2567854.1376782-.5031181.269178-.751588.4089933s-.4969398.2796306-.7392312.4298985c-.4907874.2901846-.9693948.6011208-1.4520736.9287401-.4722262.3214409-.940385.6615485-1.4045286,1.0205255l16.0995943,4.1376195c7.8753747,2.0239829,14.1916208,7.0480779,18.0308149,13.5432089,2.1479716,3.6339285,3.5149017,7.7224691,3.9547966,12.0066992l20.2434354,21.887515c3.922631,4.2405567,3.6670345,10.8523828-.5734845,14.7750776-.5108576.4709154-1.0502802.8813553-1.618268,1.2313196-.9484766.5887133-1.9581077,1.0023069-3.0060838,1.2555077-.4169167.1053889-.8438633.18166-1.2727142.2308476-1.2760999.1413843-2.5736771.0559011-3.8197832-.26435-1.8774747-.4825138-3.6453894-1.4948075-5.0583037-3.0269369l-10.9211313-11.8133595c-.0268507-.0334948-.061827-.0690239-.0969932-.1046558l-1.330415-1.4400632-13.0776097-14.1387925-7.229803-7.8093802c-.1611602-.1654164-.301631-.343191-.4502145-.5230506-.1423921-.1694577-.280523-.3554957-.4103254-.5394473-.1506905-.2069953-.2905359-.420014-.4203213-.639366-.0946363-.1483197-.1852142-.3132717-.2693979-.4677698-.1212801-.2171121-.2299575-.4487689-.3388508-.680427-.0654286-.1584887-.1393626-.3192173-.1943386-.4838843-.0982379-.2377844-.1800345-.4713975-.2511888-.7110861-.0570961-.191752-.1139764-.3835026-.1522914-.5793467-.0466475-.1625807-.0830714-.3312905-.1111797-.4978631-.1330576-.6541861-.1908661-1.3243838-.1865977-1.9963572-.0014645-.0977802-.0005891-.2038238.008399-.3077824-.0012316-.1331793.0037151-.255906.0190884-.3847096.0073167-.1664412.022949-.3307453.0468706-.492811.0115609-.147621.0290973-.2848416.0570603-.4281392.00237-.0437145.006877-.0957445.0175364-.1372206l-18.4589617-4.7439804-.0021371.0083155c-.1114643.5026964-.2148419,1.0075791-.3013337,1.5165854-.1645394.9851562-.2855149,1.9724274-.348308,2.9747596-.02269.2952449-.043256.582225-.047191.8734793-.0167145.3056453-.0227865.6052151-.0207329.9068192-.0060721.2995698-.0038287.6012767.0065404.9050178.0165402.9695868.0872476,1.9353651.2097822,2.9055984.0297797.2290553.0572325.4663232.0953277.6975156.0633979.4768265.1455638.9496117.2443607,1.4266711.0523692.2791304.1149882.5520303.1775941.8249808.0604648.3166158.1394819.6291889.2268144.9438991.0590003.2188356.1177978.4376191.1789222.6481899.2215285.7920025.4827302,1.5676068.7791281,2.343392.0922623.227384.1759932.4526294.2680527.6799612.0860709.2169821.174089.4255459.2706124.6363495.0880182.2085638.1864759.4109998.2766181.6112988.1252913.2713314.2587084.544697.3942495.8097979,1.2134848,2.4107527,2.7775651,4.6990719,4.7048649,6.7796627l21.6563758,23.419543c.0266479.0334427.0556486.0585713.0846364.0837507l10.9707913,11.8615811c11.0471253,11.943144,29.6885726,12.6691155,41.6339174,1.6136371.5358341-.4999553,1.0571613-1.0124496,1.5475664-1.5417556.743619-.7919001,1.4335065-1.6153388,2.0694599-2.470368.2141791-.2814908.4198399-.5651708.6195252-.8592513.4051302-.5777619.7793514-1.1723863,1.1371314-1.771182,1.415841-2.4080824,2.4728372-4.9703875,3.1539052-7.620442.8283839-3.2232653,1.1021429-6.562476.8263731-9.865838Z"/>
    <path class="cls-3" d="M122.1155972,67.1278303l-.0000134.0000134c-3.8136763,3.8136763-10.0329622,3.6932925-13.6961979-.2651109l-1.7296308-1.8689969c-.4401855-4.2800293-1.8000488-8.3699951-3.9499512-12-3.8400879-6.5-10.1601562-11.5200195-18.0300293-13.5500488l-16.1000977-4.1300049c.4599609-.3599854.9299316-.6999512,1.4001465-1.0300293.4799805-.3199463.9599609-.6298828,1.4499512-.9199219.25-.1500244.4899902-.2900391.7399902-.4299316.25-.1401367.5-.2800293.75-.4101562.25-.1298828.5-.2600098.7600098-.3798828.7697754-.3701172,1.5300293-.7099609,2.3198242-1.0100098.2600098-.0900879.5200195-.1999512.7900391-.2800293.2299805-.0900879.4599609-.1600342.6901855-.2399902.829834-.2700195,1.6699219-.5,2.5097656-.6899414.2700195-.0600586.5400391-.1201172.8100586-.170166.6401367-.1298828,1.2600098-.2299805,1.8999023-.3099365.1901855-.0299072.3701172-.0499268.5500488-.0699463.920166-.1000977,1.8400879-.1600342,2.7600098-.1800537h.75662c.8161407,0,1.631546.0425739,2.4440023.1200358.209832.020006.4296469.0400119.6394655.0600179.4699707.0500488.9399414.1099854,1.3999023.1999512.2302246.0300293.4602051.0700684.6901855.1101074.119873.0198975.2399902.0499268.3598633.0698242.5300293.1101074,1.0800781.2301025,1.6101074.3701172,5.3000488,1.3599854,10.2800293,4.2099609,14.2700195,8.5200195l14.1621558,15.3094203c3.466809,3.7476523,3.3536296,9.5646869-.2563332,13.1746496Z"/>
    <path class="cls-3" d="M100.6657469,89.2721931c-.0268507-.0334948-.061827-.0690239-.0969932-.1046558l-1.330415-1.4400632-13.0776097-14.1387925-7.229803-7.8093802c-.1611602-.1654164-.301631-.343191-.4502145-.5230506-.1423921-.1694577-.280523-.3554957-.4103254-.5394473-.1506905-.2069953-.2905359-.420014-.4203213-.639366-.0946363-.1483197-.1852142-.3132717-.2693979-.4677698-.1212801-.2171121-.2299575-.4487689-.3388508-.680427-.0654286-.1584887-.1393626-.3192173-.1943386-.4838843-.0982379-.2377844-.1800345-.4713975-.2511888-.7110861-.0570961-.191752-.1139764-.3835026-.1522914-.5793467-.0466475-.1625807-.0830714-.3312905-.1111797-.4978631-.1330576-.6541861-.1908661-1.3243838-.1865977-1.9963572-.0014645-.0977802-.0005891-.2038238.008399-.3077824-.0012316-.1331793.0037151-.255906.0190884-.3847096.0073167-.1664412.022949-.3307453.0468706-.492811.0115609-.147621.0290973-.2848416.0570603-.4281392.00237-.0437145.006877-.0957445.0175364-.1372206l-18.4589617-4.7439804-.0021371.0083155c-.1114643.5026964-.2148419,1.0075791-.3013337,1.5165854-.1645394.9851562-.2855149,1.9724274-.348308,2.9747596-.02269.2952449-.043256.582225-.047191.8734793-.0167145.3056453-.0227865.6052151-.0207329.9068192-.0060721.2995698-.0038287.6012767.0065404.9050178.0165402.9695868.0872476,1.9353651.2097822,2.9055984.0297797.2290553.0572325.4663232.0953277.6975156.0633979.4768265.1455638.9496117.2443607,1.4266711.0523692.2791304.1149882.5520303.1775941.8249808.0604648.3166158.1394819.6291889.2268144.9438991.0590003.2188356.1177978.4376191.1789222.6481899.2215285.7920025.4827302,1.5676068.7791281,2.343392.0922623.227384.1759932.4526294.2680527.6799612.0860709.2169821.174089.4255459.2706124.6363495.0880182.2085638.1864759.4109998.2766181.6112988.1252913.2713314.2587084.544697.3942495.8097979,1.2134848,2.4107527,2.7775651,4.6990719,4.7048649,6.7796627l21.6563758,23.419543c.0266479.0334427.0556486.0585713.0846364.0837507,3.5039771,3.699023,9.3231348,3.9724126,13.162582.6108473,1.4982325-1.3153032,2.4848058-2.9835595,2.9459616-4.7779301.7643363-2.9740542.0703751-6.2697048-2.1331866-8.7223716Z"/>
  </g>
</svg>