<?xml version="1.0" encoding="UTF-8"?>
<svg id="Layer_1" data-name="Layer 1" xmlns="http://www.w3.org/2000/svg" viewBox="0 0 150 150">
  <defs>
    <style>
      .cls-1 {
        fill: #2c2b32;
      }

      .cls-2 {
        fill: #df9e81;
      }

      .cls-3 {
        fill: #b5c082;
      }

      .cls-4 {
        fill: #f6e6c4;
      }

      .cls-5 {
        fill: #425636;
      }

      .cls-6 {
        fill: #b35d38;
      }
    </style>
  </defs>
  <path class="cls-2" d="M31.0293925,28.801155h29.8329081v49.1965349H8.412259v-26.5794014c0-12.4827358,10.1343977-22.6171335,22.6171335-22.6171335Z"/>
  <path class="cls-5" d="M5.8516361,75.0388216h112.1891289v64.0429479H5.8516361c-1.1964414,0-2.1678-.9713586-2.1678-2.1678v-59.7073479c0-1.1964414.9713586-2.1678,2.1678-2.1678Z"/>
  <path class="cls-4" d="M48.3124768,21.9989995h92.3156664c1.1964414,0,2.1678.9713586,2.1678,2.1678v76.7307402H48.3124768V21.9989995h0Z"/>
  <path class="cls-6" d="M84.4319129,35.0703315V15.2291475c0-1.2316767-.9705483-2.230148-2.1677802-2.230148h-33.6005938c-1.197232,0-2.1677802.9984713-2.1677802,2.230148v19.841184c0,1.2316767-.9705483,2.230148-2.1677802,2.230148h-6.5033407c-1.197232,0-2.1677802.9984713-2.1677802,2.230148v99.5511421h57.4461766c1.197232,0,2.1677802-1.0228242,2.1677802-2.2845419V39.5306275c0-1.2316767-.9705483-2.230148-2.1677802-2.230148h-6.5033407c-1.197232,0-2.1677802-.9984713-2.1677802-2.230148Z"/>
  <g>
    <path class="cls-3" d="M145.0323298,78.3247682l-23.7578025-21.3533354c-1.2309233-1.1063446-3.1906794-.232759-3.1906794,1.422285v13.6721359c0,1.6550226-1.9597288,2.5285992-3.1906391,1.4222721l-18.3766333-16.5166929c-1.2309034-1.1063209-3.1906211-.2327492-3.1906211,1.422264v13.6721568c0,1.6550226-1.9597288,2.5285992-3.1906391,1.4222721l-18.3766333-16.5166929c-1.2309034-1.1063209-3.1906211-.2327492-3.1906211,1.422264v80.6880727h75.8357845c1.0561443,0,1.9123184-.8561741,1.9123184-1.9123184v-55.964597c0-1.0986833-.4666987-2.1456508-1.2838341-2.8800859Z"/>
    <path class="cls-4" d="M52.2319729,139.0817695H17.81706c-1.197232,0-2.1677802-.9705483-2.1677802-2.1677802v-62.7132919c0-.647401.3133722-1.2547569.8409819-1.6299316l16.2913466-11.5845137c.6939048-.4934245,1.6241314-.4934245,2.3180362,0l16.2913466,11.5845137c.5276097.3751747.8409819.9825306.8409819,1.6299316v64.8810722Z"/>
    <g>
      <rect class="cls-1" x="24.6559585" y="83.684038" width="18.5693357" height="18.5693357" rx="2" ry="2"/>
      <rect class="cls-1" x="24.6559585" y="113.3920443" width="18.5693357" height="18.5693357" rx="2" ry="2"/>
    </g>
    <g>
      <g>
        <rect class="cls-1" x="113.0114477" y="83.684038" width="18.5693357" height="18.5693357" rx="2" ry="2" transform="translate(215.2648214 -29.3274098) rotate(90)"/>
        <rect class="cls-1" x="83.3034414" y="83.684038" width="18.5693357" height="18.5693357" rx="2" ry="2" transform="translate(185.5568151 .3805965) rotate(90)"/>
      </g>
      <g>
        <rect class="cls-1" x="113.0114477" y="113.3920443" width="18.5693357" height="18.5693357" rx="2" ry="2" transform="translate(244.9728277 .3805965) rotate(90)"/>
        <rect class="cls-1" x="83.3034414" y="113.3920443" width="18.5693357" height="18.5693357" rx="2" ry="2" transform="translate(215.2648214 30.0886029) rotate(90)"/>
      </g>
    </g>
  </g>
  <circle class="cls-2" cx="114.288421" cy="33.9407376" r="15.2945586"/>
  <circle class="cls-2" cx="122.3807233" cy="20.7767736" r="9.858543"/>
  <circle class="cls-2" cx="108.7711712" cy="49.2352964" r="7.8324026"/>
</svg>