<?xml version="1.0" encoding="UTF-8"?>
<svg id="Layer_1" data-name="Layer 1" xmlns="http://www.w3.org/2000/svg" viewBox="0 0 150 150">
  <defs>
    <style>
      .cls-1 {
        fill: #df9e81;
      }

      .cls-2 {
        fill: #b5c082;
      }

      .cls-3 {
        fill: #f6e6c4;
      }

      .cls-4 {
        fill: #425636;
      }

      .cls-5 {
        fill: #b35d38;
      }
    </style>
  </defs>
  <g>
    <path class="cls-3" d="M11.283182,4.5313893h96.2334017c1.10383,0,2,.89617,2,2v104.0174803H11.283182c-1.10383,0-2-.89617-2-2V6.5313893c0-1.10383.89617-2,2-2Z"/>
    <path class="cls-1" d="M138.348369,145.4686107H33.1531829c-1.3080582,0-2.3684489-.9946011-2.3684489-2.2215038v-18.015139h43.1901082l.4432595-75.3038058h64.1054493c1.2113079,0,2.193267.9819591,2.193267,2.193267v91.1256778c0,1.2269027-1.0603907,2.2215038-2.3684489,2.2215038Z"/>
  </g>
  <g>
    <g>
      <rect class="cls-4" x="36.2028462" y="53.7973096" width="11.7416961" height="53.6916594"/>
      <rect class="cls-2" x="32.4763037" y="48.1115429" width="19.1947811" height="7.6779124"/>
      <rect class="cls-2" x="32.4763037" y="102.8709571" width="19.1947811" height="7.6779124"/>
    </g>
    <g>
      <rect class="cls-4" x="68.3256258" y="53.7973096" width="11.7416961" height="53.6916594"/>
      <rect class="cls-2" x="64.5990834" y="48.1115429" width="19.1947811" height="7.6779124"/>
      <rect class="cls-2" x="64.5990834" y="102.8709571" width="19.1947811" height="7.6779124"/>
    </g>
    <g>
      <rect class="cls-4" x="100.4484055" y="53.7973096" width="11.7416961" height="53.6916594"/>
      <rect class="cls-2" x="96.721863" y="48.1115429" width="19.1947811" height="7.6779124"/>
      <rect class="cls-2" x="96.721863" y="102.8709571" width="19.1947811" height="7.6779124"/>
    </g>
  </g>
  <polygon class="cls-5" points="129.0679826 44.1752358 74.1964739 17.6628456 19.3249652 44.1752358 19.3249652 49.9281621 129.0679826 49.9281621 129.0679826 44.1752358"/>
  <rect class="cls-4" x="27.9452678" y="110.5488695" width="92.5024122" height="8.9536007"/>
  <rect class="cls-5" x="20.5159601" y="119.5024702" width="107.3610276" height="8.9536007"/>
</svg>