<?xml version="1.0" encoding="UTF-8"?>
<svg id="Layer_1" data-name="Layer 1" xmlns="http://www.w3.org/2000/svg" viewBox="0 0 150 150">
  <defs>
    <style>
      .cls-1 {
        fill: #df9e81;
      }

      .cls-2 {
        fill: #b5c082;
      }

      .cls-3 {
        fill: #f6e6c4;
      }

      .cls-4 {
        fill: #425636;
      }

      .cls-5 {
        fill: #b35d38;
      }
    </style>
  </defs>
  <g>
    <rect class="cls-1" x="4.0879318" y="4.0547807" width="111.8904387" height="111.8904387"/>
    <path class="cls-2" d="M71.934802,34.0547807h73.9772662v111.8904387H34.0216295v-73.9772662c0-20.9248495,16.988323-37.9131725,37.9131725-37.9131725Z"/>
  </g>
  <g>
    <path class="cls-3" d="M23.8661941,70.6412867l8.8071615-28.0823373c.0176873-.0572016.035751-.1141209.0536892-.1712284l.0444065-.1414986.0010035.0072129c5.0441819-15.8653084,20.0502725-27.2905496,37.6720446-26.9148792,20.002837.4264311,37.2748694,17.6212859,37.7861019,37.6221352.3468499,13.5697418-6.3077265,25.6014344-16.6060644,32.7578254-1.5016692,1.043521-2.397383,2.7548863-2.3973834,4.5835324l-.000002,10.0124313v14.6031177c0,.5675396-.4600817,1.0276213-1.0276213,1.0276213h-36.898907c-.5675396,0-1.0276213-.4600817-1.0276213-1.0276213v-13.5754964c0-.5675396-.4600817-1.0276213-1.0276213-1.0276213h-8.2491952c-3.8707974,0-7.0086987-3.1379013-7.0086987-7.0086987v-20.3017623c0-.5675396-.4600817-1.0276213-1.0276213-1.0276213h-8.1131574c-.6937011,0-1.1881023-.6731987-.9805137-1.3351112Z"/>
    <path class="cls-5" d="M108.226613,52.9604985c.3498535,13.5699463-6.3000488,25.5999756-16.6000977,32.7600098-1.5,1.0400391-2.3999023,2.75-2.3999023,4.5799561v24.6201172c0,.5599365-.4599609,1.0200195-1.0300293,1.0200195h-16.9699707v-25.6401367c0-7.7199707,3.7900391-14.9599609,10.130127-19.3598633,5.7397461-3.9899902,9.0598145-10.5400391,8.8798828-17.5200195-.2700195-10.4799805-9.6999512-19.8601074-20.1799316-20.0900879h-.4602051c-8.5862288,0-16.1601228,5.2261289-19.2306031,13.1334382-.2941864.7576088-1.0352195,1.2465667-1.8479413,1.2465667h-17.4612505l1.619873-5.1500244c.0100098-.0599365.0300293-.119873.0500488-.1699219l.0400391-.1400146h.0100098c5.0400391-15.8599854,20.0498047-27.2900391,37.6699219-26.9100342,20,.4200439,37.2700195,17.6199951,37.7800293,37.6199951Z"/>
  </g>
  <circle class="cls-4" cx="80.3079333" cy="130.770087" r="9.0805879"/>
</svg>