<?xml version="1.0" encoding="UTF-8"?>
<svg id="Layer_1" data-name="Layer 1" xmlns="http://www.w3.org/2000/svg" viewBox="0 0 150 150">
  <defs>
    <style>
      .cls-1 {
        fill: #2c2b32;
      }

      .cls-2 {
        fill: #df9e81;
      }

      .cls-3 {
        fill: #b5c082;
      }

      .cls-4 {
        fill: #f6e6c4;
      }

      .cls-5 {
        fill: #425636;
      }

      .cls-6 {
        fill: #b35d38;
      }
    </style>
  </defs>
  <g>
    <rect class="cls-4" x="13.2117862" y="8.8453221" width="87.7137774" height="105.4059068"/>
    <rect class="cls-4" x="56.3099152" y="90.0122085" width="79.6170298" height="51.1424694"/>
  </g>
  <g>
    <circle class="cls-6" cx="84.7365957" cy="47.5342138" r="16.1889679"/>
    <circle class="cls-2" cx="109.1806422" cy="71.5160364" r="26.7463028"/>
    <circle class="cls-2" cx="51.3652355" cy="63.7231817" r="28.6900794"/>
    <g>
      <path class="cls-3" d="M146.6935908,84.6613483c0-14.1994025-29.9004517-25.7102888-66.7844213-25.7102888S13.1247482,70.4619458,13.1247482,84.6613483c0,4.4508987,2.9389607,8.6371776,8.109934,12.2876342,4.3126345,3.044511,3.4021599,9.6969593-1.5906349,11.4115624-10.0362799,3.4466142-16.3376381,8.4157995-16.3376381,13.9428333,0,10.4112522,22.349448,18.8512996,49.9189308,18.8512996s49.9184092-8.4400474,49.9184092-18.8512996c0-2.1717616-.9746377-4.2569934-2.7664779-6.1976804-2.3930791-2.5918703-.9764367-6.8114172,2.5166582-7.3042736,25.5587772-3.6062026,43.7996612-13.0508367,43.7996612-24.140076Z"/>
      <path class="cls-1" d="M87.9296992,70.8226679h2.1881922c8.8528227,0,16.0401916,7.1873688,16.0401916,16.0401916v1.1604135c0,.5366046-.4356548.9722594-.9722594.9722594h-32.3240579c-.5366042,0-.9722587-.4356545-.9722587-.9722587v-1.1604135c0-8.8528231,7.1873692-16.0401923,16.0401923-16.0401923Z"/>
      <path class="cls-1" d="M38.8550351,114.2512289h2.3895922c5.5857158,0,10.1206084,4.5348926,10.1206084,10.1206084v.7566409c0,.5366046-.4356548.9722594-.9722594.9722594h-20.68629c-.5366046,0-.9722594-.4356548-.9722594-.9722594v-.756641c0-5.5857157,4.5348925-10.1206082,10.1206082-10.1206082Z"/>
      <path class="cls-5" d="M64.7922912,69.361622h2.7840369c11.2634491,0,20.4079407,9.1444916,20.4079407,20.4079407v1.8859033c0,1.10383-.89617,2-2,2h-39.5999184c-1.10383,0-2-.8961699-2-2v-1.8859032c0-11.2634491,9.1444916-20.4079408,20.4079408-20.4079408Z"/>
    </g>
  </g>
</svg>