<?xml version="1.0" encoding="UTF-8"?>
<svg id="Layer_1" data-name="Layer 1" xmlns="http://www.w3.org/2000/svg" viewBox="0 0 150 150">
  <defs>
    <style>
      .cls-1 {
        fill: #2c2b32;
      }

      .cls-2 {
        fill: #df9e81;
      }

      .cls-3 {
        fill: #b5c082;
      }

      .cls-4 {
        fill: #f6e6c4;
      }

      .cls-5 {
        fill: #425636;
      }

      .cls-6 {
        fill: #b35d38;
      }
    </style>
  </defs>
  <circle class="cls-3" cx="75" cy="75" r="67.5"/>
  <g>
    <path class="cls-6" d="M44.1002891,21.5041992h64.3814872c1.10383,0,2,.89617,2,2v100.452711c0,1.356996-1.1017086,2.4587045-2.4587045,2.4587045h-62.2803709c-6.1474742,0-11.1384433-4.9909691-11.1384433-11.1384433V31.0002308c0-5.2410025,4.2550291-9.4960316,9.4960316-9.4960316Z"/>
    <path class="cls-5" d="M44.1002891,21.5041992h8.3616726v102.9114155c0,1.10383-.89617,2-2,2h-4.9103397c-6.0420149,0-10.9473644-4.9053495-10.9473644-10.9473644V31.0002308c0-5.2410025,4.2550291-9.4960316,9.4960316-9.4960316Z"/>
    <path class="cls-4" d="M110.4824475,105.2118845v18.9246451c0,1.2555217-1.0272957,2.2828174-2.2828174,2.2828174h-62.7546966c-5.9124886,0-10.7178442-4.7254487-10.8433825-10.6037312.1255382-5.8781432,4.9308939-10.6037312,10.8433825-10.6037312h65.037514Z"/>
    <rect class="cls-2" x="62.8719615" y="50.7688951" width="37.1998151" height="18.7991444" rx="2" ry="2"/>
    <path class="cls-5" d="M50.859337,115.815578v16.7403508c0,1.7739356,2.3356303,2.4218104,3.2494526.9013578l2.8707315-4.776433c.6798587-1.131175,2.3195684-1.131175,2.9994272,0l2.8707315,4.776433c.9138223,1.5204526,3.2494526.8725778,3.2494526-.9013578v-16.7403508s-15.2397955.3042303-15.2397955,0Z"/>
  </g>
  <path class="cls-1" d="M110.4824475,114.674207v2.2828174h-63.0057731c-.6277608,0-1.1414087-.5135782-1.1414087-1.1414087s.5136478-1.1414087,1.1414087-1.1414087h63.0057731Z"/>
</svg>