<?xml version="1.0" encoding="UTF-8"?>
<svg id="Layer_1" data-name="Layer 1" xmlns="http://www.w3.org/2000/svg" viewBox="0 0 150 150">
  <defs>
    <style>
      .cls-1 {
        fill: #2c2b32;
      }

      .cls-2 {
        fill: #df9e81;
      }

      .cls-3 {
        fill: #b5c082;
      }

      .cls-4 {
        fill: #f6e6c4;
      }

      .cls-5 {
        fill: #b35d38;
      }
    </style>
  </defs>
  <path class="cls-3" d="M142.2299805,135h-67.2299805v-60h48.5599976c.8599854,0,1.6199951.5499878,1.9000244,1.3699951l18.6599731,56c.4299927,1.289978-.5299683,2.6300049-1.8900146,2.6300049Z"/>
  <path class="cls-1" d="M75,75v60H7.7700195c-1.3600464,0-2.3200073-1.3400269-1.8900146-2.6300049l18.6599731-56c.2800293-.8200073,1.0400391-1.3699951,1.9000244-1.3699951h48.5599976Z"/>
  <path class="cls-5" d="M115,55c0,35-40,80-40,80,0,0-40-45-40-80,0-22.09139,17.90861-40,40-40s40,17.90861,40,40Z"/>
  <path class="cls-4" d="M75,35v40c-11.0499878,0-20-8.9500122-20-20s8.9500122-20,20-20Z"/>
  <path class="cls-2" d="M95,55c0,11.0499878-8.9500122,20-20,20v-40c11.0499878,0,20,8.9500122,20,20Z"/>
</svg>