<?xml version="1.0" encoding="UTF-8"?>
<svg id="Layer_1" data-name="Layer 1" xmlns="http://www.w3.org/2000/svg" viewBox="0 0 150 150">
  <defs>
    <style>
      .cls-1 {
        fill: #2c2b32;
      }

      .cls-2 {
        fill: #df9e81;
      }

      .cls-3 {
        fill: #b5c082;
      }

      .cls-4 {
        fill: #f6e6c4;
      }

      .cls-5 {
        fill: #425636;
      }

      .cls-6 {
        fill: #b35d38;
      }
    </style>
  </defs>
  <g>
    <rect class="cls-4" x="12.5843288" y="6.0856233" width="103.7344659" height="105.2845814"/>
    <rect class="cls-2" x="60.0331511" y="91.1070323" width="77.3825201" height="52.8073444"/>
    <g>
      <circle class="cls-5" cx="61.7994936" cy="42.2645471" r="28.4707606"/>
      <circle class="cls-3" cx="61.7994867" cy="42.2645471" r="20.619589"/>
      <circle class="cls-1" cx="61.7994867" cy="42.2645471" r="13.2352231"/>
      <path class="cls-6" d="M109.1923078,74.9711523c-3.7836011.1136303-6.7004291,3.4145765-6.7004255,7.1998836l.0000075,7.9689562c.0000003.5340815-.4329583.9670403-.9670398.9670403h-.0000019c-.5340813,0-.9670398-.4329585-.9670398-.9670398v-11.1014416c0-3.8181763-3.0952148-6.9134521-6.9135742-6.9134521h0c-3.8181152,0-6.9135742,3.0952759-6.9135742,6.9134521v11.1014416c0,.5340813-.4329585.9670398-.9670398.9670398h-.0153829c-.5340815,0-.96704-.4329587-.9670398-.9670401l.0000087-13.5861908c.0000024-3.7855176-2.9169674-7.0866816-6.7007788-7.2003247-3.9152418-.1175905-7.1261346,3.0213625-7.1261346,6.9102329v13.876283c0,.5340813-.4329585.9670398-.9670398.9670398h-.1408715c-.5340814,0-.9670399-.4329585-.9670398-.9670399l.0000105-44.5581902c.0000009-3.7855303-2.9171896-7.0865299-6.701022-7.1998981-3.9152733-.1173063-7.1258929,3.0214818-7.1258929,6.9101868v60.2195512c0,1.3937663-1.7796371,1.9783121-2.6060767.856001l-6.025197-8.1822632c-2.5893549-3.5163635-7.5672921-4.5602395-11.138412-2.0469402-3.677245,2.5879884-4.4594965,7.6459845-1.8352948,11.2096815l13.4926543,18.322908c2.1460508,2.9143185,3.8485098,6.1304933,5.0519336,9.5437846l2.5899719,7.3459813c.2819123.7995926,1.0373481,1.3345507,1.8851822,1.3349823l36.5295693.0185962c12.8784786.0065561,23.3220265-10.4316767,23.3220265-23.310157v-38.7227702c0-3.8889685-3.2112053-7.0278791-7.1264869-6.9102941Z"/>
    </g>
  </g>
  <polygon class="cls-1" points="52.4463606 106.3676431 55.1467061 110.0723946 55.0524373 103.0863411 52.4463606 106.3676431"/>
</svg>