<?xml version="1.0" encoding="UTF-8"?>
<svg id="Layer_1" data-name="Layer 1" xmlns="http://www.w3.org/2000/svg" viewBox="0 0 150 150">
  <defs>
    <style>
      .cls-1 {
        fill: #2c2b32;
      }

      .cls-2 {
        fill: #bec793;
      }

      .cls-3 {
        fill: #df9e81;
      }

      .cls-4 {
        fill: #f6e6c4;
      }

      .cls-5 {
        fill: #425636;
      }

      .cls-6 {
        fill: #b35d38;
      }
    </style>
  </defs>
  <g>
    <path class="cls-2" d="M31.6822745,11.6542293h67.2072426c1.10383,0,2,.89617,2,2v91.06208H6.1979757c-1.10383,0-2-.89617-2-2v-63.5777813c0-15.1689974,12.3153013-27.4842988,27.4842988-27.4842988Z"/>
    <path class="cls-3" d="M105.1106981,30.0154178h38.6913262c1.10383,0,2,.89617,2,2v78.8460541c0,15.1689974-12.3153013,27.4842988-27.4842988,27.4842988H34.720369c-1.10383,0-2-.89617-2-2v-33.9400239c0-39.9533102,32.4370188-72.390329,72.390329-72.390329Z"/>
  </g>
  <path class="cls-6" d="M140.4309091,78.8553835l-7.7766771-24.7965557c-.0156178-.0505087-.0315679-.1007682-.0474073-.1511938l-.0392107-.1249426-.0008861.006369c-4.453986-14.0089837-17.7042849-24.0974113-33.2642167-23.7656964-17.6623995.3765364-32.913513,15.5595025-33.3649286,33.2201469-.3062666,11.9820105,5.5696892,22.6059315,14.6630673,28.9249871,1.325966.9214236,2.1168766,2.43255,2.1168769,4.0472349l.0000018,8.840924v12.8944759c0,.5011345.4062498.9073842.9073842.9073842h32.5815402c.5011345,0,.9073842-.4062498.9073842-.9073842v-11.9870917c0-.5011345.4062498-.9073842.9073842-.9073842h7.2839959c3.4178937,0,6.188644-2.7707503,6.188644-6.188644v-17.926349c0-.5011345.4062498-.9073842.9073842-.9073842h7.1638752c.6125344,0,1.049088-.5944309.8657885-1.1788961Z"/>
  <path class="cls-5" d="M9.5690909,78.8553835l7.7766771-24.7965557c.0156178-.0505087.0315679-.1007682.0474073-.1511938l.0392107-.1249426.0008861.006369c4.453986-14.0089837,17.7042849-24.0974113,33.2642167-23.7656964,17.6623995.3765364,32.913513,15.5595025,33.3649286,33.2201469.3062666,11.9820105-5.5696892,22.6059315-14.6630673,28.9249871-1.325966.9214236-2.1168766,2.43255-2.1168769,4.0472349l-.0000018,8.840924v12.8944759c0,.5011345-.4062498.9073842-.9073842.9073842h-32.5815402c-.5011345,0-.9073842-.4062498-.9073842-.9073842v-11.9870917c0-.5011345-.4062498-.9073842-.9073842-.9073842h-7.2839959c-3.4178937,0-6.188644-2.7707503-6.188644-6.188644v-17.926349c0-.5011345-.4062498-.9073842-.9073842-.9073842h-7.1638752c-.6125344,0-1.049088-.5944309-.8657885-1.1788961Z"/>
  <g>
    <path class="cls-4" d="M94.8379169,95.8269278v29.5434364c0,.4944749-.4061431.9006719-.9095104.9006719h-37.8540873c-.5033674,0-.9095104-.406197-.9095104-.9006719v-29.5434364h39.6731082Z"/>
    <path class="cls-4" d="M47.0325501,64.8140327l-1.8926674-.4774149c-1.9643713-.4955018-4.0388559.179284-5.3358064,1.7356246l-.0000043.0000052c-1.3225877,1.5871052-1.5954724,3.800773-.6979157,5.6615612l3.6996214,7.6699468c.4571487.9477472.6945657,1.986427.6945657,3.0386673v.0000036c0,1.0931566.8861785,1.979335,1.979335,1.979335h1.5528716s0-20.0370952,0-19.6077289Z"/>
    <path class="cls-4" d="M102.9674499,64.8140327l1.8926674-.4774149c1.9643713-.4955018,4.0388559.179284,5.3358064,1.7356246l.0000043.0000052c1.3225877,1.5871052,1.5954724,3.800773.6979157,5.6615612l-3.6996214,7.6699468c-.4571487.9477472-.6945657,1.986427-.6945657,3.0386673v.0000036c0,1.0931566-.8861785,1.979335-1.979335,1.979335h-1.5528716s0-20.0370952,0-19.6077289Z"/>
    <path class="cls-1" d="M94.8379169,86.2492773v19.8048942l-12.3707647,9.3685611c-4.4149744,3.3465312-10.5166044,3.3465312-14.9315788,0l-12.3707647-9.3685611v-19.8048942h39.6731082Z"/>
    <path class="cls-4" d="M102.9714643,54.6999512v35.2376847c0,2.9300537-1.3800049,5.6900635-3.710022,7.460083l-16.7999878,12.7299805c-4.4100342,3.3399658-10.5100098,3.3399658-14.9299927,0l-16.7900391-12.7299805c-2.3399658-1.7700195-3.7099609-4.5300293-3.7099609-7.460083v-35.2376847c0-15.4499512,12.5199585-27.9699707,27.9699707-27.9699707,7.7200317,0,14.710022,3.1300049,19.7700195,8.1899414,5.0700073,5.0600586,8.2000122,12.0600586,8.2000122,19.7800293Z"/>
  </g>
</svg>