<?xml version="1.0" encoding="UTF-8"?>
<svg id="Layer_1" data-name="Layer 1" xmlns="http://www.w3.org/2000/svg" viewBox="0 0 150 150">
  <defs>
    <style>
      .cls-1 {
        fill: #df9e81;
      }

      .cls-2 {
        fill: #b5c082;
      }

      .cls-3 {
        fill: #f6e6c4;
      }

      .cls-4 {
        fill: #b35d38;
      }
    </style>
  </defs>
  <g>
    <g>
      <path class="cls-1" d="M32.8821318,4.0547807h81.0962387c1.10383,0,2,.89617,2,2v109.8904387H6.0879318c-1.10383,0-2-.89617-2-2V32.8489807c0-15.8919516,12.9022484-28.7942,28.7942-28.7942Z"/>
      <path class="cls-2" d="M34.0216295,34.0547807h109.8904387c1.10383,0,2,.89617,2,2v81.0962387c0,15.8919516-12.9022484,28.7942-28.7942,28.7942H36.0216295c-1.10383,0-2-.89617-2-2V34.0547807h0Z"/>
    </g>
    <path class="cls-3" d="M84.0445182,14.9816073l.0000142.0000112c3.3071018,2.603503,7.5757253,3.6556242,11.7139266,2.8872236l.0000178-.0000033c6.6396744-1.2328858,13.2599264,2.2416905,16.0170463,8.4063944l.0000074.0000166c1.718385,3.8421742,5.0091183,6.7575095,9.0304072,8.0002427l.0000173.0000054c6.4520903,1.9939444,10.6993162,8.1471134,10.2757439,14.8869851l-.0000011.0000181c-.263993,4.2006497,1.2949828,8.3113309,4.2781303,11.2805026l.0000129.0000128c4.7864101,4.763986,5.6876216,12.1861308,2.1803924,17.957147l-.0000094.0000155c-2.1858934,3.5968069-2.7158178,7.9611265-1.4542147,11.9765353l.0000054.0000173c2.0242209,6.4426558-.6270385,13.4334525-6.4144607,16.9135428l-.0000155.0000093c-3.607032,2.168979-6.1044572,5.787124-6.8534166,9.9288881l-.0000032.0000178c-1.2016928,6.6453908-6.7980517,11.6033321-13.5398382,11.9952499l-.0000181.0000011c-4.201843.2442642-8.094639,2.2873611-10.6825834,5.6066523l-.0000111.0000143c-4.1523132,5.3257468-11.4117132,7.1150282-17.5634019,4.3289898l-.0000165-.0000075c-3.8340625-1.7364086-8.2304366-1.7364086-12.0644991,0l-.0000165.0000075c-6.1516887,2.7860384-13.4110887.996757-17.5634019-4.3289898l-.0000111-.0000143c-2.5879444-3.3192912-6.4807403-5.3623881-10.6825834-5.6066523l-.0000181-.0000011c-6.7417864-.3919178-12.3381454-5.3498591-13.5398382-11.9952499l-.0000032-.0000178c-.7489594-4.1417641-3.2463846-7.7599091-6.8534166-9.9288881l-.0000155-.0000093c-5.7874222-3.4800903-8.4386817-10.4708871-6.4144607-16.9135428l.0000054-.0000173c1.2616031-4.0154088.7316788-8.3797284-1.4542147-11.9765353l-.0000094-.0000155c-3.5072292-5.7710161-2.6060177-13.1931609,2.1803924-17.957147l.0000129-.0000128c2.9831476-2.9691717,4.5421233-7.0798529,4.2781303-11.2805026l-.0000011-.0000181c-.4235723-6.7398717,3.8236536-12.8930407,10.2757439-14.8869851l.0000173-.0000054c4.0212889-1.2427332,7.3120222-4.1580685,9.0304072-8.0002427l.0000074-.0000166c2.7571199-6.1647039,9.3773718-9.6392801,16.0170463-8.4063944l.0000178.0000033c4.1382014.7684006,8.4068248-.2837206,11.7139266-2.8872236l.0000142-.0000112c5.3061892-4.1772767,12.7828472-4.1772767,18.0890364,0Z"/>
  </g>
  <rect class="cls-4" x="34.0547806" y="69.3155683" width="81.8904386" height="11.3688635" rx="5.6844222" ry="5.6844222" transform="translate(-31.0660172 75) rotate(-45)"/>
  <circle class="cls-4" cx="56.8059082" cy="56.8059081" r="10.2369156"/>
  <circle class="cls-4" cx="93.1940918" cy="93.1940919" r="10.2369156"/>
</svg>