<?xml version="1.0" encoding="UTF-8"?>
<svg id="Layer_1" data-name="Layer 1" xmlns="http://www.w3.org/2000/svg" viewBox="0 0 150 150">
  <defs>
    <style>
      .cls-1 {
        fill: #df9e81;
      }

      .cls-2 {
        fill: #b5c082;
      }

      .cls-3 {
        fill: #f6e6c4;
      }

      .cls-4 {
        fill: #425636;
      }

      .cls-5 {
        fill: #b35d38;
      }
    </style>
  </defs>
  <g>
    <path class="cls-3" d="M36.4861215,20.0978466h66.5709482v96.7901892H7.6919322V48.8920359c0-15.8919457,12.9022436-28.7941893,28.7941893-28.7941893Z"/>
    <path class="cls-3" d="M51.312569,98.929677h90.9954988v19.0826677c0,15.8919457-12.9022436,28.7941893-28.7941893,28.7941893h-62.2013095v-47.876857h0Z"/>
  </g>
  <g>
    <g>
      <polygon class="cls-4" points="105.0303557 123.5780162 91.0221274 127.5712961 91.3991921 115.8775765 91.9324693 99.6147528 91.9508737 98.9344652 92.4011069 85.0435581 93.192045 60.7550913 93.7800864 42.51582 102.1091767 42.51582 102.6792627 60.1576233 103.6075601 88.665736 103.83739 95.7536549 103.83739 95.7628571 104.0488156 102.381914 104.3706673 112.1910956 105.0303557 123.5780162"/>
      <polygon class="cls-4" points="104.0488156 102.381914 104.3706673 112.1910956 99.6084297 107.1164329 92.2817031 99.2838112 91.9508737 98.9344652 76.6990547 82.6625515 69.5375184 75.022951 71.4960105 73.0557056 75.4215235 69.1301925 82.2149729 75.5010152 92.4011069 85.0435581 99.9397079 92.1039827 103.83739 95.7536549 103.83739 95.7628571 107.2574568 98.9620717 104.0488156 102.381914"/>
      <polygon class="cls-4" points="125.009574 80.0149063 118.2982709 87.1763304 107.2574568 98.9620717 104.0488156 102.381914 99.6084297 107.1164329 91.3991921 115.8775765 91.9324693 99.6147528 92.2817031 99.2838112 99.9397079 92.1039827 103.6075601 88.665736 111.8540553 80.934226 119.1260177 74.1220356 121.0840609 76.0893932 123.0510819 78.0475487 125.009574 80.0149063"/>
      <circle class="cls-2" cx="96.1317074" cy="32.0483696" r="28.8549036"/>
      <circle class="cls-2" cx="61.0856207" cy="64.9170118" r="23.6344287"/>
      <circle class="cls-2" cx="125.9873992" cy="72.7800864" r="16.3206687"/>
    </g>
    <g>
      <path class="cls-1" d="M31.136186,123.5794537v18.7909529c0,2.1603788-1.563023,4.0358269-3.7051097,4.3667685-.0641908.0092022-.1283816.0184043-.1930212.0274943-2.6291286.3678625-4.95481-1.7374155-4.95481-4.3942628v-18.7909529h8.8529409Z"/>
      <path class="cls-1" d="M100.8114615,123.5794537v18.7909529c0,2.1603788-1.563023,4.0358269-3.7051097,4.3667685-.0641908.0092022-.1283816.0184043-.1930212.0274943-2.619702.3678625-4.95481-1.7374155-4.95481-4.3942628v-18.7909529h8.8529409Z"/>
      <g>
        <rect class="cls-5" x="31.1376763" y="98.929677" width="60.8216503" height="18.5248141"/>
        <rect class="cls-5" x="18.0666473" y="123.5780162" width="86.9637084" height="9.885884"/>
      </g>
    </g>
    <polygon class="cls-1" points="18.0666473 123.5780162 31.1376763 117.4544911 91.9593266 117.4544911 105.0303557 123.5780162 18.0666473 123.5780162"/>
  </g>
</svg>