<?xml version="1.0" encoding="UTF-8"?>
<svg id="Layer_1" data-name="Layer 1" xmlns="http://www.w3.org/2000/svg" viewBox="0 0 150 150">
  <defs>
    <style>
      .cls-1 {
        fill: #df9e81;
      }

      .cls-2 {
        fill: #b5c082;
      }

      .cls-3 {
        fill: #f6e6c4;
      }

      .cls-4 {
        fill: #425636;
      }

      .cls-5 {
        fill: #b35d38;
      }
    </style>
  </defs>
  <circle class="cls-3" cx="55" cy="75" r="54.5034649"/>
  <circle class="cls-1" cx="95" cy="75" r="54.5034649"/>
  <g>
    <path class="cls-4" d="M83.3906816,68.4772276l-26.3989661-26.3989661-26.0123622,26.0123622c-.2475383.2475383-.3866039.5832723-.3866039.9333444v24.5322773c0,.7289873.590961,1.3199483,1.3199483,1.3199483h51.4779839v-26.3989661Z"/>
    <path class="cls-5" d="M56.9917155,42.0782615h35.7518379c.3500721,0,.6858061.1390656.9333444.3866039l26.0123622,26.0123622v25.0790178c0,.7289873-.590961,1.3199483-1.3199483,1.3199483h-34.9786301v-26.3989661l-26.3989661-26.3989661Z"/>
    <polygon class="cls-3" points="56.9917155 42.0782615 93.2902939 42.0782615 119.68926 68.4772276 83.3906816 68.4772276 56.9917155 42.0782615"/>
    <rect class="cls-2" x="50.391974" y="71.7770984" width="13.199483" height="13.199483" rx="2" ry="2"/>
    <path class="cls-3" d="M98.5901647,78.3768399h7.5495477c1.10383,0,2,.89617,2,2v14.4993538h-11.5495477v-14.4993538c0-1.10383.89617-2,2-2Z"/>
  </g>
  <path class="cls-5" d="M78.33092,132.1111707c-.4842436-.2637989-1.0728311-.2424892-1.5350302.055846l-5.2201315,3.3595779c-.4306021.2770256-.6907269.753921-.6907269,1.2653528s.2601248.9883273.6907269,1.2653528l5.2201315,3.3595779c.2468981.159455.530537.23955.8141759.23955.2476329,0,.4960007-.0609897.7208543-.183704.4835088-.2637989.7840485-.7708218.7840485-1.3211988v-6.7191557c0-.550377-.3005397-1.0573999-.7840485-1.3211988Z"/>
  <path class="cls-5" d="M71.66908,8.5274417c.4842436-.2637989,1.0728311-.2424892,1.5350302.055846l5.2201315,3.3595779c.4306021.2770256.6907269.753921.6907269,1.2653528s-.2601248.9883273-.6907269,1.2653528l-5.2201315,3.3595779c-.2468981.159455-.530537.23955-.8141759.23955-.2476329,0-.4960007-.0609897-.7208543-.183704-.4835088-.2637989-.7840485-.7708218-.7840485-1.3211988v-6.7191557c0-.550377.3005397-1.0573999.7840485-1.3211988Z"/>
  <path class="cls-5" d="M41.9898848,129.7658873c-.2705078,0-.5449219-.0732422-.7910156-.2265625-18.4697266-11.4873047-29.8007812-31.3115234-30.3125-53.0283203-.7509766-31.8984375,22.3994141-59.7866211,53.8486328-64.8701172.8105469-.1279297,1.5878906.4233398,1.7197266,1.2416992.1328125.8178711-.4228516,1.5878906-1.2412109,1.7202148-29.9775391,4.8452148-52.0439453,31.4296875-51.3271484,61.8378906.4863281,20.7021484,11.2890625,39.5996094,28.8964844,50.5517578.7041016.4375.9189453,1.3623047.4814453,2.0654297-.2841797.4570312-.7734375.7080078-1.2744141.7080078Z"/>
  <path class="cls-5" d="M65.8990645,138.5246764c-.0722656,0-.1455078-.0048828-.21875-.015625-6.3339844-.9277344-12.4736328-2.7958984-18.2490234-5.5546875-.7470703-.3574219-1.0644531-1.2529297-.7070312-2,.3574219-.7480469,1.2519531-1.0634766,2-.7070312,5.5039062,2.6289062,11.3544922,4.4091797,17.3896484,5.2929688.8203125.1201172,1.3876953.8818359,1.2675781,1.7011719-.109375.7460938-.75,1.2832031-1.4824219,1.2832031Z"/>
  <path class="cls-5" d="M84.1441817,138.5315123c-.7324219,0-1.3740234-.5380859-1.4824219-1.2841797-.1191406-.8203125.4492188-1.5810547,1.2685547-1.7001953,30.5410156-4.4375,53.0224609-31.0849609,52.2949219-61.9863281-.4296875-18.2460938-8.8916016-35.215332-23.2158203-46.5556641-.6503906-.5146484-.7597656-1.4580078-.2451172-2.1074219.5136719-.6499023,1.4580078-.7578125,2.1064453-.2451172,15.0263672,11.8959961,23.9033203,29.6962891,24.3544922,48.8378906.7626953,32.4160156-22.8232422,60.3701172-54.8632812,65.0253906-.0732422.0107422-.1455078.015625-.2177734.015625Z"/>
  <path class="cls-5" d="M108.6519942,23.5700866c-.2763672,0-.5546875-.0756836-.8037109-.234375-6.9433594-4.4165039-14.5683594-7.340332-22.6630859-8.6894531-.8164062-.1362305-1.3691406-.9091797-1.2324219-1.7260742.1357422-.8178711.9082031-1.3740234,1.7265625-1.2329102,8.4931641,1.4155273,16.4931641,4.4833984,23.7783203,9.1171875.6992188.4448242.9052734,1.371582.4609375,2.0708008-.2861328.4492188-.7714844.6948242-1.2666016.6948242Z"/>
</svg>