<?xml version="1.0" encoding="UTF-8"?>
<svg id="Layer_1" data-name="Layer 1" xmlns="http://www.w3.org/2000/svg" viewBox="0 0 150 150">
  <defs>
    <style>
      .cls-1 {
        fill: #2c2b32;
      }

      .cls-2 {
        fill: #df9e81;
      }

      .cls-3 {
        fill: #b5c082;
      }

      .cls-4 {
        fill: #f6e6c4;
      }

      .cls-5 {
        fill: #425636;
      }

      .cls-6 {
        fill: #b35d38;
      }
    </style>
  </defs>
  <path class="cls-3" d="M41.9993074,5L6.9993074,40v98c0,1.1045695.8954305,2,2,2h101c1.1045695,0,2-.8954305,2-2V7c0-1.1045695-.8954305-2-2-2H41.9993074Z"/>
  <path class="cls-5" d="M41.9993074,5L6.9993074,40h33c1.1045695,0,2-.8954305,2-2V5Z"/>
  <path class="cls-4" d="M76.9993074,35l-35,35v63c0,1.1045695.8954305,2,2,2h86c1.1045695,0,2-.8954305,2-2V37c0-1.1045695-.8954305-2-2-2h-53Z"/>
  <path class="cls-1" d="M76.9993074,35l-35,35h33c1.1045695,0,2-.8954305,2-2v-33Z"/>
  <path class="cls-2" d="M51.9993074,82.5l-30,30v30.5c0,1.1045695.8954305,2,2,2h61c1.1045695,0,2-.8954305,2-2v-58.5c0-1.1045695-.8954305-2-2-2h-33Z"/>
  <path class="cls-6" d="M51.9993074,82.5l-30,30h28c1.1045695,0,2-.8954305,2-2v-28Z"/>
  <path class="cls-3" d="M137.0041903,96.0014648c-2.2011719,0-4.3203125-1.2158203-5.371582-3.3183594l-12.5-25c-1.4819336-2.9638672-.2802734-6.5678711,2.6835938-8.0498047,2.9648438-1.4814453,6.5678711-.2792969,8.0498047,2.6835938l12.5,25c1.4819336,2.9638672.2802734,6.5678711-2.6835938,8.0498047-.8613281.4306641-1.7768555.6347656-2.6782227.6347656Z"/>
  <path class="cls-1" d="M111.9993074,70c-16.5419922,0-30-13.4580078-30-30s13.4580078-30,30-30,30,13.4580078,30,30-13.4580078,30-30,30ZM111.9993074,20c-11.027832,0-20,8.972168-20,20s8.972168,20,20,20,20-8.972168,20-20-8.972168-20-20-20Z"/>
</svg>