<?xml version="1.0" encoding="UTF-8"?>
<svg id="Layer_1" data-name="Layer 1" xmlns="http://www.w3.org/2000/svg" viewBox="0 0 150 150">
  <defs>
    <style>
      .cls-1 {
        fill: #df9e81;
      }

      .cls-2 {
        fill: #b5c082;
      }

      .cls-3 {
        fill: #f6e6c4;
      }

      .cls-4 {
        fill: #425636;
      }

      .cls-5 {
        fill: #b35d38;
      }
    </style>
  </defs>
  <path class="cls-3" d="M63.3900735,13.4907914h73.7173711c1.10383,0,2,.89617,2,2v68.5208989c0,28.9741691-23.5233492,52.4975182-52.4975182,52.4975182H12.8925553c-1.10383,0-2-.89617-2-2v-68.5208989c0-28.9741691,23.5233492-52.4975182,52.4975182-52.4975182Z"/>
  <g>
    <g>
      <path class="cls-4" d="M75.0001797,26.4071416v66.4281271l-9.852981-9.8530515c-12.9010511-12.9010511-12.9010511-33.8209729,0-46.722024l9.852981-9.8530515Z"/>
      <path class="cls-2" d="M84.8532547,82.9822171l-9.853075,9.8530515V26.4071416l9.853075,9.8530515c12.9010511,12.9010511,12.9010511,33.8209729,0,46.722024Z"/>
    </g>
    <g>
      <path class="cls-5" d="M26.1020654,76.2572301l46.9717791,46.9717791-13.9342692-.0000499c-18.2448415,0-33.03746-14.7926185-33.03746-33.03746l-.0000499-13.9342692Z"/>
      <path class="cls-1" d="M73.0738612,109.2946735l-.0000166,13.9343357-46.9717791-46.9717791,13.9343357-.0000166c18.2448415,0,33.03746,14.7926185,33.03746,33.03746Z"/>
    </g>
    <g>
      <path class="cls-4" d="M123.8979346,76.6210793l-46.9717791,46.9717791,13.9342692-.0000499c18.2448415,0,33.03746-14.7926185,33.03746-33.03746l.0000499-13.9342692Z"/>
      <path class="cls-2" d="M76.9261388,109.6585227l.0000166,13.9343357,46.9717791-46.9717791-13.9343357-.0000166c-18.2448415,0-33.03746,14.7926185-33.03746,33.03746Z"/>
    </g>
  </g>
</svg>