<?xml version="1.0" encoding="UTF-8"?>
<svg id="Layer_1" data-name="Layer 1" xmlns="http://www.w3.org/2000/svg" viewBox="0 0 150 150">
  <defs>
    <style>
      .cls-1 {
        fill: #df9e81;
      }

      .cls-2 {
        fill: #b5c082;
      }

      .cls-3 {
        fill: #f6e6c4;
      }

      .cls-4 {
        fill: #425636;
      }

      .cls-5 {
        fill: #b35d38;
      }
    </style>
  </defs>
  <path class="cls-1" d="M34.9976581,45.5586714h108.8778068c1.10383,0,2,.89617,2,2v47.8212772c0,17.0393405-13.8337826,30.873123-30.873123,30.873123H6.1245351c-1.10383,0-2-.89617-2-2v-47.8212772c0-17.0393405,13.8337826-30.873123,30.873123-30.873123Z"/>
  <path class="cls-5" d="M75,36.370893h68.8754649c1.10383,0,2,.89617,2,2v66.196834c0,17.0393405-13.8337826,30.873123-30.873123,30.873123h-40.0023419V36.370893h0Z"/>
  <g>
    <polygon class="cls-3" points="123.8258803 66.2163241 75 85.0422044 26.1741197 66.2163241 75 47.3904439 123.8258803 66.2163241"/>
    <path class="cls-4" d="M26.1741197,66.2163241v36.4877466c0,2.8924442,1.7822298,5.4858508,4.4824672,6.5226495l44.3434131,17.0263515v-41.2108672s-48.8258803-18.8258803-48.8258803-18.8258803Z"/>
    <path class="cls-1" d="M123.8258803,66.2163241v36.4877466c0,2.8924442-1.7822298,5.4858508-4.4824672,6.5226495l-44.3434131,17.0263515v-41.2108672s48.8258803-18.8258803,48.8258803-18.8258803Z"/>
    <g>
      <g>
        <path class="cls-1" d="M40.074927,59.5866454v5.1614242c0,1.7201366,1.0581219,3.263076,2.6627494,3.8827862l.0000111.0000043c5.4094409,2.0891361,11.4029798,2.0891361,16.8124207,0l.0000111-.0000043c1.6046275-.6197101,2.6627494-2.1626495,2.6627494-3.8827862v-5.1614242h-22.1379416Z"/>
        <path class="cls-4" d="M54.6823248,59.5819083v10.3499756c-1.1699829.1800537-2.3599854.2700195-3.539978.2700195-2.8500366,0-5.7000122-.5200195-8.4000244-1.5699463-1.6099854-.6199951-2.6699829-2.1600342-2.6699829-3.8800049v-5.1700439h14.6099854Z"/>
        <ellipse class="cls-2" cx="51.1438978" cy="59.5866454" rx="11.0689708" ry="4.7979063"/>
      </g>
      <g>
        <path class="cls-1" d="M63.932323,50.3565777v5.1614242c0,1.7201366,1.0581219,3.263076,2.6627494,3.8827862l.0000111.0000043c5.4094409,2.0891361,11.4029798,2.0891361,16.8124207,0l.0000111-.0000043c1.6046275-.6197101,2.6627494-2.1626495,2.6627494-3.8827862v-5.1614242h-22.1379416Z"/>
        <path class="cls-4" d="M78.5397208,50.3518406v10.3499756c-1.1699829.1800537-2.3599854.2700195-3.539978.2700195-2.8500366,0-5.7000122-.5200195-8.4000244-1.5699463-1.6099854-.6199951-2.6699829-2.1600342-2.6699829-3.8800049v-5.1700439h14.6099854Z"/>
        <ellipse class="cls-2" cx="75.0012938" cy="50.3565777" rx="11.0689708" ry="4.7979063"/>
      </g>
      <g>
        <path class="cls-1" d="M63.932323,68.2587189v5.1614242c0,1.7201366,1.0581219,3.263076,2.6627494,3.8827862l.0000111.0000043c5.4094409,2.0891361,11.4029798,2.0891361,16.8124207,0l.0000111-.0000043c1.6046275-.6197101,2.6627494-2.1626495,2.6627494-3.8827862v-5.1614242h-22.1379416Z"/>
        <path class="cls-4" d="M78.5397208,68.2539818v10.3499756c-1.1699829.1800537-2.3599854.2700195-3.539978.2700195-2.8500366,0-5.7000122-.5200195-8.4000244-1.5699463-1.6099854-.6199951-2.6699829-2.1600342-2.6699829-3.8800049v-5.1700439h14.6099854Z"/>
        <ellipse class="cls-2" cx="75.0012938" cy="68.2587189" rx="11.0689708" ry="4.7979063"/>
      </g>
      <g>
        <path class="cls-1" d="M87.7897189,59.5866454v5.1614242c0,1.7201366,1.0581219,3.263076,2.6627494,3.8827862l.0000111.0000043c5.4094409,2.0891361,11.4029798,2.0891361,16.8124207,0l.0000111-.0000043c1.6046275-.6197101,2.6627494-2.1626495,2.6627494-3.8827862v-5.1614242h-22.1379416Z"/>
        <path class="cls-4" d="M102.3971167,59.5819083v10.3499756c-1.1699829.1800537-2.3599854.2700195-3.539978.2700195-2.8500366,0-5.7000122-.5200195-8.4000244-1.5699463-1.6099854-.6199951-2.6699829-2.1600342-2.6699829-3.8800049v-5.1700439h14.6099854Z"/>
        <ellipse class="cls-2" cx="98.8586897" cy="59.5866454" rx="11.0689708" ry="4.7979063"/>
      </g>
    </g>
  </g>
</svg>