<?xml version="1.0" encoding="UTF-8"?>
<svg id="Layer_1" data-name="Layer 1" xmlns="http://www.w3.org/2000/svg" viewBox="0 0 150 150">
  <defs>
    <style>
      .cls-1 {
        fill: #df9e81;
      }

      .cls-2 {
        fill: #f6e6c4;
      }

      .cls-3 {
        fill: #425636;
      }

      .cls-4 {
        fill: #b35d38;
      }
    </style>
  </defs>
  <circle class="cls-2" cx="75" cy="75" r="69.5868888"/>
  <path class="cls-3" d="M84.5803168,62.2511432c.1202203-1.3826258,1.4004883-2.3791493,2.7883308-2.3791486l3.8237658.0000017c2.6512457.0000012,4.8005055-2.1492577,4.8005055-4.8005034v-.0000096c0-2.6512457-2.1492599-4.8005046-4.8005056-4.8005034l-3.7235434.0000017c-1.3878407.0000006-2.6681052-.9965221-2.7883266-2.3791459-.134636-1.5484011,1.0824282-2.8466912,2.6027815-2.8466912l6.8062316-.0000076c1.0193312-.0000011,1.8208336-.8989605,1.6833524-1.9089778-1.3938543-10.2400691-10.15022-18.1361591-20.7728744-18.1361591h-.0000639c-10.6226611,0-19.3790311,7.8961-20.7728615,18.1361826-.1374775,1.0100088.655564,1.9089591,1.6748862,1.9089593l6.1104189-.0000013c2.0113602-.0000005,3.2870294.9963764,3.4072687,2.3788344.1346718,1.5483964-1.0824075,2.8470028-2.6027124,2.8470028h-4.0093811c-2.6512448,0-4.8005034,2.1492586-4.8005034,4.8005034v.0000118c0,2.6512457,2.1492599,4.8005046,4.8005055,4.8005034l3.8237658-.0000017c1.3878426-.0000006,2.6681105.9965229,2.7883308,2.3791486.1346345,1.5483999-1.0824327,2.8466885-2.6027178,2.8466885h-4.0093811c-2.6512448,0-4.8005034,2.1492586-4.8005034,4.8005034v.0002674c0,2.6512457,2.1492599,4.8005046,4.8005056,4.8005034l3.8240389-.0000017c1.3876771-.0000006,2.6678131.9963763,2.7880524,2.3788343.1346718,1.5483964-1.0824075,2.8470028-2.6027124,2.8470028l-7.0188284.0000084c-.9952255.0000012-1.7842683.8583404-1.6910113,1.849187,1.0032257,10.6591717,9.9710809,19.0012118,20.8928398,19.0012118h.0000639c10.9217669,0,19.8896272-8.3420523,20.8928233-19.0012396.0932531-.9908359-.6877708-1.8491644-1.6829853-1.8491646l-6.1246093.0000011c-2.0084911.0000005-3.2844985-.9965222-3.4047198-2.3791461-.1346359-1.548401,1.0824282-2.846691,2.6027815-2.846691h3.9090908c2.6512448,0,4.8005034-2.1492586,4.8005034-4.8005034v-.0002696c0-2.6512448-2.1492586-4.8005034-4.8005034-4.8005034h-4.0093811c-1.520285,0-2.7373523-1.2982886-2.6027178-2.8466885Z"/>
  <path class="cls-4" d="M105.7228272,62.8484219c-1.6990748.0885464-2.973516,1.6131339-2.9735158,3.3145144l.0000012,13.0902486c.0000013,15.099362-11.8161668,27.878963-26.9088694,28.3273593-15.6828912.4659305-28.5899434-12.1567771-28.5899434-27.736909l.000005-13.6801991c.0000006-1.7010736-1.2736959-3.2258061-2.9724317-3.3149579-1.8119237-.095092-3.3111526,1.3456359-3.3111526,3.1373284v13.8578286c0,15.9011729,10.9633244,29.2849306,25.7273334,33.0010873,3.0244015.7612532,5.1638632,3.4482339,5.1638632,6.5669694v.0000125c0,3.7368515-3.0293174,6.7661678-6.7661689,6.7661665l-5.0191077-.0000018c-1.7015168-.0000006-3.2263709,1.274494-3.3148532,2.9737086-.0943514,1.8119245,1.3466715,3.3098749,3.1373976,3.3098749l30.0320997.0000046c1.7015168.0000003,3.2263707-1.2744944,3.314853-2.973709.0943514-1.8119245-1.3466715-3.3098749-3.1373976-3.3098749h-5.1970771c-3.7368506,0-6.7661665-3.0293159-6.7661665-6.7661665v-.0000149c0-3.1187354,2.1394618-5.8057161,5.1638632-6.5669694,14.7640089-3.7161567,25.7273334-17.0999144,25.7273334-33.0010873v-13.8578286c0-1.791317-1.498056-3.2318166-3.3100657-3.1373847Z"/>
  <g>
    <g id="_Radial_Repeat_" data-name="&amp;lt;Radial Repeat&amp;gt;">
      <rect class="cls-1" x="23.6255812" y="23.8988487" width="5.7921175" height="13.4742543" rx="2.5931358" ry="2.5931358" transform="translate(-13.9994696 30.6268136) rotate(-49.1042248)"/>
    </g>
    <g id="_Radial_Repeat_-2" data-name="&amp;lt;Radial Repeat&amp;gt;">
      <rect class="cls-1" x="54.0224141" y="4.3541674" width="5.7921173" height="13.474254" rx="2.5931358" ry="2.5931358" transform="translate(-.8179246 16.4984905) rotate(-16.376962)"/>
    </g>
    <g id="_Radial_Repeat_-3" data-name="&amp;lt;Radial Repeat&amp;gt;">
      <rect class="cls-1" x="90.160793" y="4.3456389" width="5.7921173" height="13.474254" rx="2.5931363" ry="2.5931363" transform="translate(6.8832712 -25.7481907) rotate(16.3503219)"/>
    </g>
    <g id="_Radial_Repeat_-4" data-name="&amp;lt;Radial Repeat&amp;gt;">
      <rect class="cls-1" x="120.5670253" y="23.876553" width="5.7921174" height="13.4742541" rx="2.5931364" ry="2.5931364" transform="translate(65.72189 -82.7277733) rotate(49.0775927)"/>
    </g>
  </g>
</svg>