<?xml version="1.0" encoding="UTF-8"?>
<svg id="Layer_1" data-name="Layer 1" xmlns="http://www.w3.org/2000/svg" viewBox="0 0 150 150">
  <defs>
    <style>
      .cls-1 {
        fill: #df9e81;
      }

      .cls-2 {
        fill: #f6e6c4;
      }

      .cls-3 {
        fill: #425636;
      }

      .cls-4 {
        fill: #b35d38;
      }

      .cls-5 {
        fill: #b3be80;
      }
    </style>
  </defs>
  <g>
    <path class="cls-1" d="M36.1586766,15.1806724h77.1669716v104.6472455H8.6784027V42.6609464c0-15.166776,12.3134979-27.4802739,27.4802739-27.4802739Z"/>
    <path class="cls-2" d="M75,43.2386317h66.3215973v64.100422c0,15.166776-12.3134979,27.4802739-27.4802739,27.4802739h-38.8413234V43.2386317h0Z"/>
  </g>
  <g>
    <g>
      <path class="cls-2" d="M61.0060596,81.9875404c-.8300781,0-1.6416016-.4130859-2.1171875-1.1669922l-14.9511719-23.7177734-14.9511719,23.7177734c-.7373047,1.1689453-2.2802734,1.5175781-3.4482422.7822266-1.1679688-.7363281-1.5185547-2.2802734-.7822266-3.4482422l17.0664062-27.0732422c.4580078-.7265625,1.2568359-1.1669922,2.1152344-1.1669922s1.6572266.4404297,2.1152344,1.1669922l17.0664062,27.0732422c.7363281,1.1679688.3857422,2.7119141-.7822266,3.4482422-.4140625.2607422-.875.3847656-1.3310547.3847656Z"/>
      <path class="cls-4" d="M43.9373319,78.5178403h.0000421c11.6268997,0,21.066467,9.4395674,21.066467,21.066467v3.1582609H22.8708649v-3.1582609c0-11.6268997,9.4395674-21.066467,21.066467-21.066467Z" transform="translate(87.874706 181.2604086) rotate(180)"/>
    </g>
    <g>
      <path class="cls-5" d="M123.1313331,81.9875404c-.8300781,0-1.6416016-.4130859-2.1171875-1.1669922l-14.9511719-23.7177734-14.9511719,23.7177734c-.7373047,1.1689453-2.2802734,1.5175781-3.4482422.7822266-1.1679688-.7363281-1.5185547-2.2802734-.7822266-3.4482422l17.0664062-27.0732422c.4580078-.7265625,1.2568359-1.1669922,2.1152344-1.1669922s1.6572266.4404297,2.1152344,1.1669922l17.0664062,27.0732422c.7363281,1.1679688.3857422,2.7119141-.7822266,3.4482422-.4140625.2607422-.875.3847656-1.3310547.3847656Z"/>
      <path class="cls-3" d="M106.0626055,78.5178403h.0000421c11.6268996,0,21.066467,9.4395673,21.066467,21.066467v3.1582609h-42.1329762v-3.1582609c0-11.6268997,9.4395674-21.066467,21.066467-21.066467Z" transform="translate(212.1252531 181.2604086) rotate(180)"/>
    </g>
    <rect class="cls-4" x="22.8708649" y="43.2386316" width="104.2582497" height="7.4826496" rx="3.741321" ry="3.741321"/>
    <path class="cls-4" d="M93.4609432,133.1140053c-.1166992-.7178955-.7910156-1.2148438-1.5180664-1.2148438h-.6274414l.0419922-.041748c1.8867188-1.8826294,1.8886719-4.9388428.0039062-6.8235474l-1.3325195-1.3324585c-.6601562-.6600342-.5820312-1.6835327.0537109-2.3669434.6162109-.6621704.5854492-1.7035522-.0795898-2.3276978l-1.9614258-1.8405151c-3.6948242-3.4675293-5.7905273-8.3088989-5.7905273-13.3758545l-3.5097656-56.8104248h-7.4824219l-3.5097656,56.8104248c0,5.0673828-2.0961914,9.9090576-5.7915039,13.376709l-2.0795898,1.9516602c-.6811523.6392212-.5991211,1.5931396.0683594,2.24646.6582031.6436768.6621094,1.6988525.0131836,2.3479004l-1.3134766,1.3134155c-1.8857422,1.8858643-1.887207,4.9429932-.003418,6.8308716l.0415039.041748h-.6269531c-.7275391,0-1.4013672.4969482-1.5180664,1.2147827-.1494141.9147339.5527344,1.7053833,1.4394531,1.7053833h34.0424805c.8867188,0,1.5893555-.7905884,1.4399414-1.7053223Z"/>
  </g>
</svg>