<?xml version="1.0" encoding="UTF-8"?>
<svg id="Layer_1" data-name="Layer 1" xmlns="http://www.w3.org/2000/svg" viewBox="0 0 150 150">
  <defs>
    <style>
      .cls-1 {
        fill: #2c2b32;
      }

      .cls-2 {
        fill: #df9e81;
      }

      .cls-3 {
        fill: #b5c082;
      }

      .cls-4 {
        fill: #f6e6c4;
      }

      .cls-5 {
        fill: #425636;
      }

      .cls-6 {
        fill: #b35d38;
      }
    </style>
  </defs>
  <path class="cls-4" d="M6.2424578,40.9963226h74.1504846c9.86581,0,17.8755959,8.009786,17.8755959,17.8755959v77.3931305c0,1.10383-.89617,2-2,2H6.2424578c-1.10383,0-2-.89617-2-2V42.9963226c0-1.10383.89617-2,2-2Z"/>
  <rect class="cls-3" x="81.1924655" y="72.7179226" width="64.5650769" height="65.5471265" rx="2" ry="2"/>
  <g>
    <g>
      <rect class="cls-3" x="63.1264332" y="52.8181209" width="8.043958" height="24.1318739" transform="translate(33.4083207 -22.1817589) rotate(24.7999814)"/>
      <rect class="cls-3" x="56.2751327" y="49.5017765" width="8.043958" height="24.1318739" transform="translate(-9.7846395 11.4192023) rotate(-10.0109289)"/>
      <rect class="cls-3" x="70.0891343" y="55.8847359" width="8.043958" height="24.1318739" transform="translate(52.9867675 166.253842) rotate(-120.3891084)"/>
      <circle class="cls-5" cx="79.648037" cy="37.8323681" r="18.616017"/>
      <circle class="cls-5" cx="92.3518027" cy="55.909302" r="12.7626775"/>
      <circle class="cls-5" cx="57.6481973" cy="39.8739988" r="12.7626775"/>
    </g>
    <g>
      <path class="cls-5" d="M32.9844463,39.641778l6.5314041-2.1370246-6.0680282-24.3340799c-.2659185-1.0663897-1.3810033-1.6829707-2.4255573-1.3412008l-6.3636914,2.0821503c-1.044554.3417699-1.5795127,1.4982323-1.1636542,2.5155628l9.489527,23.2145922Z"/>
      <path class="cls-3" d="M31.960444,48.8606456l5.5910482-3.9957844-13.0802256-21.3980399c-.5732133-.9377239-1.8218094-1.191877-2.7159742-.5528395l-5.4474819,3.8931811c-.8941648.6390375-1.0580479,1.9026548-.3564822,2.7486484l16.0091157,19.3048343Z"/>
      <path class="cls-3" d="M43.4714817,40.3531189l-6.8716377.0819093-2.098016-24.9913333c-.0919411-1.0951924.7649399-2.0382413,1.8639067-2.0513409l6.6951885-.0798061c1.0989668-.0130996,1.9780833.9092563,1.9122738,2.0063291l-1.5017153,25.0342418Z"/>
      <path class="cls-6" d="M55.0224703,103.4061357l-.0000178.0000058c-5.0832844,1.6632111-10.6102646-.713253-12.9001321-5.5467361l-20.5094729-43.2916714c-2.7383245-5.7800922.216221-12.6515254,6.2950366-14.6404665l11.4624595-3.7504275c6.0788156-1.9889411,12.5236697,1.8070818,13.731585,8.0879119l9.0470312,47.0420931c1.0100943,5.2522149-2.0432051,10.4360796-7.1264896,12.0992907Z"/>
    </g>
    <g>
      <path class="cls-3" d="M113.4163585,39.1306978h5.1432648v5.1432638c0,3.0528717-2.4785445,5.5314162-5.5314162,5.5314162h-3.1432646c-1.10383,0-2-.89617-2-2v-3.1432639c0-3.0528716,2.4785444-5.531416,5.531416-5.531416Z" transform="translate(210.9136934 -28.0100973) rotate(121.9855363)"/>
      <path class="cls-3" d="M123.4034345,47.5732467h3.1432646c3.0528717,0,5.5314162,2.4785445,5.5314162,5.5314162v5.1432638h-5.1432648c-3.0528716,0-5.531416-2.4785444-5.531416-5.531416v-3.1432639c0-1.10383.89617-2,2-2Z" transform="translate(238.7538331 -26.5616033) rotate(121.9855479)"/>
      <path class="cls-5" d="M118.247995,40.7839036h3.1432646c3.0528717,0,5.5314162,2.4785445,5.5314162,5.5314162v5.1432638h-5.1432648c-3.0528716,0-5.531416-2.4785444-5.531416-5.531416v-3.1432639c0-1.10383.89617-2,2-2Z" transform="translate(139.1412453 -82.7273223) rotate(76.9855479)"/>
      <circle class="cls-6" cx="110.741927" cy="63.9663126" r="17.2165458"/>
    </g>
    <g>
      <rect class="cls-2" x="12.2424577" y="72.7179226" width="125.5150847" height="15.0023039" rx="2" ry="2"/>
      <path class="cls-6" d="M122.2964797,138.2650491H27.7035203c-1.7876471,0-3.2924193-1.3378031-3.5017052-3.113157l-4.9219368-47.4316655h111.4402435l-4.9219368,47.4316655c-.209286,1.7753539-1.7140582,3.113157-3.5017052,3.113157Z"/>
    </g>
    <rect class="cls-1" x="45.928614" y="98.7289094" width="4.7327664" height="29.2352345" rx="2.3663808" ry="2.3663808"/>
    <rect class="cls-4" x="63.7319491" y="98.7289094" width="4.7327664" height="29.2352345" rx="2.3663808" ry="2.3663808"/>
    <rect class="cls-4" x="81.5352843" y="98.7289094" width="4.7327664" height="29.2352345" rx="2.3663809" ry="2.3663809"/>
    <rect class="cls-4" x="99.3386195" y="98.7289094" width="4.7327665" height="29.2352345" rx="2.3663809" ry="2.3663809"/>
  </g>
</svg>