<?xml version="1.0" encoding="UTF-8"?>
<svg id="Layer_1" data-name="Layer 1" xmlns="http://www.w3.org/2000/svg" viewBox="0 0 150 150">
  <defs>
    <style>
      .cls-1 {
        fill: #df9e81;
      }

      .cls-2 {
        fill: #b5c082;
      }

      .cls-3 {
        fill: #f6e6c4;
      }

      .cls-4 {
        fill: #425636;
      }

      .cls-5 {
        fill: #b35d38;
      }
    </style>
  </defs>
  <g>
    <path class="cls-1" d="M4.0879318,18.3414083h65.0554852v119.9236407H28.3418611c-13.386108,0-24.2539293-10.8678213-24.2539293-24.2539293V18.3414083h0Z"/>
    <path class="cls-3" d="M69.228575,33.0960222h52.4295639c13.386108,0,24.2539293,10.8678213,24.2539293,24.2539293v54.8194384h-76.6834932V33.0960222h0Z"/>
  </g>
  <g>
    <g>
      <rect class="cls-2" x="70.8214165" y="65.1252968" width="10.3254725" height="50.4813767" transform="translate(44.9116138 -23.537922) rotate(24.7999814)"/>
      <rect class="cls-2" x="66.1175708" y="61.7677317" width="10.3254725" height="30.9764176" transform="translate(-12.3445951 13.5673366) rotate(-10.0109289)"/>
      <rect class="cls-2" x="83.8496493" y="69.9610953" width="10.3254725" height="30.9764176" transform="translate(60.3316517 205.4584865) rotate(-120.3891084)"/>
      <circle class="cls-4" cx="96.1197516" cy="46.7885193" r="23.8960936"/>
      <circle class="cls-4" cx="112.4266971" cy="69.9926291" r="16.3825665"/>
      <circle class="cls-4" cx="67.8800789" cy="49.4092194" r="16.3825665"/>
    </g>
    <g>
      <path class="cls-4" d="M36.5928768,58.382312l8.0797626-3.5400973-10.7696619-30.3376129c-.4719577-1.3294819-1.9730672-1.9789942-3.265247-1.4128338l-7.8722913,3.449195c-1.2921797.5661604-1.832279,2.1100156-1.174836,3.3582283l15.0022736,28.4831206Z"/>
      <path class="cls-2" d="M36.4275486,70.287565l6.6478848-5.7983169-19.3646371-25.7170605c-.8486144-1.1269959-2.4753677-1.2969068-3.5385502-.3695939l-6.4771811,5.6494283c-1.0631825.9273128-1.1158994,2.5620657-.1146711,3.555951l22.8471547,22.679592Z"/>
      <path class="cls-2" d="M50.0796141,57.9909457l-8.7692508.9566044-5.7789448-31.6695464c-.2532501-1.387851.7246059-2.6989551,2.127054-2.8519429l8.5440749-.9320408c1.4024482-.1529878,2.6399881.9164472,2.6919244,2.3262588l1.1851423,32.1706669Z"/>
      <path class="cls-5" d="M72.6548913,137.1172244l-.000022.0000096c-6.2883464,2.7551995-13.6444156.4042015-17.169279-5.4872977l-31.5708625-52.7679192c-4.2151871-7.0453144-1.2923023-16.1907676,6.2275795-19.4855567l14.1797919-6.2127869c7.5198818-3.2947891,16.2246524.7560799,18.546626,8.630894l17.3910926,58.9806965c1.9417026,6.5851511-1.3165801,13.5867609-7.6049265,16.3419604Z"/>
    </g>
    <g>
      <path class="cls-2" d="M113.7964106,82.4211948h8.1709334v8.1709322c0,3.0528717-2.4785445,5.5314162-5.5314162,5.5314162h-6.1709333c-1.10383,0-2-.89617-2-2v-6.1709324c0-3.0528716,2.4785444-5.531416,5.531416-5.531416Z" transform="translate(260.6006027 81.8179796) rotate(139.2733117)"/>
      <path class="cls-2" d="M123.6133453,97.9254735h6.1709333c3.0528717,0,5.5314162,2.4785445,5.5314162,5.5314162v8.1709322h-8.1709334c-3.0528716,0-5.531416-2.4785444-5.531416-5.531416v-6.1709324c0-1.10383.89617-2,2-2Z" transform="translate(294.1805313 100.3627564) rotate(139.2733233)"/>
      <path class="cls-4" d="M119.8844728,87.6375866h6.1709333c3.0528717,0,5.5314162,2.4785445,5.5314162,5.5314162v8.1709322h-8.1709334c-3.0528716,0-5.531416-2.4785444-5.531416-5.531416v-6.1709324c0-1.10383.89617-2,2-2Z" transform="translate(228.2563297 -22.859337) rotate(94.2733233)"/>
      <circle class="cls-5" cx="104.6383672" cy="112.2241182" r="22.0996891"/>
    </g>
  </g>
</svg>