<?xml version="1.0" encoding="UTF-8"?>
<svg id="Layer_1" data-name="Layer 1" xmlns="http://www.w3.org/2000/svg" viewBox="0 0 150 150">
  <defs>
    <style>
      .cls-1 {
        fill: #2c2b32;
      }

      .cls-2 {
        fill: #df9e81;
      }

      .cls-3 {
        fill: #f6e6c4;
      }

      .cls-4 {
        fill: #b35d38;
      }
    </style>
  </defs>
  <rect class="cls-3" x="12.5843288" y="11.3204373" width="106.1326046" height="105.2845814"/>
  <polygon class="cls-1" points="87.7224243 92.6131862 47.7510339 90.9198907 42.4444037 59.0801093 63.6709246 43.1602186 87.7224243 48.4668489 87.7224243 92.6131862"/>
  <rect class="cls-4" x="68.1322826" y="69.3961741" width="69.2833887" height="69.2833887"/>
  <polygon class="cls-4" points="87.7224243 92.6131862 58.3642944 96.2265209 58.3642944 59.0801093 95.510706 59.0801093 87.7224243 92.6131862"/>
  <path class="cls-3" d="M94.4530921,128.0663023c-2.336161,0-4.5852602-1.2903818-5.7009999-3.5218612l-13.2665756-26.5331511c-1.5728147-3.1456294-.2974615-6.9706527,2.8481679-8.5434674,3.1466659-1.5722965,6.9706527-.296425,8.5434674,2.8481679l13.2665756,26.5331511c1.5728147,3.1456294.2974615,6.9706527-2.8481679,8.5434674-.91415.457075-1.885823.6736933-2.8424675.6736933Z"/>
  <path class="cls-2" d="M67.9147587,100.4702704c-17.5564472,0-31.8397814-14.2833342-31.8397814-31.8397814s14.2833342-31.8397814,31.8397814-31.8397814,31.8397814,14.2833342,31.8397814,31.8397814-14.2833342,31.8397814-31.8397814,31.8397814ZM67.9147587,47.4039681c-11.7041254,0-21.2265209,9.5223956-21.2265209,21.2265209s9.5223956,21.2265209,21.2265209,21.2265209,21.2265209-9.5223956,21.2265209-21.2265209-9.5223956-21.2265209-21.2265209-21.2265209Z"/>
</svg>