<?xml version="1.0" encoding="UTF-8"?>
<svg id="Layer_1" data-name="Layer 1" xmlns="http://www.w3.org/2000/svg" viewBox="0 0 150 150">
  <defs>
    <style>
      .cls-1 {
        fill: #2c2b32;
      }

      .cls-2 {
        fill: #df9e81;
      }

      .cls-3 {
        fill: #b5c082;
      }

      .cls-4 {
        fill: #f6e6c4;
      }

      .cls-5 {
        fill: #b35d38;
      }
    </style>
  </defs>
  <path class="cls-3" d="M142.2299805,121.7224057h-67.2299805v-60h48.5599976c.8599854,0,1.6199951.5499878,1.9000244,1.3699951l18.6599731,56c.4299927,1.289978-.5299683,2.6300049-1.8900146,2.6300049Z"/>
  <path class="cls-2" d="M75,61.7224057v60H7.7700195c-1.3600464,0-2.3200073-1.3400269-1.8900146-2.6300049l18.6599731-56c.2800293-.8200073,1.0400391-1.3699951,1.9000244-1.3699951h48.5599976Z"/>
  <g>
    <g>
      <path class="cls-4" d="M112.9064014,83.4389644c-.9321377,4.0383127-2.4429769,8.0147782-4.4905763,11.8206092-2.1464404,3.989718-4.8450909,7.7143757-8.0208517,11.0701576-3.3734496,3.5645155-7.265978,6.6883684-11.5693543,9.2837559-4.2260655,2.5495531-8.8789883,4.6032226-13.8312047,6.1052313-4.951667-1.501456-9.6051426-3.5556783-13.8312047-6.1046786-4.3033763-2.5959402-8.1959047-5.7197931-11.5693543-9.2843086-3.1757608-3.3557818-5.8744113-7.0804396-8.0208517-11.0701576-2.047596-3.8052783-3.558442-7.7822965-4.4905729-11.8206092-1.8051749-7.8187409-2.5318853-16.168711-2.1607984-24.8179746.2899103-6.7629188,1.2546197-13.7505842,2.8676266-20.7713842,1.3871515.096084,2.7908686.1446788,4.1752597.1446788,6.5597059,0,13.0354714-1.0331863,19.2467329-3.0702868,5.0057825-1.6417229,9.6421397-3.8776211,13.7831627-6.6464033,4.141023,2.7687822,8.7773768,5.0046804,13.7831627,6.6464033,6.2118176,2.0371005,12.687027,3.0702868,19.2467329,3.0702868,1.3843877,0,2.7881082-.0485948,4.1752597-.1446788,1.6130035,7.0208,2.577713,14.0084654,2.868176,20.7713842.3705376,8.6487109-.3561728,16.998681-2.1613444,24.8179746Z"/>
      <path class="cls-5" d="M112.9064014,83.4389644c-.9321377,4.0383127-2.4429769,8.0147782-4.4905763,11.8206092-2.1464404,3.989718-4.8450909,7.7143757-8.0208517,11.0701576-3.3734496,3.5645155-7.265978,6.6883684-11.5693543,9.2837559-4.2260655,2.5495531-8.8789883,4.6032226-13.8312047,6.1052313V28.2775943c4.141023,2.7687822,8.7773768,5.0046804,13.7831627,6.6464033,6.2118176,2.0371005,12.687027,3.0702868,19.2467329,3.0702868,1.3843877,0,2.7881082-.0485948,4.1752597-.1446788,1.6130035,7.0208,2.577713,14.0084654,2.868176,20.7713842.3705376,8.6487109-.3561728,16.998681-2.1613444,24.8179746Z"/>
    </g>
    <path class="cls-1" d="M68.9136046,79.7509497l-1.7578362,10.3204548c-.278593,1.6326999.9803444,3.1239628,2.6370837,3.1239628h10.4054158c1.6488359,0,2.9044803-1.4762795,2.6397181-3.1030519l-1.6867061-10.3859867c3.6605672-2.1258359,6.1211428-6.0883768,6.1211428-10.6260509,0-6.7809076-5.4954611-12.2793325-12.2778506-12.2793325s-12.2778506,5.4984248-12.2778506,12.2793325c0,4.5704401,2.4951527,8.5553738,6.1968832,10.6706719Z"/>
  </g>
</svg>