<?xml version="1.0" encoding="UTF-8"?>
<svg id="Layer_1" data-name="Layer 1" xmlns="http://www.w3.org/2000/svg" viewBox="0 0 150 150">
  <defs>
    <style>
      .cls-1 {
        fill: #2c2b32;
      }

      .cls-2 {
        fill: #df9e81;
      }

      .cls-3 {
        fill: #b5c082;
      }

      .cls-4 {
        fill: #f6e6c4;
      }

      .cls-5 {
        fill: #425636;
      }

      .cls-6 {
        fill: #b35d38;
      }
    </style>
  </defs>
  <g>
    <path class="cls-6" d="M52.9152598,67.8433558h70.9106356v60.8815383c0,1.10383-.89617,2-2,2H52.9152598v-62.8815383h0Z"/>
    <path class="cls-2" d="M6.0879318,18.3414083h66.912097c1.10383,0,2,.89617,2,2v115.9236407c0,1.10383-.89617,2-2,2H28.3418611c-13.386108,0-24.2539293-10.8678213-24.2539293-24.2539293V20.3414083c0-1.10383.89617-2,2-2Z"/>
    <path class="cls-4" d="M75.0014326,33.0960222h46.6567063c13.386108,0,24.2539293,10.8678213,24.2539293,24.2539293v33.6187542c0,1.10383-.89617,2-2,2h-68.9106356v-59.8726836h0Z"/>
  </g>
  <path class="cls-5" d="M75.0000287,79.4040527l-48.8259277-18.8259277v30.487793c0,2.8924738,1.782248,5.4859072,4.482513,6.5227166l3.0542777,1.1727382c26.5800853,10.2058443,55.9981863,10.2058375,82.5782669-.000019l3.0542269-1.1727204c2.7002634-1.0368103,4.48251-3.6302428,4.48251-6.5227155v-30.487793l-48.8258667,18.8259277Z"/>
  <path class="cls-3" d="M123.8214399,57.9399414v21.7800293c0,2.9000244-1.7800293,5.4899902-4.4799805,6.5300293l-3.0500488,1.1699219c-26.5799561,10.2000732-56,10.2000732-82.5799561,0l-3.0500488-1.1699219c-2.7099609-1.0400391-4.4899902-3.6300049-4.4899902-6.5300293v-21.7700195l12.8599854-3.75,35.9700317,13.8601074,35.9699707-13.8701172,12.8500366,3.75Z"/>
  <rect class="cls-1" x="121.1949308" y="63.6862946" width="4.9900184" height="41.5808591" rx="2.4950067" ry="2.4950067"/>
  <path class="cls-6" d="M136.4514448,65.7399902l-12.6300049,3.6899414-47.6199951,13.9000244c-.7900391.2200928-1.6199951.2200928-2.4000244,0l-47.6300049-13.9100342-12.6199951-3.6799316c-2.0599976-.5999756-2.0599976-3.5100098,0-4.1099854l12.6199951-3.6800537,12.8599854-3.75,34.7700195-10.1499023c.7800293-.2299805,1.6099854-.2299805,2.4000244,0l34.7699585,10.1398926,12.8500366,3.75,12.6300049,3.6900635c2.0599976.5999756,2.0599976,3.5100098,0,4.1099854Z"/>
  <path class="cls-2" d="M123.6899399,105.8404035l-5.4261514,9.3983699c-2.411618,4.1770449.6029045,9.3983511,5.4261405,9.3983511h.0000217c4.823236,0,7.8377586-5.2213062,5.4261406-9.3983511l-5.4261514-9.3983699Z"/>
  <circle class="cls-2" cx="123.6899399" cy="105.2671536" r="3.90184"/>
</svg>