<?xml version="1.0" encoding="UTF-8"?>
<svg id="Layer_1" data-name="Layer 1" xmlns="http://www.w3.org/2000/svg" viewBox="0 0 150 150">
  <defs>
    <style>
      .cls-1 {
        fill: #f6e6c4;
        fill-rule: evenodd;
      }

      .cls-2 {
        fill: #df9e81;
      }

      .cls-3 {
        fill: #b5c082;
      }

      .cls-4 {
        fill: #425636;
      }

      .cls-5 {
        fill: #b35d38;
      }
    </style>
  </defs>
  <g>
    <rect class="cls-2" x="5.4324595" y="11.3656956" width="109.293827" height="90.6907134"/>
    <path class="cls-5" d="M73.9752746,51.5947461h70.5922659v87.0395583H36.0621021v-49.1263858c0-20.9248495,16.988323-37.9131725,37.9131725-37.9131725Z"/>
  </g>
  <circle class="cls-4" cx="75" cy="74" r="37.0402867"/>
  <circle class="cls-3" cx="75" cy="74" r="15.3148213"/>
  <path class="cls-1" d="M98.996277,49.8244926c-6.1402573-6.1405248-14.6245806-9.938814-23.9963884-9.938814-9.3712869,0-17.8558777,3.7982892-23.9966559,9.938814-6.1402643,6.1407782-9.938814,14.6245806-9.938814,23.9958674,0,9.3720683,3.7985497,17.8566592,9.938814,23.9971769,6.1407782,6.1405248,14.6248481,9.938293,23.9966559,9.938293s17.8561312-3.7977682,23.9963884-9.938293c6.1405248-6.1405177,9.9390745-14.6251086,9.9390745-23.9971769,0-9.3712869-3.7985497-17.8550892-9.9390745-23.9958674M87.0813476,30.3803809c3.8389465,1.0655531,7.471748,2.6265201,10.826038,4.6094576l-.0364543-.0225569,9.7326796-8.0605129c.6635726-.5495645,1.6363447-.5039638,2.2455963.1052671l6.5694312,6.5692074,6.569204,6.5694279c.6092322.609253.6548316,1.5820278.1052638,2.2456002l-8.3668197,10.1024672-.0212474-.0390733c1.7434992,3.23443,3.1035732,6.7056864,4.0193806,10.3537018l-.004203-.0201914,13.3412973,1.2537624c.8578761.0806198,1.5135072.800806,1.5134443,1.6624619l-.0006776,9.2908605.0006776,9.2905635c.0000628.8616713-.6555909,1.581865-1.5134842,1.6624657l-14.0233854,1.3175235.003668-.0133764c-.9047306,2.901563-2.0946361,5.6766153-3.5370148,8.2931906-.3339099.6057358-.275774,1.3500945.1654003,1.8828017l8.4229915,10.1705558c.5495541.6635731.503949,1.6363366-.1052774,2.2455838l-6.5692178,6.5694417-6.569432,6.5692082c-.6092513.6092305-1.5820227.6548316-2.2455953.1052679l-11.4300162-9.4662163.0469443-.0262249c-2.8038072,1.4988089-5.7841131,2.7101792-8.9023723,3.5937282l.0322583-.0086524-1.3972829,14.8752842c-.0805815.8578601-.8007103,1.513515-1.6623468,1.513515h-18.5818147c-.8616362,0-1.5817648-.6556544-1.6623467-1.5135143l-1.2924831-13.7595374c-.0633931-.6748718-.5323909-1.2342216-1.1795511-1.4358507-2.7052069-.8428336-5.3004451-1.9337892-7.7607451-3.2460906l.0123274.006822-11.4302607,9.4666905c-.6635802.5495858-1.6363786.503982-2.2456336-.105273l-6.5691562-6.5691562-6.5694276-6.5694276c-.6092504-.6092504-.6548587-1.5820398-.1052837-2.2456206l9.1556817-11.0549692.0159954.0257039c-1.7065168-2.9129027-3.0962232-6.0340413-4.1200841-9.3167321l.004196.0128484-14.0236809-1.3175291c-.8578787-.080598-1.5135283-.8007682-1.5134868-1.6624246l.0004477-9.2905989-.0004477-9.2908984c-.0000415-.8616401.6555839-1.5818022,1.5134443-1.6624206l13.3413279-1.2537659-.0136369.0569062c.9155469-3.6590264,2.2777189-7.1412936,4.0256675-10.3849112l-.0183539.0335678-8.3670405-10.1024442c-.5495899-.66358-.5039878-1.6363818.1052689-2.2456385l6.5694126-6.5694126,6.5691837-6.5691837c.6092435-.6092435,1.5820192-.6548586,2.2456009-.1053l9.7329296,8.0605221-.0086595.0055055c3.337506-1.970082,6.9514256-3.5223896,10.7678153-4.5845422l-.0112785.003147,1.169894-12.4528183c.0805918-.8578509.8007165-1.5134937,1.6623448-1.5134937h18.5818814c.8616164,0,1.5817354.6556253,1.6623419,1.5134629l1.1701291,12.452849-.0419668-.0110109Z"/>
</svg>