<?xml version="1.0" encoding="UTF-8"?>
<svg id="Layer_1" data-name="Layer 1" xmlns="http://www.w3.org/2000/svg" viewBox="0 0 150 150">
  <defs>
    <style>
      .cls-1 {
        fill: #2c2b32;
      }

      .cls-2 {
        fill: #df9e81;
      }

      .cls-3 {
        fill: #f6e6c4;
      }

      .cls-4 {
        fill: #b35d38;
      }
    </style>
  </defs>
  <path class="cls-2" d="M5.7489255,13.3565613h84.2225473c25.7932373,0,46.7340734,20.9408361,46.7340734,46.7340734v78.8338955c0,1.10383-.89617,2-2,2H56.2464437c-28.9741691,0-52.4975182-23.5233492-52.4975182-52.4975182V15.3565613c0-1.10383.89617-2,2-2Z" transform="translate(140.4544718 154.2810917) rotate(180)"/>
  <g>
    <polygon class="cls-4" points="105.8975961 140.9245303 112.0749429 140.9245303 121.2232031 93.4402725 105.8975961 93.4402725 105.8975961 140.9245303"/>
    <polygon class="cls-4" points="50.3736757 140.9245303 56.5510225 140.9245303 65.6992827 93.4402725 50.3736757 93.4402725 50.3736757 140.9245303"/>
    <path class="cls-4" d="M135.4484752,20.8320689h10.8025993v14.0694097h-24.3702275v-.5017814c0-7.4881779,6.0794504-13.5676282,13.5676282-13.5676282Z" transform="translate(268.1319214 55.7335473) rotate(180)"/>
    <path class="cls-4" d="M74.095216,20.8320689h10.8025993c7.4881779,0,13.5676282,6.0794504,13.5676282,13.5676282v.5017815h-24.3702276v-14.0694097h0Z" transform="translate(172.5606595 55.7335474) rotate(180)"/>
    <path class="cls-4" d="M20.2337667,61.0303858h24.370359v9.1086625h7.8434474v14.0693943h-13.60179c-5.1389444,0-9.4310043-3.6013857-10.5027744-8.4173604-.2926088-1.3148313-1.0343825-2.4950009-2.1354931-3.2708596-3.6107339-2.5441761-5.973749-6.7366318-5.973749-11.4898368Z"/>
    <path class="cls-3" d="M34.616585,72.9748643c0-9.5101484,7.7094985-17.2196469,17.2196469-17.2196469h29.9974965c2.7210703,0,4.9269335-2.2058634,4.9269334-4.9269336l-.0000009-18.5519745c-.0000006-12.2857544,9.55337-22.7494814,21.8313626-23.1861271,12.8901112-.4584146,23.4839719,9.8550108,23.4839719,22.6428477v37.3644154c0,17.9681736-12.4185473,33.0353345-29.1409095,37.0876296-.7910136.1916847-1.4071939.8084527-1.5611708,1.6076626l-6.3832156,33.1317719h-6.1773383v-31.614113c0-1.1336733-.9190237-2.0526971-2.0526971-2.0526971h-22.6388786c-1.9504132,0-3.7555999,1.018115-4.7716311,2.682985-3.0769144,5.0418357-7.8676713,8.9205862-13.5648145,10.8286622-.7193824.2409341-1.2678566.8281637-1.4113809,1.5731208l-3.5800357,18.5820421h-6.1773383v-67.9496451Z"/>
    <path class="cls-1" d="M106.1156467,17.0395349h6.6051002c5.9392409,0,10.761151,4.8219101,10.761151,10.761151v11.6752915c0,7.4851396-6.0769837,13.5621233-13.5621233,13.5621233h-1.0031557c-7.4851396,0-13.5621233-6.0769837-13.5621233-13.5621233v-11.6752914c0-5.939241,4.8219101-10.7611511,10.7611511-10.7611511Z" transform="translate(218.8363935 70.0776356) rotate(180)"/>
  </g>
</svg>