<?xml version="1.0" encoding="UTF-8"?>
<svg id="Layer_1" data-name="Layer 1" xmlns="http://www.w3.org/2000/svg" viewBox="0 0 150 150">
  <defs>
    <style>
      .cls-1 {
        fill: #df9e81;
      }

      .cls-2 {
        fill: #b5c082;
      }

      .cls-3 {
        fill: #f6e6c4;
      }

      .cls-4 {
        fill: #425636;
      }

      .cls-5 {
        fill: #c56b2f;
      }
    </style>
  </defs>
  <g>
    <path class="cls-1" d="M10.4169264,4.0376828h90.9341629c1.10383,0,2,.89617,2,2v103.8849618H10.4169264c-1.10383,0-2-.89617-2-2V6.0376828c0-1.10383.89617-2,2-2Z"/>
    <path class="cls-3" d="M73.6102749,22.8184966h65.9727987c1.10383,0,2,.89617,2,2v108.7469038c0,1.10383-.89617,2-2,2H37.1856281c-1.10383,0-2-.89617-2-2V61.2431434c0-21.2071399,17.2175069-38.4246468,38.4246468-38.4246468Z"/>
  </g>
  <g>
    <path class="cls-2" d="M111.2314832,61.2960705c-.5001178,8.533013-4.0329188,16.6597078-9.9699871,22.9187246l-3.0224312,2.825258c-2.4747576,2.0369662-4.1283389,4.8512627-4.369358,8.1692531l-.0656353,6.8114985c-.0217893,1.4344851-1.1935996,2.3544485-2.617257,2.3544485h-37.8131404c0-6.1872281-2.4968142-12.0897247-6.8879616-16.4371597-7.2494235-7.1837882-11.6407045-17.2475081-11.2793763-28.3406727.6023474-18.890128,15.2325986-34.3526506,33.5642251-36.5647333.8867922-.1085477,2.5246724-.177257,3.8810725-.2134137,1.203708-.0320864,2.1959321.9335342,2.1950021,2.1376694l-.0069394,8.9847168c-.0010011,1.2961763-1.1461085,2.2886053-2.4294679,2.1067733-.4616956-.0654151-.9313422-.0632917-1.416623.0155978-2.2778517.2519807-4.1503955,1.9163898-4.7856274,3.9423945-.7226565,2.343487.065769,4.7526093,1.9602358,6.2199789,1.2709009.9869762,2.7811732,1.3800193,4.2801017,1.1553764,1.2662849-.1897769,2.3905555.8338525,2.3916719,2.1142788l.0064593,7.4080565c.0010283,1.1793202.9573447,2.1348031,2.1366653,2.1348031h7.3332419c1.3030207,0,2.2758406,1.1520616,2.1073264,2.4441397-.0576059.441692-.0594253.8950055-.0004367,1.3557554.295693,2.2230442,1.7411396,3.9970683,3.8656641,4.7526093,2.2886795.8213099,4.7964552-.021923,6.2638248-1.8506208,1.0043181-1.2481952,1.4164728-2.8112586,1.1996008-4.3474624-.1770367-1.2540317.8535546-2.355733,2.1200207-2.3566963l9.2164565-.0070101c1.2312845-.0009365,2.214714,1.037261,2.1426723,2.2664365Z"/>
    <path class="cls-5" d="M100.1664162,109.5768825c0,1.4344851-.5802907,2.7267382-1.5220434,3.6684909-.9418863.9417527-2.2449672,1.5221771-3.679586,1.5221771h-41.5911125c-2.8689703,0-5.1906679-2.3216977-5.1906679-5.1906679,0-1.4346188.5804244-2.7376997,1.5223108-3.679586.9306575-.941619,2.2338721-1.5220434,3.6683572-1.5220434h41.5911125c2.8692376,0,5.2016294,2.3214303,5.2016294,5.2016294Z"/>
    <rect class="cls-1" x="48.1805999" y="114.7715669" width="51.9845837" height="10.3969167" rx="4.7470995" ry="4.7470995"/>
    <path class="cls-5" d="M58.5775167,125.1684837h31.1907502v5.3969217c0,2.7595724-2.2404226,4.999995-4.999995,4.999995h-21.1907602c-2.7595724,0-4.999995-2.2404226-4.999995-4.999995v-5.3969218h0Z"/>
    <path class="cls-1" d="M63.7759751,135.5654004h20.7938334v.0000104c0,5.7382088-4.6586975,10.3969064-10.3969064,10.3969064h-.0000207c-5.7382088,0-10.3969063-4.6586975-10.3969063-10.3969063v-.0000105h0Z"/>
  </g>
  <path class="cls-4" d="M102.6517478,52.0773356c-1.4006063-1.3115942-2.0095597-3.1072412-1.7967929-4.9235298.1510785-1.2896848-.8050276-2.4363591-2.1035282-2.4391595l-7.3842787-.0159251c-1.1761633-.0025365-2.1291134-.9551613-2.1320515-2.1313237l-.0183669-7.3526216c-.0032774-1.3119971-1.1691373-2.2491065-2.4728181-2.1015821-1.3026412.1474068-2.6064247-.1556287-3.7706688-.8939671-1.7777188-1.1273907-2.7832906-3.2311746-2.5775245-5.4696211.2545855-2.769533,2.5354192-4.9520413,5.3085713-5.1143919.4217579-.0212688.8260126-.0095858,1.220156.0395325,1.2366396.1541104,2.3036782-.8863677,2.3044401-2.1325727l.0056042-9.1665643c.0007503-1.2272009,1.033629-2.2090705,2.2588785-2.1398875,7.3015129.4122757,14.3397127,3.0632966,20.1716265,7.5843838,8.2874157,6.4246711,13.5133195,16.1551861,14.0268243,26.6507161v.0000022c.0596481,1.2191476-.9123817,2.2404364-2.1329874,2.2410795l-9.1446735.0048183c-1.321285.0006962-2.2565805,1.1787401-2.1052694,2.4913327.1229184,1.0662913-.049669,2.1458849-.5719789,3.1922744-.7543161,1.5111882-2.2550506,2.8083914-4.1371181,3.0892634-1.8458829.275472-3.6092221-.1585198-4.9480443-1.4122564Z"/>
</svg>