<?xml version="1.0" encoding="UTF-8"?>
<svg id="Layer_1" data-name="Layer 1" xmlns="http://www.w3.org/2000/svg" xmlns:xlink="http://www.w3.org/1999/xlink" viewBox="0 0 150 150">
  <defs>
    <style>
      .cls-1 {
        fill: none;
      }

      .cls-2 {
        fill: #2c2b32;
      }

      .cls-3 {
        fill: #df9e81;
      }

      .cls-4 {
        fill: #b5c082;
      }

      .cls-5 {
        fill: #f6e6c4;
      }

      .cls-6 {
        fill: #425636;
      }

      .cls-7 {
        fill: #b35d38;
      }

      .cls-8 {
        clip-path: url(#clippath);
      }
    </style>
    <clipPath id="clippath">
      <path class="cls-1" d="M71.3974699,103.5540949l40.2481799,17.88808c1.6736132.7438281,3.3837281-.9662868,2.6399-2.6399l-17.88808-40.2481799-4.7089572,18.835829c-.1791426.7165704-.7386433,1.2760711-1.4552138,1.4552138l-18.835829,4.7089572Z"/>
    </clipPath>
  </defs>
  <path class="cls-5" d="M139.3961585,23.5540949c1.3397331,0,2.3006289,1.2914864,1.915647,2.5747142l-28.1575514,93.8552174-.642671,2.1442653c-.2536254.8462185-1.0323931,1.4258031-1.9158021,1.4258031H18.3991141c-1.3776964,0-2.3428393-1.3603506-1.8877167-2.6607008L50.1113974,24.8933941c.2807607-.8021735,1.0378291-1.3392992,1.8877167-1.3392992h87.3970444Z"/>
  <path class="cls-4" d="M62.8164319,38.5540949h80.8929767c1.339725,0,2.3006197,1.2914719,1.9156526,2.5746958l-28.8,96c-.2537904.8459679-1.0324361,1.4253042-1.9156526,1.4253042H29.2164319c-1.3776964,0-2.3428393-1.3603506-1.8877167-2.6607008L60.9287152,39.8933941c.2807607-.8021735,1.0378291-1.3392992,1.8877167-1.3392992Z"/>
  <polygon class="cls-6" points="112.4674772 119.9840265 111.3974699 123.5540949 31.3974699 123.5540949 46.3974699 78.5540949 71.3974699 103.5540949 112.4674772 119.9840265"/>
  <path class="cls-7" d="M30.343375,12.5l66.0540949,66.0540949-4.7089572,18.835829c-.1791426.7165704-.7386433,1.2760711-1.4552138,1.4552138l-18.835829,4.7089572L5.343375,37.5,30.343375,12.5Z"/>
  <ellipse class="cls-3" cx="17.843375" cy="25" rx="17.6776695" ry="7.3983665" transform="translate(-12.451466 19.9395019) rotate(-45)"/>
  <path class="cls-5" d="M71.3974699,103.5540949l40.2481799,17.88808c1.6736132.7438281,3.3837281-.9662868,2.6399-2.6399l-17.88808-40.2481799-5,20-20,5Z"/>
  <g class="cls-8">
    <polygon class="cls-2" points="115.343375 97.5 181.3974699 163.5540949 176.3974699 183.5540949 156.3974699 188.5540949 90.343375 122.5 115.343375 97.5"/>
  </g>
</svg>