<?xml version="1.0" encoding="UTF-8"?>
<svg id="Layer_1" data-name="Layer 1" xmlns="http://www.w3.org/2000/svg" viewBox="0 0 150 150">
  <defs>
    <style>
      .cls-1 {
        fill: #2c2b32;
      }

      .cls-2 {
        fill: #df9e81;
      }

      .cls-3 {
        fill: #b5c082;
      }

      .cls-4 {
        fill: #f6e6c4;
      }

      .cls-5 {
        fill: #425636;
      }

      .cls-6 {
        fill: #b35d38;
      }
    </style>
  </defs>
  <path class="cls-3" d="M7.5,83.1h118.8v57.4c0,1.10383-.89617,2-2,2h-57.4000594c-32.7837197,0-59.3999406-26.6162209-59.3999406-59.3999406v-.0000594h0Z"/>
  <path class="cls-4" d="M9.5,23.7h57.4000594c32.7837197,0,59.3999406,26.6162209,59.3999406,59.3999406v.0000594H7.5V25.7c0-1.10383.89617-2,2-2Z"/>
  <path class="cls-2" d="M126.3,83.1H7.5c0-32.8104053,26.5895947-59.4,59.4-59.4s59.4,26.5895947,59.4,59.4Z"/>
  <path class="cls-4" d="M110.1,83.1H23.7c0-23.857229,19.342771-43.2,43.2-43.2s43.2,19.342771,43.2,43.2Z"/>
  <path class="cls-2" d="M96.6,83.1h-59.4c0-16.4052026,13.2947974-29.7,29.7-29.7s29.7,13.2947974,29.7,29.7Z"/>
  <path class="cls-4" d="M83.1,83.1h-32.4c0-8.9424316,7.2575684-16.2,16.2-16.2s16.2,7.2575684,16.2,16.2Z"/>
  <path class="cls-5" d="M126.3,83.1c0,32.8104053-26.5895947,59.4-59.4,59.4S7.5,115.9104053,7.5,83.1h16.2c0,23.857229,19.342771,43.2,43.2,43.2s43.2-19.342771,43.2-43.2h16.2Z"/>
  <path class="cls-3" d="M110.1,83.1c0,23.857229-19.342771,43.2-43.2,43.2s-43.2-19.342771-43.2-43.2h13.5c0,16.4052026,13.2947974,29.7,29.7,29.7s29.7-13.2947974,29.7-29.7h13.5Z"/>
  <path class="cls-5" d="M96.6,83.1c0,16.4052026-13.2947974,29.7-29.7,29.7s-29.7-13.2947974-29.7-29.7h13.5c0,8.9424316,7.2575684,16.2,16.2,16.2s16.2-7.2575684,16.2-16.2h13.5Z"/>
  <path class="cls-4" d="M83.1,83.1c0,8.9424316-7.2575684,16.2-16.2,16.2s-16.2-7.2575684-16.2-16.2h32.4Z"/>
  <path class="cls-1" d="M66.9,87.42c-1.1058398,0-2.2111523-.421875-3.0549023-1.2650977-1.6869727-1.6875-1.6869727-4.4223047,0-6.1098047l46.2501562-46.2501562c1.6875-1.6864453,4.4223047-1.6864453,6.1098047,0,1.6869727,1.6875,1.6869727,4.4223047,0,6.1098047l-46.2501562,46.2501562c-.84375.8432227-1.9490625,1.2650977-3.0549023,1.2650977Z"/>
  <path class="cls-6" d="M102.9830204,25.4169796l17.28-17.28c1.3607241-1.3607241,3.6873506-.3970038,3.6873506,1.5273506v14.2252987c0,1.1929351.9670649,2.16,2.16,2.16h14.2252987c1.9243545,0,2.8880747,2.3266265,1.5273506,3.6873506l-17.28,17.28c-.4050786.4050786-.954483.6326494-1.5273506.6326494h-18.5452987c-1.1929351,0-2.16-.9670649-2.16-2.16v-18.5452987c0-.5728676.2275708-1.1222721.6326494-1.5273506Z"/>
</svg>