<?xml version="1.0" encoding="UTF-8"?>
<svg id="Layer_1" data-name="Layer 1" xmlns="http://www.w3.org/2000/svg" viewBox="0 0 150 150">
  <defs>
    <style>
      .cls-1 {
        fill: #2c2b32;
      }

      .cls-2 {
        fill: #df9e81;
      }

      .cls-3 {
        fill: #b5c082;
      }

      .cls-4 {
        fill: #f6e6c4;
      }

      .cls-5 {
        fill: #425636;
      }

      .cls-6 {
        fill: #c56b2f;
      }
    </style>
  </defs>
  <path class="cls-2" d="M7.9401829,5.0597262h97.5400349v80.4617397c0,12.1680947-9.8789491,22.0470438-22.0470438,22.0470438H5.9401829V7.0597262c0-1.10383.89617-2,2-2Z" transform="translate(111.4204008 112.6282359) rotate(180)"/>
  <path class="cls-2" d="M44.5197822,57.3202216h69.4662371c16.5981809,0,30.0737978,13.475617,30.0737978,30.0737978v55.0698273c0,1.10383-.89617,2-2,2h-67.4662371c-16.5981809,0-30.0737978-13.475617-30.0737978-30.0737978v-57.0698273h0Z" transform="translate(188.5795992 201.7840684) rotate(180)"/>
  <g>
    <rect class="cls-4" x="22.0758434" y="22.4100241" width="100.7543168" height="122.5302497" rx="6.9200315" ry="6.9200315"/>
    <rect class="cls-3" x="32.3645655" y="32.0078173" width="80.1768726" height="93.9409449" rx="6.9200315" ry="6.9200315"/>
    <circle class="cls-1" cx="72.4530018" cy="135.7108317" r="6.8246104"/>
    <rect class="cls-5" x="39.4257859" y="45.9389176" width="66.0544319" height="11.3688635" rx="5.6844261" ry="5.6844261"/>
    <rect class="cls-5" x="39.4257859" y="64.8037626" width="66.0544319" height="11.3688634" rx="5.6844261" ry="5.6844261"/>
    <path class="cls-6" d="M12.175446,123.1714005l-4.4666973-2.2333486c-1.3099481-.6549741-1.4441527-2.4720333-.2446441-3.3123512l39.0576984-27.361939c1.4312893-1.0026922,3.3527501.257609,3.003278,1.9698736l-8.5636697,41.9583349c-.2492865,1.2213976-1.5723634,1.8910259-2.7042052,1.3686374l-7.8446456-3.6206057c-.8349129-.3853444-1.8257169-.1292324-2.3693081.6124404l-6.7374085,9.1924816c-.5170134.7054101-1.4432305.9758326-2.2585785.6594248l-11.8725639-4.6073241c-1.1908274-.4621182-1.6140565-1.9315862-.8514648-2.9563188l6.5385158-8.7861306c.7183061-.9652238.3898424-2.3451002-.6863065-2.8831747Z"/>
  </g>
</svg>