<?xml version="1.0" encoding="UTF-8"?>
<svg id="Layer_1" data-name="Layer 1" xmlns="http://www.w3.org/2000/svg" xmlns:xlink="http://www.w3.org/1999/xlink" viewBox="0 0 150 150">
  <defs>
    <style>
      .cls-1 {
        fill: none;
      }

      .cls-2 {
        fill: #2c2b32;
      }

      .cls-3 {
        fill: #df9e81;
      }

      .cls-4 {
        fill: #b5c082;
      }

      .cls-5 {
        fill: #f6e6c4;
      }

      .cls-6 {
        fill: #425636;
      }

      .cls-7 {
        fill: #b35d38;
      }

      .cls-8 {
        clip-path: url(#clippath);
      }
    </style>
    <clipPath id="clippath">
      <path class="cls-1" d="M19.3114917,33.5737016h110.8533787v13.5362984c0,3.3114901-2.6885099,6-6,6H25.3114917c-3.3114901,0-6-2.6885099-6-6v-13.5362984h0Z" transform="translate(149.4763621 86.6837015) rotate(180)"/>
    </clipPath>
  </defs>
  <g>
    <rect class="cls-3" x="5.9146714" y="14.9197905" width="112.5874268" height="90.6907134"/>
    <path class="cls-7" d="M68.8874365,55.148841h76.162316v87.0395583H30.9742639v-49.1263858c0-20.9248495,16.988323-37.9131725,37.9131725-37.9131725Z"/>
  </g>
  <g>
    <path class="cls-5" d="M25.3114917,33.5737016h98.8533787c3.3114901,0,6,2.6885099,6,6v84.0824874c0,3.3114901-2.6885099,6-6,6H25.6432787c-3.4946084,0-6.331787-2.8371786-6.331787-6.331787V39.5737016c0-3.3114901,2.6885099-6,6-6Z" transform="translate(149.4763621 163.2298905) rotate(180)"/>
    <path class="cls-4" d="M19.3114917,33.5737016h110.8533787v13.5362984c0,3.3114901-2.6885099,6-6,6H25.3114917c-3.3114901,0-6-2.6885099-6-6v-13.5362984h0Z" transform="translate(149.4763621 86.6837015) rotate(180)"/>
    <g class="cls-8">
      <circle class="cls-2" cx="45.1295758" cy="37.9706165" r="8.154864"/>
      <circle class="cls-2" cx="104.695617" cy="37.9706165" r="8.154864"/>
    </g>
    <g>
      <rect class="cls-6" x="39.3442403" y="23.9464484" width="11.2218404" height="19.3954024" rx="5.4614655" ry="5.4614655"/>
      <rect class="cls-6" x="98.9102815" y="23.9464484" width="11.2218403" height="19.3954024" rx="5.4614654" ry="5.4614654"/>
    </g>
    <g>
      <rect class="cls-7" x="30.9742639" y="59.0782104" width="17.0094405" height="17.0094405" rx="3.4676381" ry="3.4676381"/>
      <rect class="cls-7" x="54.4803952" y="59.0782104" width="17.0094405" height="17.0094405" rx="3.4676381" ry="3.4676381"/>
      <rect class="cls-7" x="77.9865265" y="59.0782104" width="17.0094405" height="17.0094405" rx="3.4676381" ry="3.4676381"/>
      <rect class="cls-7" x="101.4926577" y="59.0782104" width="17.0094405" height="17.0094405" rx="3.4676381" ry="3.4676381"/>
    </g>
    <g>
      <rect class="cls-7" x="30.9742639" y="82.3443571" width="17.0094405" height="17.0094405" rx="3.4676381" ry="3.4676381"/>
      <rect class="cls-7" x="54.4803952" y="82.3443571" width="17.0094405" height="17.0094405" rx="3.4676381" ry="3.4676381"/>
      <rect class="cls-7" x="77.9865265" y="82.3443571" width="17.0094405" height="17.0094405" rx="3.4676381" ry="3.4676381"/>
      <rect class="cls-7" x="101.4926577" y="82.3443571" width="17.0094405" height="17.0094405" rx="3.4676381" ry="3.4676381"/>
    </g>
    <g>
      <rect class="cls-7" x="30.9742639" y="105.6105039" width="17.0094405" height="17.0094405" rx="3.4676381" ry="3.4676381"/>
      <rect class="cls-7" x="54.4803952" y="105.6105039" width="17.0094405" height="17.0094405" rx="3.4676381" ry="3.4676381"/>
    </g>
  </g>
</svg>