<?xml version="1.0" encoding="UTF-8"?>
<svg id="Layer_1" data-name="Layer 1" xmlns="http://www.w3.org/2000/svg" viewBox="0 0 150 150">
  <defs>
    <style>
      .cls-1 {
        fill: #425636;
      }

      .cls-1, .cls-2 {
        fill-rule: evenodd;
      }

      .cls-3 {
        fill: #f9e9c6;
      }

      .cls-2 {
        fill: #b35d38;
      }
    </style>
  </defs>
  <circle class="cls-3" cx="75" cy="75" r="74.2844692"/>
  <g>
    <path class="cls-1" d="M43.4965703,105.0885129c.6902225.1849057,1.2293598.7240087,1.4143094,1.4142194l1.6386214,6.1151473,1.6382496,6.1150683c.1848843.6901146-.0124035,1.4264427-.5175615,1.9316711l-4.476466,4.4770902-4.4767003,4.4763977c-.5052311.505197-1.2415903.7025051-1.9317323.5176094l-6.1152776-1.6383411-6.1149035-1.6385414c-.6901377-.1849284-1.2292065-.7239718-1.4141675-1.4141008l-1.6389882-6.115417-1.6385041-6.1148114c-.1849402-.6901871.0123809-1.4266107.5176335-1.931864l4.4766559-4.4766622,4.4766657-4.4766594c.5052554-.5052547,1.2416828-.7025752,1.9318721-.5176314l6.1151874,1.6386322,6.1151059,1.638193ZM80.8570153,53.7140927l9.2487963-9.2488059c1.4502055-1.450207,2.1010578-3.5274414,1.6951496-5.5377734-1.5804978-7.8276947.6629759-16.2738986,6.7329385-22.3435249,5.2328299-5.2328237,12.2318939-7.6218152,19.0780769-7.1685945,1.6903971.1119051,2.4276571,2.208685,1.2297505,3.4065935l-10.5860456,10.5860622c-.5052543.5052551-.702575,1.2416816-.5176323,1.9318705l3.2771508,12.2300168c.1849376.6901698.7240223,1.2292537,1.4141923,1.4141904l12.2301516,3.2771691c.6901884.1849416,1.4266139-.0123795,1.9318683-.5176333l10.5859351-10.5859241c1.1979085-1.1979072,3.2946896-.4606473,3.4065935,1.2297503.4532133,6.8461444-1.9357743,13.8451126-7.1686003,19.0779324-6.0696206,6.0699503-14.5157916,8.3135322-22.3434703,6.7330671-2.0103591-.4059061-4.087617.2449676-5.5378224,1.6952116l-9.3310559,9.3313042c-1.3504315,1.3504675-3.5425915,1.3418594-4.8823757-.0191718l-.0003661-.0003719c-1.3249303-1.3459418-1.3164438-3.5085345.0190091-4.8440364l.2652932-.2653029c1.3603502-1.3604001,1.6883885-3.5164823.635603-5.1267257-1.4459251-2.2115533-4.4771123-2.4343802-6.2433847-.6685192l-.2762396.2762894c-1.3503521,1.3505959-3.5425611,1.3421282-4.8824394-.018859l-.0000052-.0000053c-1.3250654-1.345941-1.3166146-3.5086645.0189287-4.8442092ZM14.4702312,100.931611c6.1086494-7.8619751,15.6714062-10.904861,24.4556835-9.1322035,2.011288.4058757,4.089479-.2436918,5.5403526-1.6945468l17.2807481-17.2805268,5.3027297,4.4239337-11.2575069,11.2571351c-1.3603396,1.3602947-1.6880673,3.51636-.6350211,5.1263348,1.4464528,2.2114438,4.4777589,2.4342877,6.2436562.6685415l11.8654426-11.8655694,5.3027297,4.4243064-18.6744257,18.6739919c-1.4502411,1.4502074-2.1011137,3.5274661-1.6952022,5.5378235,1.5804886,7.8276849-.6633356,16.2738765-6.7329737,22.3436135-10.2858813,10.286144-27.3962739,9.5881298-36.7559399-2.0940607-7.0376839-8.7840277-7.1461501-21.5007477-.2402732-30.3887734Z"/>
    <path class="cls-2" d="M106.5026208,105.088824c-.6901297.1849516-1.2291792.7240113-1.4141178,1.4141444l-1.6386443,6.1149112-1.6385341,6.1149773c-.1849319.6901622.0123692,1.4265587.5175859,1.931811l4.4767261,4.4770414,4.476289,4.4765979c.5052552.5052901,1.2417077.7026314,1.931921.5176814l6.1151276-1.6386132,6.1151996-1.6385346c.6901831-.1849308,1.2292797-.7240213,1.4142183-1.4142023l1.6386413-6.1153223,1.638522-6.1148548c.1849347-.6901638-.012366-1.4265633-.5175842-1.9318171l-4.4767231-4.4770384-4.4763296-4.4763296c-.5052318-.5052318-1.2416165-.7025596-1.9317825-.5176566l-6.1152254,1.6383351-6.1152896,1.6388693ZM94.2998178,88.5984706l-30.2976014-30.2975939c-1.5679938-1.5680012-4.1338221-1.5680012-5.7016817,0-1.5680012,1.5679863-1.5680012,4.1336879,0,5.7016742l30.2975939,30.2977281c1.5679863,1.5678745,4.1336879,1.5678745,5.7016891,0,1.5679938-1.5679863,1.5679938-4.1338072,0-5.7018084ZM135.5292844,100.9315279c-6.1090693-7.8614436-15.6718554-10.9046717-24.4558453-9.1321281-2.011295.4058643-4.0894863-.2437113-5.5403538-1.6945789l-45.639622-45.6396287c-1.4501588-1.450159-2.1010281-3.5273095-1.695189-5.5375872,1.580277-7.8277205-.6632081-16.2739665-6.7331944-22.3436165-5.232812-5.2328182-12.2316049-7.6218101-19.0776948-7.1685959-1.690396.111905-2.4276545,2.2086844-1.2297489,3.4065924l10.5860431,10.5860652c.5052538.5052548.7025744,1.2416807.5176321,1.9318692l-3.2771423,12.2300086c-.1849386.6901747-.724029,1.2292611-1.414205,1.4141947l-12.2305199,3.2771833c-.6901852.184936-1.4266047-.0123861-1.9318558-.5176367l-10.5858664-10.5858554c-1.1979179-1.1979166-3.2947154-.4606338-3.4065934,1.2297788-.4531018,6.8461116,1.9357023,13.8450356,7.1683838,19.0778292,6.0700776,6.0699589,14.5160356,8.3135385,22.3436598,6.7330604,2.010333-.405907,4.0875682.2449455,5.5377748,1.6951525l45.6393912,45.6394046c1.4501906,1.4501911,2.1010518,3.5273987,1.6951631,5.5377125-1.5804387,7.8277073.6633953,16.2739356,6.7330342,22.3436931,10.2864138,10.2860157,27.3971442,9.5877222,36.7571675-2.0949215,7.0375778-8.7839006,7.145944-21.5005569.2395815-30.3879956Z"/>
  </g>
</svg>