<?xml version="1.0" encoding="UTF-8"?>
<svg id="Layer_1" data-name="Layer 1" xmlns="http://www.w3.org/2000/svg" viewBox="0 0 150 150">
  <defs>
    <style>
      .cls-1 {
        fill: #2c2b32;
      }

      .cls-2 {
        fill: #bec793;
      }

      .cls-3 {
        fill: #df9e81;
      }

      .cls-4 {
        fill: #f6e6c4;
      }

      .cls-5 {
        fill: #425636;
      }

      .cls-6 {
        fill: #b35d38;
      }
    </style>
  </defs>
  <path class="cls-3" d="M37.2200751,20.8321584h77.1952039v82.3253168H2.6756811v-47.7809228c0-19.0655701,15.4788239-34.544394,34.544394-34.544394Z"/>
  <path class="cls-6" d="M38.333353,56.1543593l36.666647-9.3118346h72.3243189v50.6753743c0,17.4797806-14.1701619,31.6499425-31.6499425,31.6499425H35.584721V60.0556914l2.748632-3.9013321Z"/>
  <g>
    <path class="cls-4" d="M105.850894,31.7915554h10.3575506c1.10383,0,2,.89617,2,2v10.3575505c0,40.8744617-33.184877,74.0593387-74.0593387,74.0593387h-10.3575507c-1.10383,0-2-.89617-2-2v-10.3575504c0-40.8744618,33.184877-74.0593387,74.0593387-74.0593387Z" transform="translate(75.0000001 -31.0660172) rotate(45)"/>
    <g>
      <circle class="cls-5" cx="75" cy="75" r="25.5005214"/>
      <circle class="cls-2" cx="75" cy="75" r="12.0799332"/>
      <circle class="cls-1" cx="75" cy="75" r="2.6458213"/>
    </g>
  </g>
</svg>