<?xml version="1.0" encoding="UTF-8"?>
<svg id="Layer_1" data-name="Layer 1" xmlns="http://www.w3.org/2000/svg" viewBox="0 0 150 150">
  <defs>
    <style>
      .cls-1 {
        fill: #2c2b32;
      }

      .cls-2 {
        fill: #bec793;
      }

      .cls-3 {
        fill: #df9e81;
      }

      .cls-4 {
        fill: #f6e6c4;
      }

      .cls-5 {
        fill: #425636;
      }

      .cls-6 {
        fill: #b35d38;
      }
    </style>
  </defs>
  <g>
    <path class="cls-2" d="M31.6822745,11.6542293h67.2072426c1.10383,0,2,.89617,2,2v93.2154078H6.1979757c-1.10383,0-2-.89617-2-2V39.1385281c0-15.1689974,12.3153013-27.4842988,27.4842988-27.4842988Z"/>
    <path class="cls-3" d="M34.720369,43.7916655h109.0816553c1.10383,0,2,.89617,2,2v65.0698064c0,15.1689974-12.3153013,27.4842988-27.4842988,27.4842988H34.720369c-1.10383,0-2-.89617-2-2V45.7916655c0-1.10383.89617-2,2-2Z"/>
  </g>
  <g>
    <path class="cls-6" d="M91.7449951,39.5250244v67.4700928H16.164978c-1.1045695,0-2-.8954305-2-2V39.5250244c0-1.1045695.8954305-2,2-2h73.5800171c1.1045695,0,2,.8954305,2,2Z"/>
    <path class="cls-5" d="M135.835022,73.065281v31.9298362c0,1.1045695-.8954305,2-2,2h-42.0900269v-54.8599854h24.5900269l18.9361681,19.5382364c.3616169.3731144.5638319.8723157.5638319,1.3919128Z"/>
    <path class="cls-5" d="M135.835022,73.065281v31.9298362c0,1.1045695-.8954305,2-2,2h-42.0900269v-54.8599854h23.7432078c.5412857,0,1.0594569.2193986,1.4361681.6080872l18.346819,18.9301492c.3616169.3731144.5638319.8723157.5638319,1.3919128Z"/>
    <path class="cls-4" d="M101.744812,79.5945594v-15.4596717c0-1.1045695.8954305-2,2-2h7.5086562c.5412819,0,1.0594497.2193955,1.4361605.6080793l12.5811875,12.9810589c.3616216.3731151.5638395.8723197.5638395,1.3919207v2.4786128c0,1.1045695-.8954305,2-2,2h-20.0898438c-1.1045695,0-2-.8954305-2-2Z"/>
    <circle class="cls-1" cx="43.5693842" cy="106.8696371" r="12.0255045"/>
    <circle class="cls-1" cx="108.4050302" cy="106.8696371" r="12.0255045"/>
    <g>
      <rect class="cls-4" x="31.6889324" y="56.3914367" width="4.9900184" height="27.3716066" rx="2.3663808" ry="2.3663808"/>
      <rect class="cls-4" x="50.4599773" y="56.3914367" width="4.9900184" height="27.3716066" rx="2.3663808" ry="2.3663808"/>
      <rect class="cls-4" x="69.2310222" y="56.3914367" width="4.9900185" height="27.3716066" rx="2.3663809" ry="2.3663809"/>
    </g>
  </g>
</svg>