<?xml version="1.0" encoding="UTF-8"?>
<svg id="Layer_1" data-name="Layer 1" xmlns="http://www.w3.org/2000/svg" xmlns:xlink="http://www.w3.org/1999/xlink" viewBox="0 0 150 150">
  <defs>
    <style>
      .cls-1 {
        fill: none;
      }

      .cls-2 {
        fill: #2c2b32;
      }

      .cls-3 {
        fill: #b5c082;
      }

      .cls-4 {
        fill: #f6e6c4;
      }

      .cls-5 {
        fill: #425636;
      }

      .cls-6 {
        clip-path: url(#clippath);
      }
    </style>
    <clipPath id="clippath">
      <path class="cls-1" d="M149.7555321,83.3111114c0,36.106681-39.1917322,65.3769292-75.2984131,65.3769292S9.0801899,119.4177924,9.0801899,83.3111114,38.3504381,1.3119594,74.457119,1.3119594c81.4456301,0,75.2984131,45.892471,75.2984131,81.9991519Z"/>
    </clipPath>
  </defs>
  <circle class="cls-4" cx="74.457119" cy="83.3111114" r="65.3769292"/>
  <g class="cls-6">
    <g>
      <g>
        <polygon class="cls-2" points="123.3761969 86.3330618 121.1670126 84.1462596 118.9689852 81.9370069 101.5755949 98.242643 100.5326732 66.2706626 99.8934498 46.4886209 90.5519872 46.4886209 89.8903134 66.9434932 89.0044083 94.1830719 69.9624803 76.3410821 65.5552685 80.7370686 63.3684663 82.9463213 71.3979435 91.514063 88.5258977 109.7874035 87.4568294 152.7969503 103.421738 152.7969503 102.0690268 113.6286298 118.0494044 96.5716548 125.5742244 88.5422461 123.3761969 86.3330618"/>
        <circle class="cls-5" cx="93.2173387" cy="34.6749229" r="32.3587547"/>
        <circle class="cls-3" cx="53.9156055" cy="71.5348046" r="26.5043576"/>
        <circle class="cls-3" cx="126.6984073" cy="80.3526924" r="18.3024875"/>
      </g>
      <g>
        <polygon class="cls-2" points="45.8871036 141.8774544 31.3982471 141.8774544 31.891679 127.0072816 31.9141295 126.2447174 32.4187867 110.6680382 33.3046918 83.428528 33.9551404 62.9736556 43.296603 62.9736556 43.9358263 82.7556289 44.978748 114.7276093 45.2367235 122.6785782 45.2367235 122.6898034 45.47218 130.1136646 45.842271 141.1148902 45.8871036 141.8774544"/>
        <path class="cls-5" d="M46.4102975,106.6448009h-15.5352443c-6.8971645,0-12.1732059-6.1450343-11.129681-12.9628003l7.7676125-50.7489237c.841297-5.4965303,5.5691392-9.5557902,11.129681-9.5557902h.0000193c5.5605419,0,10.288384,4.0592599,11.129681,9.5557902l7.7676125,50.7489237c1.0435249,6.817766-4.2325166,12.9628003-11.129681,12.9628003Z"/>
      </g>
    </g>
  </g>
</svg>