<?xml version="1.0" encoding="UTF-8"?>
<svg id="Layer_1" data-name="Layer 1" xmlns="http://www.w3.org/2000/svg" viewBox="0 0 150 150">
  <defs>
    <style>
      .cls-1 {
        fill: #2c2b32;
      }

      .cls-2 {
        fill: #df9e81;
      }

      .cls-3 {
        fill: #b5c082;
      }

      .cls-4 {
        fill: #f6e6c4;
      }

      .cls-5 {
        fill: #b35d38;
      }
    </style>
  </defs>
  <g>
    <rect class="cls-4" x="20" y="62.5407462" width="110" height="65" rx="2" ry="2"/>
    <rect class="cls-3" x="72.6086957" y="62.5407462" width="57.3913043" height="65" rx="2" ry="2"/>
  </g>
  <path class="cls-5" d="M108.1900249,135H41.8099751c-1.0275029,0-1.887834-.778589-1.9900744-1.8009926l-9.8199007-98.1990074h90l-9.8199007,98.1990074c-.1022404,1.0224036-.9625715,1.8009926-1.9900744,1.8009926Z"/>
  <path class="cls-2" d="M22,37.5h106c1.10383,0,2,.89617,2,2v4.0141623c0,3.5796313-2.9062064,6.4858377-6.4858377,6.4858377H26.4858377c-3.5796313,0-6.4858377-2.9062064-6.4858377-6.4858377v-4.0141623c0-1.10383.89617-2,2-2Z"/>
  <path class="cls-5" d="M39.99999,25h70.00002c5.5191447,0,9.99999,4.4808453,9.99999,9.99999v2.50001H30v-2.50001c0-5.5191447,4.4808453-9.99999,9.99999-9.99999Z"/>
  <path class="cls-1" d="M62,15h26c1.10383,0,2,.89617,2,2v8h-30v-8c0-1.10383.89617-2,2-2Z"/>
  <g>
    <rect class="cls-1" x="57.5247656" y="70" width="5" height="40" rx="2.4999975" ry="2.4999975"/>
    <rect class="cls-2" x="72.5247656" y="70" width="5" height="40" rx="2.4999975" ry="2.4999975"/>
    <rect class="cls-2" x="87.5247656" y="70" width="5" height="40" rx="2.4999975" ry="2.4999975"/>
  </g>
</svg>