<?xml version="1.0" encoding="UTF-8"?>
<svg id="Layer_1" data-name="Layer 1" xmlns="http://www.w3.org/2000/svg" viewBox="0 0 150 150">
  <defs>
    <style>
      .cls-1 {
        fill: #f9e9c6;
      }

      .cls-2 {
        fill: #df9e81;
      }

      .cls-3 {
        fill: #b5c082;
      }

      .cls-4 {
        fill: #425636;
      }

      .cls-5 {
        fill: #b35d38;
      }
    </style>
  </defs>
  <circle class="cls-1" cx="75" cy="74.6738949" r="67.5969115"/>
  <g>
    <path class="cls-3" d="M114.3422952,84.4795516l-8.0821392,61.3926805c-.1067215.9907907-.9422324,1.7485135-1.9330825,1.7485135h-58.6531984c-1.0005735,0-1.8360845-.7577228-1.9330825-1.7485135l-8.0821392-61.3926805h78.6836418Z"/>
    <path class="cls-2" d="M48.6850592,55.0100845c0-23.0259882,26.3154151-52.6308302,26.3154151-52.6308302,0,0,26.3154151,29.604842,26.3154151,52.6308302,0,14.5336024-11.7818126,26.3154151-26.3154151,26.3154151s-26.3154151-11.7818126-26.3154151-26.3154151Z"/>
  </g>
  <path class="cls-4" d="M91.7272216,43.2749708c0-10.4766333,11.9732952-23.9465904,11.9732952-23.9465904,0,0,11.9732952,13.4699571,11.9732952,23.9465904,0,6.6126683-5.3606268,11.9732952-11.9732952,11.9732952s-11.9732952-5.3606268-11.9732952-11.9732952Z"/>
  <path class="cls-5" d="M32.3529138,61.346703c0-9.5064377,10.8645002-21.7290005,10.8645002-21.7290005,0,0,10.8645002,12.2225628,10.8645002,21.7290005,0,6.0002978-4.8642024,10.8645002-10.8645002,10.8645002s-10.8645002-4.8642024-10.8645002-10.8645002Z"/>
</svg>