<?xml version="1.0" encoding="UTF-8"?>
<svg id="Layer_1" data-name="Layer 1" xmlns="http://www.w3.org/2000/svg" viewBox="0 0 150 150">
  <defs>
    <style>
      .cls-1 {
        fill: #df9e81;
      }

      .cls-2 {
        fill: #b5c082;
      }

      .cls-3 {
        fill: #f6e6c4;
      }

      .cls-4 {
        fill: #425636;
      }

      .cls-5 {
        fill: #b35d38;
      }
    </style>
  </defs>
  <g>
    <rect class="cls-1" x="4.0879318" y="4.0547807" width="111.8904387" height="111.8904387"/>
    <rect class="cls-2" x="75" y="34.0547807" width="70.9120682" height="111.8904387"/>
  </g>
  <g>
    <path class="cls-5" d="M90.8068204,30.0382944h.0000583c16.090987,0,29.1548269,13.0638399,29.1548269,29.1548269v2.4588724h-58.309712v-2.4588724c0-16.090987,13.0638399-29.1548268,29.1548268-29.1548268Z" transform="translate(136.6519936 -44.9617056) rotate(90)"/>
    <path class="cls-3" d="M45.8451148,43.3863007h.0000583c16.090987,0,29.1548269,13.0638399,29.1548269,29.1548269v2.4588724H16.690288v-2.4588724c0-16.090987,13.0638399-29.1548268,29.1548268-29.1548268Z"/>
    <path class="cls-4" d="M30.0382944,88.3480064h58.309712v2.4588725c0,16.090987-13.0638399,29.1548268-29.1548268,29.1548268h-.0000583c-16.090987,0-29.1548269-13.0638399-29.1548269-29.1548269v-2.4588724h0Z" transform="translate(163.3480064 44.9617057) rotate(90)"/>
    <path class="cls-3" d="M75.0000001,75h58.3097119v2.4588724c0,16.090987-13.0638399,29.1548269-29.1548269,29.1548269h-.0000583c-16.090987,0-29.1548268-13.0638399-29.1548268-29.1548268v-2.4588725h0Z"/>
  </g>
</svg>