<?xml version="1.0" encoding="UTF-8"?>
<svg id="Layer_1" data-name="Layer 1" xmlns="http://www.w3.org/2000/svg" viewBox="0 0 150 150">
  <defs>
    <style>
      .cls-1 {
        fill: #2c2b32;
      }

      .cls-2 {
        fill: #df9e81;
      }

      .cls-3 {
        fill: #b5c082;
      }

      .cls-4 {
        fill: #f6e6c4;
      }

      .cls-5 {
        fill: #425636;
      }

      .cls-6 {
        fill: #b35d38;
      }
    </style>
  </defs>
  <circle class="cls-4" cx="81.3448661" cy="72.2051584" r="64.3712096"/>
  <circle class="cls-4" cx="34.2771069" cy="47.8271325" r="29.9931832"/>
  <circle class="cls-4" cx="50.1464048" cy="22.0121225" r="19.3329599"/>
  <circle class="cls-4" cx="85.3524437" cy="127.9878775" r="19.3329599"/>
  <circle class="cls-4" cx="114.0717242" cy="122.9878775" r="19.3329599"/>
  <g>
    <path class="cls-6" d="M98.9615334,95.3823494s1.911522-16.6833747-12.287439-28.4741066c-11.7241239-14.2543728-28.4160919-12.4210156-28.4160919-12.4210156,0,0,28.0152631-37.1641563,69.4952667-31.9789209,1.8364111.2295618,3.2922363,1.6922444,3.5131647,3.5297141,4.9902048,41.5037105-32.3049005,69.344329-32.3049005,69.344329Z"/>
    <path class="cls-3" d="M56.8964624,56.2335165c-4.5760865,5.8598676-7.8785255,12.5076664-9.7838238,19.5265385-7.6832631-4.4904406-15.8502708-8.4177521-22.3271915-11.3192101-3.8879747-1.7426457-3.0976158-7.4721698,1.1227464-8.1000342,16.0555916-2.4072009,32.349809-1.8535835,32.349809-1.8535835l-1.3615402,1.7462893Z"/>
    <path class="cls-5" d="M47.0199961,120.5385277l-18.5380714,7.2833462c-1.8845818.7404255-3.7433516-1.127076-2.9941022-3.008167l7.3752809-18.5166291c.7083419-1.7783871,1.9057116-3.3532943,3.5281171-4.3692714,2.3634217-1.4800136,5.0586368-1.6944952,7.4162867-.9024563,1.2827455.4200101,2.4583361,1.1422369,3.4289756,2.1174452l3.0180636,3.0322696c.9706395.9752083,1.6875371,2.1543775,2.1015189,3.4390812.7817197,2.3636438.5533796,5.0607712-.9429067,7.4175792-1.0268403,1.6173813-2.6100381,2.806238-4.3931625,3.5068024Z"/>
    <path class="cls-3" d="M97.2093902,96.7361971c-5.8812919,4.5485185-12.5445254,7.8197036-19.5722672,9.6920209,4.4543112,7.7042651,8.3432277,15.8896251,11.2142386,22.3800994,1.7243689,3.8961152,7.4575412,3.1326703,8.1052172-1.084697,2.4825701-16.0441105,2.0054751-32.340748,2.0054751-32.340748l-1.7526637,1.3533247Z"/>
    <path class="cls-2" d="M98.9615334,95.3823494l-1.7528628,1.3531247c-5.8812919,4.5485185-12.5445254,7.8197036-19.5722672,9.6920209-.1473312.0486598-.2864589.0891547-.4337517.1214461-6.9424399,1.8073294-14.2324352,2.2570567-21.4796847,1.2696326-.5049609-.0688-.9736925-.3074906-1.3332056-.6686959l-8.1086604-8.1468278c-.3595141-.3612063-.596002-.8310561-.6624293-1.3363359-.9533673-7.2517924-.4692327-14.5394143,1.3704853-21.4734825.0329827-.1471395.0741305-.2860755.1234816-.4331766,1.9052983-7.0188721,5.2077373-13.6666709,9.7838238-19.5265385l1.3615402-1.7462893s14.7487308-2.949782,29.235635,11.605312c14.0708874,14.137119,11.4678959,29.2898102,11.4678959,29.2898102Z"/>
    <circle class="cls-1" cx="102.0841028" cy="51.568774" r="10.8503818"/>
  </g>
</svg>