<?xml version="1.0" encoding="UTF-8"?>
<svg id="Layer_1" data-name="Layer 1" xmlns="http://www.w3.org/2000/svg" xmlns:xlink="http://www.w3.org/1999/xlink" viewBox="0 0 150 150">
  <defs>
    <style>
      .cls-1 {
        fill: none;
      }

      .cls-2 {
        fill: #2c2b32;
      }

      .cls-3 {
        fill: #df9e81;
      }

      .cls-4 {
        fill: #b5c082;
      }

      .cls-5 {
        fill: #f6e6c4;
      }

      .cls-6 {
        fill: #425636;
      }

      .cls-7 {
        fill: #c56b2f;
      }

      .cls-8 {
        clip-path: url(#clippath);
      }
    </style>
    <clipPath id="clippath">
      <path class="cls-1" d="M117.1153657,97.8823176c-2.0077064,1.1554847-4.4342507,1.3721766-7.164146.7655626-.0143697-.0144579-.0288276-.0144579-.0432855-.0144579-9.5473166-2.1954826-22.5900911-14.5593536-32.6862783-32.0652064-10.5439408-18.2714154-14.6460128-36.5282847-10.9916945-45.5412767.1155749-.2599774.2310617-.505497.3466366-.7510165.1444025-.2888932.2888932-.5633285.4477536-.823306.7799323-1.328803,1.7910145-2.3688009,3.0331583-3.0909898,9.0273617-5.214183,26.894309,8.8107579,39.8937098,31.3141017,12.9994009,22.5178898,16.2059656,44.992406,7.164146,50.206589Z"/>
    </clipPath>
  </defs>
  <circle class="cls-5" cx="81.0776718" cy="64.9464331" r="59.6730915"/>
  <g>
    <path class="cls-4" d="M47.1200921,89.3819772h21.6656681v47.1677558c0,5.7610703-4.6772581,10.4383284-10.4383284,10.4383284h-.7890112c-5.7610704,0-10.4383286-4.6772582-10.4383286-10.4383286v-47.1677556h0Z" transform="translate(-51.3282338 44.81017) rotate(-29.9999563)"/>
    <path class="cls-6" d="M110.3556878,98.7056235c-.1300328-.0289158-.2744353-.0433737-.4044681-.0577434-.0143697-.0144579-.0288276-.0144579-.0432855-.0144579-29.8841817-4.8387188-59.6817043,3.9575813-75.2232243,9.8506677-6.9040804,2.6143204-14.6892983.9677085-19.9179391-4.2609324l-.0289158-.0289158c-3.5098277-3.5098277-5.4886183-8.276257-5.4886183-13.2449204v-.4911273c0-7.3952077,4.4053349-13.9815672,11.1072694-17.1158425,25.7243664-12.06052,42.1613937-44.4146196,45.8734554-52.3154124.1155749-.2599774.2310617-.505497.3466366-.7510165.1444025-.2888932.2888932-.5633285.4477536-.823306.0577434,31.5163358,15.844783,60.9238481,42.0602766,78.4007851l1.2710596.8522217Z"/>
    <path class="cls-7" d="M117.1153657,97.8823176c-2.0077064,1.1554847-4.4342507,1.3721766-7.164146.7655626-.0143697-.0144579-.0288276-.0144579-.0432855-.0144579-9.5473166-2.1954826-22.5900911-14.5593536-32.6862783-32.0652064-10.5439408-18.2714154-14.6460128-36.5282847-10.9916945-45.5412767.1155749-.2599774.2310617-.505497.3466366-.7510165.1444025-.2888932.2888932-.5633285.4477536-.823306.7799323-1.328803,1.7910145-2.3688009,3.0331583-3.0909898,9.0273617-5.214183,26.894309,8.8107579,39.8937098,31.3141017,12.9994009,22.5178898,16.2059656,44.992406,7.164146,50.206589Z"/>
    <g class="cls-8">
      <rect class="cls-3" x="50.7174884" y="51.7313753" width="46.5305025" height="33.4350195" transform="translate(-24.3126349 46.1617816) rotate(-30)"/>
    </g>
    <path class="cls-2" d="M101.9538645,71.6192999c-.7139756.4109106-1.5768974.4879701-2.5476961.2722475-.0051101-.0051415-.0102516-.0051415-.0153931-.0051415-3.3951933-.7807521-8.0334329-5.1775617-11.6238143-11.4029502-3.7496104-6.497636-5.2083792-12.9900992-3.9088395-16.1952773.0411005-.0924525.0821696-.1797636.1232701-.2670747.0513521-.1027355.1027355-.2003295.159229-.2927821.2773576-.4725457.6369162-.8423872,1.0786443-1.0992102,3.2102883-1.854255,9.5640883,3.1332602,14.1869034,11.1358442,4.6228151,8.0077569,5.7631258,16.0000893,2.5476961,17.8543443Z"/>
  </g>
</svg>