<?xml version="1.0" encoding="UTF-8"?>
<svg id="Layer_1" data-name="Layer 1" xmlns="http://www.w3.org/2000/svg" viewBox="0 0 150 150">
  <defs>
    <style>
      .cls-1 {
        fill: #2c2b32;
      }

      .cls-2 {
        fill: #df9e81;
      }

      .cls-3 {
        fill: #f6e6c4;
      }

      .cls-4 {
        fill: #425636;
      }

      .cls-5 {
        fill: #b35d38;
      }
    </style>
  </defs>
  <path class="cls-3" d="M36.8634458,43.0766219h37.9538294c1.10383,0,2,.89617,2,2v34.9175123c0,19.2963757-15.6662089,34.9625846-34.9625846,34.9625846H3.9008613c-1.10383,0-2-.89617-2-2v-34.9175123c0-19.2963757,15.6662089-34.9625846,34.9625846-34.9625846Z" transform="translate(118.3757386 39.6576021) rotate(90)"/>
  <path class="cls-3" d="M67.6215884,47.6270016h40.9263189c21.9152348,0,39.7076249,17.7923901,39.7076249,39.7076249v37.5772149c0,1.10383-.89617,2-2,2h-40.9263189c-21.9152348,0-39.7076249-17.7923901-39.7076249-39.7076249v-37.5772149c0-1.10383.89617-2,2-2Z" transform="translate(194.2079818 -19.6691388) rotate(90)"/>
  <g>
    <g>
      <path class="cls-1" d="M58.6046069,19.1727366c.7436224.8341519,1.4576691,1.6942178,2.1416134,2.5779525l-.2792562-.3614517c1.2603302,1.6313878,2.4173613,3.3418678,3.4640262,5.1179041.2992513.5077853.5892804,1.0209483.8706494,1.5388518.1122296.2081243.2655569.3751509.459982.5010797.1724908.1578553.3749408.2644105.6073498.3196655.2373865.074428.4747729.0850606.7121594.0318977.2376767-.0107788.4590135-.0814238.6640104-.2119351.3813379-.2458536.7170234-.6119482.8207452-1.0673317.1087173-.477316.0563989-.9409719-.1800374-1.3761698-.708382-1.3038876-1.4733105-2.5768614-2.2946484-3.8127563-.8909766-1.3406824-1.8510153-2.6346012-2.8584777-3.8898961-.5176164-.6449484-1.0521216-1.2762164-1.6024191-1.8935077-.1617652-.1741582-.353353-.2972499-.5747636-.3692749-.2128358-.1118186-.4421975-.1630899-.6880849-.1538141-.2458874-.0092758-.4752491.0419956-.6880849.1538141-.2214106.072025-.4129985.1951166-.5747636.3692749-.3124391.3403544-.5443933.7872012-.523089,1.2628485l.0637954.4747729c.0848533.3025464.2379512.5652382.4592936.7880756h0Z"/>
      <path class="cls-1" d="M85.4649454,16.6470396c-1.0662217,1.1960248-2.0692771,2.4475975-3.0229952,3.7349177-.8791048,1.1866078-1.7041517,2.4132156-2.4731231,3.6739697-.4381485.718359-.857745,1.4479143-1.2594269,2.1872727-.2255876.4152291-.3070404.9149764-.1800374,1.3761698.055255.232409.1618102.4348589.3196655.6073498.1259288.1944251.2929554.3477524.5010797.459982.4144805.2189889.9165972.3287614,1.3761698.1800374.4351594-.1408236.8433194-.4084156,1.0673317-.8207452.9874215-1.8175033,2.0853172-3.5747051,3.29097-5.2555125.3394911-.4732865.6876177-.9403186,1.0437057-1.4012434l-.2792562.3614517c.6839443-.8837347,1.397991-1.7438006,2.1416134-2.5779525.1741582-.1617652.2972499-.353353.3692749-.5747636.1118186-.2128358.1630899-.4421975.1538141-.6880849.0092758-.2458874-.0419956-.4752491-.1538141-.6880849-.072025-.2214106-.1951166-.4129985-.3692749-.5747636-.3403544-.3124391-.7872012-.5443933-1.2628485-.523089-.457777.0205039-.9478147.1697025-1.2628485.523089h0Z"/>
    </g>
    <path class="cls-5" d="M54.548231,109.9760843h37.4987957c.831139,0,1.4174819.8348939,1.116352,1.6095634-1.1959243,3.0765659-3.0350419,5.9537617-5.5100583,8.4287161l-13.5146142,13.5146825c-.4644764.4644788-1.2175434.4644807-1.6820221.0000043l-13.5147551-13.5146868c-2.4748904-2.4749523-4.3140943-5.3521453-5.5100472-8.4287083-.3011377-.7746703.2852067-1.6095712,1.1163492-1.6095712Z"/>
    <path class="cls-2" d="M90.2934309,104.0590012h-33.9916125c-2.5989897,0-4.6630368-2.2812114-4.2960241-4.854157.0087876-.0616052.0178104-.1231853.0270684-.1847389.3155594-2.0980545,2.153087-3.6316162,4.2747398-3.6316162h33.9800444c2.1216527,0,3.9591803,1.5335618,4.2747398,3.6316162.009258.0615536.0182808.1231337.0270684.1847389.3670127,2.5729456-1.6970344,4.854157-4.2960241,4.854157Z"/>
    <path class="cls-4" d="M134.1848395,65.3246688c.4644756.4644769.4644761,1.2175412.0000011,1.6820187l-12.6344961,12.6345642c-8.5218772,8.5218047-22.1817658,9.0273084-31.3041352,1.147737l-12.4706645-10.757861c-.5113475-.4400608-1.2308927.2259831-.8205951.7730828l11.9234559,15.8602653c.2548601.2938017.5008296.5920642.7381067.8945779.6097786.7774298.0437327,1.9182688-.9443094,1.9182688h-30.7491566c-.988042,0-1.5540879-1.140839-.9443094-1.9182688.2372771-.3025136.4832466-.6007762.7381067-.8945779l11.9294086-15.8602653c.4044901-.5470997-.3092476-1.2131436-.8265478-.7730828l-12.4647119,10.757861c-9.128322,7.8795714-22.7822579,7.3740677-31.3041352-1.147737l-12.6344961-12.6345642c-.464475-.4644775-.4644745-1.2175419.0000011-1.6820187l12.634495-12.634529c8.5218772-8.521841,22.1758132-9.021392,31.3041352-1.147737l11.8759799,10.2523573c2.9138966,2.5095517,7.2253602,2.5095517,10.1392568,0l11.8759799-10.2523573c9.1223693-7.873655,22.7822579-7.374104,31.3041352,1.147737l12.634495,12.634529Z"/>
    <circle class="cls-2" cx="73.2976247" cy="37.0762428" r="14.6298091"/>
  </g>
</svg>