<?xml version="1.0" encoding="UTF-8"?>
<svg id="Layer_1" data-name="Layer 1" xmlns="http://www.w3.org/2000/svg" xmlns:xlink="http://www.w3.org/1999/xlink" viewBox="0 0 150 150">
  <defs>
    <style>
      .cls-1 {
        fill: none;
      }

      .cls-2 {
        fill: #2c2b32;
      }

      .cls-3 {
        fill: #df9e81;
      }

      .cls-4 {
        fill: #b5c082;
      }

      .cls-5 {
        fill: #f6e6c4;
      }

      .cls-6 {
        fill: #425636;
      }

      .cls-7 {
        fill: #b35d38;
      }

      .cls-8 {
        clip-path: url(#clippath);
      }
    </style>
    <clipPath id="clippath">
      <path class="cls-1" d="M94.4622094,53.0399728c-11.4852727-3.276321-21.8620639-1.1410346-26.0021736.0057055-1.091288.3022683-6.0909783.9942927-6.4905212-.0652549l-1.6831802-2.3422453c-.4534726-1.2025633-7.4492064-17.9860761-6.9548902-19.172435,16.5930452-39.8233085,47.381258-17.8578543,60.0556009-6.222392.9180122.8427653-12.6818859,25.3198835-13.0810743,26.5004123h0c-.3753577,1.1100537-4.7169144,1.6176567-5.8437613,1.2962092Z"/>
    </clipPath>
  </defs>
  <g>
    <rect class="cls-5" x="19.0556004" y="26.1079641" width="91.8072057" height="93.1835453"/>
    <rect class="cls-7" x="60.2781553" y="72.0826648" width="69.2833887" height="69.2833887"/>
  </g>
  <g>
    <path class="cls-3" d="M129.4424694,63.9189362c-.9527538-.2975596-1.9381888.0780632-2.4539996.930264-2.6505847,4.3831848-7.3758874,5.2316884-9.3933462,5.5938249-.7459391.1340579-1.0864095.1953782-1.4166502.4724977-.3976912.3339188-.5489326.8779281-.3805268,1.3688162l3.3184415,9.6778218c.1119895.3265818.353152.5922456.6666499.7353072.1655322.0752088.3433247.1132155.5211172.1132155.1598044,0,.3200303-.0306506.4712525-.0919709,8.1831276-3.3135374,9.8809777-11.8452961,10.1650318-16.6359802.0588683-.9972929-.5431856-1.8666581-1.49797-2.1637962Z"/>
    <path class="cls-3" d="M57.8911455,123.4466351h-7.5863802c-1.372341,0-2.4848609-1.1125008-2.4848609-2.4848609l-2.0926677-14.282936c0-1.3723601,1.1125008-2.4848609,2.4848417-2.4848609h11.7717347c1.372341,0,2.4848609,1.1125008,2.4848609,2.4848609l-2.0926869,14.282936c0,1.3723601-1.1125008,2.4848609-2.4848417,2.4848609Z"/>
    <path class="cls-3" d="M109.0571581,123.4466351h-7.586361c-1.3723601,0-2.4848609-1.1125008-2.4848609-2.4848609l-2.0926869-14.282936c0-1.3723601,1.1125199-2.4848609,2.4848609-2.4848609h11.7717347c1.372341,0,2.4848417,1.1125008,2.4848417,2.4848609l-2.0926677,14.282936c0,1.3723601-1.1125199,2.4848609-2.4848609,2.4848609Z"/>
    <path class="cls-3" d="M124.0539458,82.6377377c0,21.2659022-20.2844134,38.5053155-45.3065239,38.5053155-25.0220913,0-45.3065047-17.2394134-45.3065047-38.5053155,0-21.265883,15.4858176-39.7609161,45.3065047-39.7609161,29.8499392,0,45.3065239,18.4950331,45.3065239,39.7609161Z"/>
    <path class="cls-3" d="M45.7272368,102.3035843l-6.9785219-.0303249c-6.0402505.2814297-8.709168-1.3795439-9.8707289-5.6468887l-3.8242525-14.0496276c-.77908-2.8622269.9253024-5.8414815,3.7875101-6.6205615l8.6664105-2.3589637c4.2673448-1.1615608,8.709168,1.3795439,9.8707289,5.6468887l3.5474012,12.3319314c1.1615417,4.2673448-.9312026,9.5659856-5.1985475,10.7275464Z"/>
    <path class="cls-3" d="M60.2863344,50.6381781c-.1213954-.1009553-12.2626036-10.0562989-26.002354-5.0281495l13.2300697,23.9914275c.0335374.0608167.1279278.0474126.1933285.0474126.135284,0,.2672921-.0658029.3474051-.1847463l12.3100354-18.2708817c.1197479-.1778116.0858216-.4173267-.0784846-.5550627Z"/>
    <circle class="cls-2" cx="49.7170982" cy="73.5892295" r="2.7342608"/>
    <path class="cls-7" d="M95.794737,53.3505609c-13.6546331-3.987312-24.1049238-1.258095-28.6697731.0062909-1.2032448.3332784-2.4602122-.3069402-2.9007449-1.4751883l-.0028972-.0076831c-.4999949-1.325936.2427486-2.7940845,1.6072473-3.1765039,5.1314788-1.4381671,17.4633518-3.9502073,31.3122957.0162336,1.320933.3783251,2.0532748,1.7913685,1.6131331,3.0930094l-.0000015.0000046c-.4138661,1.2239356-1.7190397,1.9059954-2.9592593,1.5438368Z"/>
    <g class="cls-8">
      <g>
        <circle class="cls-6" cx="81.2454531" cy="33.9360923" r="23.6204432"/>
        <circle class="cls-4" cx="81.2454473" cy="33.9360923" r="17.1068079"/>
      </g>
    </g>
  </g>
</svg>