<?xml version="1.0" encoding="UTF-8"?>
<svg id="Layer_1" data-name="Layer 1" xmlns="http://www.w3.org/2000/svg" viewBox="0 0 150 150">
  <defs>
    <style>
      .cls-1 {
        fill: #df9e81;
      }

      .cls-2 {
        fill: #b5c082;
      }

      .cls-3 {
        fill: #f6e6c4;
      }

      .cls-4 {
        fill: #425636;
      }

      .cls-5 {
        fill: #b35d38;
      }
    </style>
  </defs>
  <g>
    <rect class="cls-1" x="4.0879318" y="4.0547807" width="111.8904387" height="111.8904387"/>
    <rect class="cls-2" x="34.0216295" y="34.0547807" width="111.8904387" height="111.8904387"/>
  </g>
  <g>
    <path class="cls-5" d="M140.4932978,74.8657919l-8.8071615-28.0823373c-.0176873-.0572016-.035751-.1141209-.0536892-.1712284l-.0444065-.1414986-.0010035.0072129c-5.0441819-15.8653084-20.0502725-27.2905496-37.6720446-26.9148792-20.002837.4264311-37.2748694,17.6212859-37.7861019,37.6221352-.3468499,13.5697418,6.3077265,25.6014344,16.6060644,32.7578254,1.5016692,1.043521,2.397383,2.7548863,2.3973834,4.5835324l.000002,10.0124313v14.6031177c0,.5675396.4600817,1.0276213,1.0276213,1.0276213h36.898907c.5675396,0,1.0276213-.4600817,1.0276213-1.0276213v-13.5754964c0-.5675396.4600817-1.0276213,1.0276213-1.0276213h8.2491952c3.8707974,0,7.0086987-3.1379013,7.0086987-7.0086987v-20.3017623c0-.5675396.4600817-1.0276213,1.0276213-1.0276213h8.1131574c.6937011,0,1.1881023-.6731987.9805137-1.3351112Z"/>
    <path class="cls-3" d="M119.9408709,80.0038987l-8.8071615-28.0823373c-.0176873-.0572016-.035751-.1141209-.0536892-.1712284l-.0444065-.1414986-.0010035.0072129c-5.0441819-15.8653084-20.0502725-27.2905496-37.6720446-26.9148792-20.002837.4264311-37.2748694,17.6212859-37.7861019,37.6221352-.3468499,13.5697418,6.3077265,25.6014344,16.6060644,32.7578254,1.5016692,1.043521,2.397383,2.7548863,2.3973834,4.5835324l.000002,10.0124313v14.6031177c0,.5675396.4600817,1.0276213,1.0276213,1.0276213h36.898907c.5675396,0,1.0276213-.4600817,1.0276213-1.0276213v-13.5754964c0-.5675396.4600817-1.0276213,1.0276213-1.0276213h8.2491952c3.8707974,0,7.0086987-3.1379013,7.0086987-7.0086987v-20.3017623c0-.5675396.4600817-1.0276213,1.0276213-1.0276213h8.1131574c.6937011,0,1.1881023-.6731987.9805137-1.3351112Z"/>
    <path class="cls-4" d="M99.3884441,85.1420054l-8.8071615-28.0823373c-.0176873-.0572016-.035751-.1141209-.0536892-.1712284l-.0444065-.1414986-.0010035.0072129c-5.0441819-15.8653084-20.0502725-27.2905496-37.6720446-26.9148792-20.002837.4264311-37.2748694,17.6212859-37.7861019,37.6221352-.3468499,13.5697418,6.3077265,25.6014344,16.6060644,32.7578254,1.5016692,1.043521,2.397383,2.7548863,2.3973834,4.5835324l.000002,10.0124313v14.6031177c0,.5675396.4600817,1.0276213,1.0276213,1.0276213h36.898907c.5675396,0,1.0276213-.4600817,1.0276213-1.0276213v-13.5754964c0-.5675396.4600817-1.0276213,1.0276213-1.0276213h8.2491952c3.8707974,0,7.0086987-3.1379013,7.0086987-7.0086987v-20.3017623c0-.5675396.4600817-1.0276213,1.0276213-1.0276213h8.1131574c.6937011,0,1.1881023-.6731987.9805137-1.3351112Z"/>
  </g>
</svg>