<?xml version="1.0" encoding="UTF-8"?>
<svg id="Layer_1" data-name="Layer 1" xmlns="http://www.w3.org/2000/svg" viewBox="0 0 150 150">
  <defs>
    <style>
      .cls-1 {
        fill: #2c2b32;
      }

      .cls-2 {
        fill: #df9e81;
      }

      .cls-3 {
        fill: #b5c082;
      }

      .cls-4 {
        fill: #f6e6c4;
      }

      .cls-5 {
        fill: #425636;
      }

      .cls-6 {
        fill: #b35d38;
      }
    </style>
  </defs>
  <circle class="cls-4" cx="75" cy="72.9929747" r="54.2254401"/>
  <g>
    <path class="cls-6" d="M128.7033498,106.8916894c0-15.0045295-12.1635745-27.168104-27.168104-27.168104h-16.9047004v.0221907l-13.6583699.0216673-10.5426714.0167477c-.9839268.0015701-1.792631.7686143-1.8349189,1.7408178l-.2043218,4.6945871c-.1668489,3.8321857,2.9335674,7.0273311,6.8127513,7.02126l6.2841523-.0100486,12.3128451-.0195137c.4584778-.0007266.8305333.3707397.8305333.8292181v.1657449c0,.4579651-.371254.8292191-.8292191.8292191h-13.2528673l-36.0905184-.0000051c-3.2460082-.0000005-6.0766076,2.5013434-6.1739294,5.7458923-.1007028,3.3572645,2.590796,6.1104311,5.9253083,6.1104311l35.5099228.0001023c.4579641.0000013.8292167.371255.8292167.8292191v.1205875c0,.4579651-.3712541.8292192-.8292192.8292191l-42.2457453-.0000051c-3.2459984-.0000004-6.076659,2.5012471-6.174101,5.7457826-.1008272,3.3572538,2.5907163,6.1105409,5.9253016,6.1105409h42.4945448c.4579651,0,.8292191.371254.8292191.8292191v.0133999c0,.4579651-.3712541.8292192-.8292192.8292191l-35.2611207-.000005c-3.2459984-.0000005-6.0766591,2.501247-6.1741011,5.7457825-.1008272,3.3572538,2.5907163,6.1105409,5.9253016,6.1105409h35.5099204c.4579651,0,.8292191.371254.8292191.8292191v.0000017c0,.4579651-.3712542.8292192-.8292193.8292191l-18.3959864-.0000046c-3.2459985-.0000008-6.0766594,2.5012466-6.1741014,5.7457822-.1008273,3.3572538,2.5907163,6.1105409,5.9253016,6.1105409h50.4532559c15.0153515,0,27.1835956-12.1803862,27.1683133-27.1958424l-.0242842-13.4824145h.0316113v-.0002093Z"/>
    <path class="cls-2" d="M128.667953,106.8889679l.0171664,6.7568558h-24.6096849c-10.7442717,0-19.4476279-8.7033562-19.4476279-19.4390447v-.1628713c0-.4630737-.3688679-.8317322-.8319415-.8317322l-12.3047378.0170617-6.2854084.0085832c-3.8844175.0085832-6.9798095-3.1898071-6.8169382-7.0142469l.2057873-4.6989833c.042916-.9688539.8488986-1.7407131,1.8349189-1.7407131l10.5384844-.0171664,13.6598353-.0170617v-.0257496h16.909306c2.649694,0,5.204973.3773464,7.6231302,1.0890186.1542881.0428113.3085762.0857272.4544905.1372264,1.9121676.5916122,3.7387126,1.3975948,5.4448836,2.3752412.5660719.3257426,1.1147682.6688609,1.6550905,1.0375194,2.709567,1.8264404,5.0762251,4.1415993,6.9712263,6.7997718.6345281.8832313,1.2091833,1.8093786,1.7235467,2.7696494,0,.0085832.0085832.0085832.0085832.0085832,2.0922053,3.8500848,3.2842222,8.2576583,3.2842222,12.9480584h-.0343328Z"/>
    <path class="cls-2" d="M128.6851194,106.8718015v6.7740222h-24.6096849c-10.7442717,0-20.036423-8.7033562-20.036423-19.4390447v-14.4828796h17.4981011c2.649694,0,5.204973.3773464,7.6231302,1.0890186.1542881.0428113.3085762.0857272.4544905.1372264,1.9121676.5916122,3.7387126,1.3975948,5.4448836,2.3752412.5660719.3257426,1.1147682.6688609,1.6550905,1.0375194,2.709567,1.8264404,5.0762251,4.1415993,6.9712263,6.7997718.6259449.8918145,1.2006001,1.8093786,1.7235467,2.7696494,0,.0085832.0085832.0085832.0085832.0085832,2.0838314,3.8500848,3.2670558,8.2490751,3.2670558,12.9308921Z"/>
    <path class="cls-1" d="M83.8000122,93.2112936h5.4957153l-5.2309928,1.7803785s.0001647-.0002286-.2647225-1.7803785Z"/>
  </g>
  <g>
    <g>
      <path class="cls-5" d="M75.0001305,2.4298445v48.2311263l-7.1539029-7.1539541c-9.3669994-9.3669994-9.3669994-24.5562187,0-33.9232181l7.1539029-7.1539541Z"/>
      <path class="cls-3" d="M82.1541016,43.5070167l-7.1539712,7.1539541V2.4298445l7.1539712,7.1539541c9.3669994,9.3669994,9.3669994,24.5562187,0,33.9232181Z"/>
    </g>
    <g>
      <path class="cls-5" d="M39.4969298,38.6242402l34.1045565,34.1045565-10.1171827-.0000362c-13.2469376,0-23.9873375-10.7403999-23.9873375-23.9873375l-.0000362-10.1171827Z"/>
      <path class="cls-3" d="M73.6014983,62.6115657l-.0000121,10.117231-34.1045565-34.1045565,10.117231-.0000121c13.2469376,0,23.9873375,10.7403999,23.9873375,23.9873375Z"/>
    </g>
    <g>
      <path class="cls-5" d="M110.5030702,38.8884183l-34.1045565,34.1045565,10.1171827-.0000362c13.2469376,0,23.9873375-10.7403999,23.9873375-23.9873375l.0000362-10.1171827Z"/>
      <path class="cls-3" d="M76.3985017,62.8757437l.0000121,10.117231,34.1045565-34.1045565-10.117231-.0000121c-13.2469376,0-23.9873375,10.7403999-23.9873375,23.9873375Z"/>
    </g>
  </g>
</svg>