<?xml version="1.0" encoding="UTF-8"?>
<svg id="Layer_1" data-name="Layer 1" xmlns="http://www.w3.org/2000/svg" viewBox="0 0 150 150">
  <defs>
    <style>
      .cls-1 {
        fill: #df9e81;
      }

      .cls-2 {
        fill: #f6e6c4;
      }

      .cls-3 {
        fill: #425636;
      }

      .cls-4 {
        fill: #b35d38;
      }
    </style>
  </defs>
  <path class="cls-2" d="M78.4472479,13.4907914h64.2452458c1.10383,0,2,.89617,2,2v57.7277044c0,34.9310953-28.3596175,63.2907127-63.2907127,63.2907127H17.1565352c-1.10383,0-2-.89617-2-2v-57.7277044c0-34.9310953,28.3596175-63.2907127,63.2907127-63.2907127Z"/>
  <g>
    <path class="cls-4" d="M65.5788665,76.8932149l20.127501-3.8686623L72.2913157,3.2300227S40.2622466,9.8307014,10.3245475,27.5847614c-.4039056.2413551-.6212926.6924952-.5560724,1.1536339,1.1716223,8.0729068,13.3038233,77.8567038,85.1601997,92.2670828l-4.1689007-21.6895519c-12.3468195-.2232924-23.281012-9.039583-25.7047446-21.6495442-.0682832-.3552572.1629692-.7038054.523837-.773167ZM38.3189963,46.6655447c-.2621561-.1776863-.4245499-.4446834-.4798327-.7323037-.0563679-.2932653-.0045332-.6014745.1730777-.8636517l.5046365-.7519872c6.5610244-9.6761101,19.7236806-12.2060751,29.4043229-5.6517397.2632411.1833313.4314242.4492513.4867071.7368716s-.0023412.5969065-.1799454.8591182l-.5101504.7530113c-6.5555104,9.675086-19.718029,12.2050245-29.3988156,5.6506811Z"/>
    <path class="cls-1" d="M110.7860058,94.9203896l-20.127501,3.8686623-13.4150518-69.7945299s32.1938328-5.7434628,66.5800952-.3529688c.4646003.0744215.8337439.4128259.9441242.8652844,1.9046479,7.9320136,16.5071618,77.2409972-44.8868604,117.2631397l-4.1689007-21.6895519c11.3842652-4.7845916,18.2709663-17.0261966,15.8472336-29.6361578-.0682832-.3552572-.4122714-.5932397-.7731392-.5238781ZM124.8974734,56.7408263c.1776042-.2622117.2294456-.5703864.1741627-.8580067-.0563679-.2932653-.2187683-.5602968-.4809177-.7379487l-.747455-.5113255c-9.6806423-6.5543354-22.8432986-4.0243704-29.4043229,5.6517397-.1765192.2678567-.2341366.5771773-.1788538.8647976s.2234594.5535059.4856154.7311922l.7529557.5102325c9.6751416,6.5554284,22.8376602,4.0254899,29.3988156-5.6506811Z"/>
  </g>
  <path class="cls-3" d="M43.0488716,99.1306646c.7550706,0,1.3671763.6121057,1.3671763,1.3671763v27.3845804c0,1.0595115-.1914247,2.0780512-.5469039,3.0145636-1.2748593,3.4378012-4.6806534,5.832485-8.6139549,5.5961558-4.3542102-.2616191-7.9044071-3.8850027-8.0852596-8.2433148-.2046556-4.9319384,3.7326785-8.9943669,8.6191561-8.9943669.8738956,0,1.7155767.1289632,2.5081281.3699891.8787441.2672383,1.7642977-.3850191,1.7642977-1.3035002v-13.469654c0-.7550706-.6121057-1.3671763-1.3671763-1.3671763h-17.7048657c-.7550706,0-1.3671763.6121057-1.3671763,1.3671763v23.0301274c0,1.0595115-.1914247,2.0780512-.5469039,3.0145636-1.2748593,3.4378012-4.6806534,5.832485-8.6139549,5.5961558-4.3542102-.2616191-7.9044071-3.8850027-8.0852596-8.2433148-.2046556-4.9319384,3.7326785-8.9943669,8.6191561-8.9943669.8738956,0,1.7155767.1289632,2.5081281.3699891.8787441.2672383,1.7642977-.3850191,1.7642977-1.3035002v-17.824107c0-.7550706.6121057-1.3671763,1.3671763-1.3671763h26.4139386Z"/>
</svg>