<?xml version="1.0" encoding="UTF-8"?>
<svg id="Layer_1" data-name="Layer 1" xmlns="http://www.w3.org/2000/svg" viewBox="0 0 150 150">
  <defs>
    <style>
      .cls-1 {
        fill: #df9e81;
      }

      .cls-2 {
        fill: #b5c082;
      }

      .cls-3 {
        fill: #f6e6c4;
      }

      .cls-4 {
        fill: #b35d38;
      }
    </style>
  </defs>
  <rect class="cls-3" x="6.0305427" y="21.7612168" width="69.046119" height="97.4300714"/>
  <rect class="cls-2" x="74.975899" y="60.0982334" width="68.9935583" height="68.0725871"/>
  <g>
    <path class="cls-4" d="M94.6321965,19.6695289h.0000512c14.0589762,0,25.4730811,11.4141049,25.4730811,25.4730811v80.2012924c0,.4501452-.3654608.815606-.815606.815606h-49.3150009c-.4501452,0-.815606-.3654608-.815606-.815606V45.1426095c0-14.0589759,11.4141047-25.4730806,25.4730806-25.4730806Z" transform="translate(79.2754898 -45.5589184) rotate(45.0000014)"/>
    <path class="cls-1" d="M35.6770176,27.8037224h24.7105895c.4501454,0,.8156063.3654609.8156063.8156063v24.604481c0,14.0882628-11.437882,25.5261448-25.5261448,25.5261448h-.0000512c-14.0296893,0-25.420017-11.3903277-25.420017-25.420017v-.1061981c0-14.0296893,11.3903277-25.4200171,25.4200171-25.4200171Z" transform="translate(48.1375197 -9.6605763) rotate(44.9999999)"/>
  </g>
</svg>