<?xml version="1.0" encoding="UTF-8"?>
<svg id="Layer_1" data-name="Layer 1" xmlns="http://www.w3.org/2000/svg" viewBox="0 0 150 150">
  <defs>
    <style>
      .cls-1 {
        fill: #f9e9c6;
      }

      .cls-2 {
        fill: #df9e81;
      }

      .cls-3 {
        fill: #b5c082;
      }

      .cls-4 {
        fill: #425636;
      }

      .cls-5 {
        fill: #c56b2f;
      }
    </style>
  </defs>
  <path class="cls-3" d="M63.3900735,8.7436872h73.7173711c1.10383,0,2,.89617,2,2v68.5208989c0,28.9741691-23.5233492,52.4975182-52.4975182,52.4975182H12.8925553c-1.10383,0-2-.89617-2-2V61.2412054c0-28.9741691,23.5233492-52.4975182,52.4975182-52.4975182Z"/>
  <g>
    <path class="cls-1" d="M108.2297298,63.5386481c0-19.0978186-15.3862527-34.6020202-34.4388764-34.7928926-18.77329-.188074-34.5260755,14.8770011-35.1318666,33.6414571-.3269885,10.1285089,3.6776095,19.3238928,10.3011786,25.8786894,4.0137703,3.9720953,6.2961227,9.3666301,6.2961227,15.0135667v.0000101h37.9768341v-1.6712299c0-5.320244,2.0066656-10.4488634,5.6380162-14.3370878,5.8044507-6.2150449,9.3585914-14.5572363,9.3585914-23.732513Z"/>
    <path class="cls-4" d="M89.6822974,53.9570539c-1.1297552-2.2691297-3.4085043-3.6742541-5.9433838-3.6742541s-4.8136286,1.4051243-5.9338803,3.655305l-3.5698317,6.2661544-3.0381583-5.2408216-.5031629-1.0063838c-1.1298131-2.2691297-3.4084464-3.6742541-5.9433838-3.6742541s-4.8135707,1.4051243-5.9433838,3.6742541c-.4557035.9209684-.7025622,1.9463012-.7025622,3.0191514l4.9179931,52.9492194h22.4443808l4.9084316-52.8447391.0095035-.1519398c0-1.0253907-.2468587-2.0507235-.7025622-2.9716919ZM66.0511985,106.6024517l-4.6236749-49.7306688c.0095035-.4937174.1329328-.9873768.3512811-1.4241313.5791328-1.1582656,1.6899969-1.8418788,2.9716919-1.8418788s2.3925591.6836131,2.9716919,1.8418788l.5411768,1.0728502,3.7805388,6.533044c.3396326.5869096.340511,1.3103912.0023047,1.8981239l-2.567615,4.4619835c-1.0253328,2.0507235-.6265923,4.5192525.9969383,6.1427251,1.0063838,1.0063838,2.3450417,1.5665676,3.769173,1.5665676s2.7627312-.5601838,3.769173-1.5665676c1.6234726-1.6234726,2.022271-4.0920016.9494209-6.218695l-2.5368297-4.3867602c-.3395938-.5872355-.3401225-1.3110305-.001387-1.8987615l4.0763898-7.0728367.2155863-.4313232c.5415773-1.083533,1.5986142-1.8650155,2.8078792-1.9359228,1.3712787-.0804073,2.5745334.6133033,3.1856681,1.8355727.2183483.4367545.3417776.9304139.3512811,1.4241313l-4.6236749,49.7306688h-16.3870132ZM75.9917229,73.5436107c-.9305298.9399174-2.5635058.9399174-3.4939777,0-.7595251-.7500216-.9494209-1.8988417-.5126664-2.7817961l.6141043-1.0630678c.7312564-1.2658683,2.5586992-1.2652401,3.2890851.0011307l.5686617.9859672c.4842139.9589243.2942602,2.1077444-.4652069,2.857766Z"/>
    <rect class="cls-5" x="50.5091838" y="103.2794787" width="47.4710426" height="9.4942085" rx="4.7470995" ry="4.7470995"/>
    <rect class="cls-2" x="50.5091838" y="112.7736873" width="47.4710426" height="9.4942085" rx="4.7470995" ry="4.7470995"/>
    <path class="cls-5" d="M60.0033923,122.2678958h28.4826255v4.4942135c0,2.7595724-2.2404226,4.999995-4.999995,4.999995h-18.4826355c-2.7595724,0-4.999995-2.2404226-4.999995-4.999995v-4.4942135h0Z"/>
    <path class="cls-2" d="M64.7504966,131.7621043h18.988417v.0000096c0,5.239991-4.2542079,9.4941989-9.4941989,9.4941989h-.0000191c-5.2399911,0-9.494199-4.2542079-9.494199-9.494199v-.0000096h0Z"/>
  </g>
</svg>