<?xml version="1.0" encoding="UTF-8"?>
<svg id="Layer_1" data-name="Layer 1" xmlns="http://www.w3.org/2000/svg" xmlns:xlink="http://www.w3.org/1999/xlink" viewBox="0 0 150 150">
  <defs>
    <style>
      .cls-1 {
        fill: none;
      }

      .cls-2 {
        fill: #2c2b32;
      }

      .cls-3 {
        fill: #f9e9c6;
      }

      .cls-4 {
        fill: #df9e81;
      }

      .cls-5 {
        fill: #b35d38;
      }

      .cls-6 {
        clip-path: url(#clippath);
      }
    </style>
    <clipPath id="clippath">
      <circle class="cls-1" cx="75" cy="75" r="69.5527234"/>
    </clipPath>
  </defs>
  <g class="cls-6">
    <circle class="cls-4" cx="75" cy="75" r="69.5527234"/>
    <polygon class="cls-5" points="68.7714855 19.5917233 83.4946724 19.5917233 98.4713718 4.6150239 141.2458718 5.4755769 147.2086532 61.0864265 122.3432836 85.9517961 66.8498405 30.4583531 68.7714855 19.5917233"/>
    <path class="cls-3" d="M-18.2871776,37.9265455l99.4463719,98.7312411c2.88077,2.8506574,7.523299,2.8384617,10.3890522-.0272915l.0000104-.0000104c2.8764336-2.8764336,2.8764336-7.5400539,0-10.4164875l-4.2904389-4.2904389c-.4958588-.4958588-.4958588-1.2998047,0-1.7956634l.2565254-.2565254c.4958588-.4958588,1.2998047-.4958588,1.7956634,0l6.4893441,6.4893441c3.0459896,3.0459896,7.9845144,3.0459896,11.030504,0l.000011-.000011c3.0459896-3.0459896,3.0459896-7.9845144,0-11.030504l-6.2328205-6.2328205c-.4958588-.4958588-.4958588-1.2998047,0-1.7956634l.2565254-.2565254c.4958588-.4958588,1.2998047-.4958588,1.7956634,0l7.7552402,7.7552401c2.9397341,2.9397341,7.7059848,2.9397341,10.6457189,0l.0000107-.0000107c2.9397341-2.9397341,2.9397341-7.7059848,0-10.645719l-7.7552401-7.7552401c-.4958588-.4958588-.4958588-1.2998047,0-1.7956634l.0000018-.0000018c.4958588-.4958588,1.2998047-.4958588,1.7956634,0l4.1946409,4.1946409c3.1378162,3.1378162,8.2252215,3.1378162,11.3630377,0l.0000114-.0000114c3.1409339-3.1409339,3.1373558-8.2344963-.0079878-11.3710143L38.4259195-4.5657481,12.3529261,8.7966493l-30.6401038,29.1298963Z"/>
    <rect class="cls-5" x="15.7611422" y="80.6760778" width="24.490159" height="15.7773702" rx="7.8886772" ry="7.8886772" transform="translate(-54.4219119 45.7434077) rotate(-45)"/>
    <path class="cls-5" d="M56.6044657,24.4019508h13.6605554c5.3853247,0,9.7575251,4.3722004,9.7575251,9.7575251v9.7575435h-23.4180805c-5.3853243,0-9.7575243-4.3722001-9.7575243-9.7575243v-.00002c0-5.3853242,4.3722-9.7575243,9.7575243-9.7575243Z" transform="translate(-5.5747973 54.8602189) rotate(-44.9999999)"/>
    <rect class="cls-5" x="24.8060974" y="95.0744423" width="28.9250686" height="15.7773702" rx="7.8886764" ry="7.8886764" transform="translate(-61.3044096 57.9243174) rotate(-44.9999999)"/>
    <rect class="cls-5" x="40.2380239" y="106.6843634" width="25.7588155" height="15.7773702" rx="7.8886767" ry="7.8886767" transform="translate(-65.4576439 71.1173649) rotate(-44.9999999)"/>
    <polygon class="cls-5" points="73.8117194 37.2002802 89.9757996 46.8613033 77.3139771 33.9487517 73.8117194 37.2002802"/>
    <polygon class="cls-2" points="67.5158108 43.7865074 74.1505305 37.2661794 89.9757996 46.8613033 114.6710133 71.4810309 67.5158108 43.7865074"/>
    <rect class="cls-5" x="55.7216553" y="118.2495124" width="22.5283951" height="15.7773702" rx="7.8886767" ry="7.8886767" transform="translate(-69.5734716 84.3111695) rotate(-44.9999983)"/>
  </g>
</svg>