<?xml version="1.0" encoding="UTF-8"?>
<svg id="Layer_1" data-name="Layer 1" xmlns="http://www.w3.org/2000/svg" viewBox="0 0 150 150">
  <defs>
    <style>
      .cls-1 {
        fill: #2c2b32;
      }

      .cls-2 {
        fill: #df9e81;
      }

      .cls-3 {
        fill: #b5c082;
      }

      .cls-4 {
        fill: #f6e6c4;
      }

      .cls-5 {
        fill: #425636;
      }

      .cls-6 {
        fill: #b35d38;
      }

      .cls-7 {
        fill: #c2572c;
      }
    </style>
  </defs>
  <path class="cls-3" d="M125,44.25v-16c0-1.1045695-.8954305-2-2-2h-31c-1.1045695,0-2,.8954305-2,2v16c0,1.1045695-.8954305,2-2,2h-6c-1.1045695,0-2,.8954305-2,2v83h55V48.25c0-1.1045695-.8954305-2-2-2h-6c-1.1045695,0-2-.8954305-2-2Z"/>
  <path class="cls-5" d="M39.5,11.25h51c1.10383,0,2,.89617,2,2v83h-55V13.25c0-1.10383.89617-2,2-2Z"/>
  <path class="cls-4" d="M14.5,43.75h51c1.10383,0,2,.89617,2,2v83H12.5V45.75c0-1.10383.89617-2,2-2Z"/>
  <path class="cls-6" d="M87.5,98.75l-40-40L8.0857864,98.1642136c-.3750728.3750728-.5857864.8837806-.5857864,1.4142136v37.1715729c0,1.1045695.8954305,2,2,2h78v-40Z"/>
  <path class="cls-4" d="M47.5,58.75h54.1715729c.530433,0,1.0391408.2107137,1.4142136.5857864l39.4142136,39.4142136v38c0,1.1045695-.8954305,2-2,2h-53v-40l-40-40Z"/>
  <polygon class="cls-2" points="47.5 58.75 102.5 58.75 142.5 98.75 87.5 98.75 47.5 58.75"/>
  <rect class="cls-1" x="37.5" y="103.75" width="20" height="20" rx="2" ry="2"/>
  <path class="cls-7" d="M109.5,113.75h13.5c1.10383,0,2,.89617,2,2v23h-17.5v-23c0-1.10383.89617-2,2-2Z"/>
</svg>