<?xml version="1.0" encoding="UTF-8"?>
<svg id="Layer_1" data-name="Layer 1" xmlns="http://www.w3.org/2000/svg" viewBox="0 0 150 150">
  <defs>
    <style>
      .cls-1 {
        fill: #2c2b32;
      }

      .cls-2 {
        fill: #df9e81;
      }

      .cls-3 {
        fill: #b5c082;
      }

      .cls-4 {
        fill: #f6e6c4;
      }

      .cls-5 {
        fill: #425636;
      }

      .cls-6 {
        fill: #b35d38;
      }

      .cls-7 {
        fill: #c2572c;
      }
    </style>
  </defs>
  <rect class="cls-4" x="23.7380134" y="47.4109889" width="85.4518389" height="64.5380005"/>
  <polygon class="cls-2" points="130.2261654 129.904426 37.3957208 129.904426 37.3957208 111.6855578 57.882282 111.6855578 58.2565856 43.890216 130.2261654 43.890216 130.2261654 129.904426"/>
  <g>
    <path class="cls-5" d="M109.1898523,47.4109889l-27.3154149-27.3154149-26.9153899,26.9153899c-.2561317.2561317-.400025.6035208-.400025.9657458v70.8791384c0,.7542944.6114764,1.3657707,1.3657707,1.3657707h53.265059V47.4109889Z"/>
    <path class="cls-6" d="M57.882282,92.9062039l-27.3154149-27.3154149L3.6514772,92.5061789c-.2561317.2561317-.400025.6035208-.400025.9657458v25.3839234c0,.7542944.6114764,1.3657707,1.3657707,1.3657707h53.265059v-27.3154149Z"/>
    <path class="cls-4" d="M30.5668671,65.590789h36.9929747c.3622249,0,.7096141.1438933.9657458.400025l26.9153899,26.9153899v25.9496441c0,.7542944-.6114764,1.3657707-1.3657707,1.3657707h-36.1929247v-27.3154149l-27.3154149-27.3154149Z"/>
    <path class="cls-3" d="M81.8744374,20.095574h36.9929747c.3622249,0,.7096141.1438933.9657458.400025l26.9153899,26.9153899v71.4448592c0,.7542944-.6114764,1.3657707-1.3657707,1.3657707h-36.1929247V47.4109889l-27.3154149-27.3154149Z"/>
    <polygon class="cls-4" points="81.8744374 20.095574 119.4331329 20.095574 146.7485478 47.4109889 109.1898523 47.4109889 81.8744374 20.095574"/>
    <rect class="cls-1" x="75.0455837" y="50.8254157" width="13.6577074" height="13.6577074" rx="2" ry="2"/>
    <g>
      <rect class="cls-4" x="113.7617407" y="56.4375575" width="11.950494" height="12.5043269" rx="2" ry="2"/>
      <rect class="cls-4" x="130.2261654" y="56.4375575" width="11.950494" height="12.5043269" rx="2" ry="2"/>
    </g>
    <g>
      <rect class="cls-4" x="113.7617407" y="76.6674393" width="11.950494" height="12.5043269" rx="2" ry="2"/>
      <rect class="cls-4" x="130.2261654" y="76.6674393" width="11.950494" height="12.5043269" rx="2" ry="2"/>
    </g>
    <g>
      <rect class="cls-4" x="113.7617407" y="96.897321" width="11.950494" height="12.5043269" rx="2" ry="2"/>
      <rect class="cls-4" x="130.2261654" y="96.897321" width="11.950494" height="12.5043269" rx="2" ry="2"/>
    </g>
    <polygon class="cls-2" points="30.5668671 65.590789 68.1255626 65.590789 95.4409774 92.9062039 57.882282 92.9062039 30.5668671 65.590789"/>
    <rect class="cls-1" x="23.7380134" y="96.3206308" width="13.6577074" height="13.6577074" rx="2" ry="2"/>
    <path class="cls-7" d="M73.5399894,103.1494845h7.950494c1.10383,0,2,.89617,2,2v15.0721343h-11.950494v-15.0721343c0-1.10383.89617-2,2-2Z"/>
  </g>
</svg>