<?xml version="1.0" encoding="UTF-8"?>
<svg id="Layer_1" data-name="Layer 1" xmlns="http://www.w3.org/2000/svg" viewBox="0 0 150 150">
  <defs>
    <style>
      .cls-1 {
        fill: #df9e81;
      }

      .cls-2 {
        fill: #f6e6c4;
      }

      .cls-3 {
        fill: #425636;
      }

      .cls-4 {
        fill: #b35d38;
      }
    </style>
  </defs>
  <circle class="cls-1" cx="75" cy="75" r="69.5868888"/>
  <g>
    <path class="cls-2" d="M118.9562149,97.6262849l-20.7514401,23.5346317c-11.3408168,12.8618518-30.9906922,14.0159533-43.759179,2.5701198l-.5872772-.5264427,36.0348201-40.8678249,29.0630761,15.2895161Z"/>
    <path class="cls-3" d="M84.7106671,87.2093059l.2198454.7571535-7.9536314,9.0203757-3.372703.4476572s.2452717.2250156.7548074.6826269c.7061414.6313831,1.9117722,1.7027697,3.6640087,3.2477877l.0239972.0211593,19.8269685,17.9943023.4662139.419621c1.4754681,1.3266039,1.8215113,3.5857993.6432087,5.1833852-1.3544497,1.8264185-3.9430634,2.0525652-5.5914499.5737004l-.5909606-.5298235-10.9045181-9.7941145c-.2167052-.1994107-.5508891-.178464-.7503912.0381085l-.0508444.0576636c-.1946968.2208096-.1736398.5549866.0423938.7454721l9.8093213,8.8201021c.379939.3433406.681774.746141.9040947,1.1811174.6395553,1.2295157.621806,2.7496268-.2069119,3.9217401-1.0618363,1.5042465-2.9547949,1.9769227-4.5226182,1.3453073l-.004776-.0042112c-.3997895-.1562698-.7813093-.3816348-1.1227318-.6912222l-9.9294401-8.9258074c-.2160336-.1904856-.5508891-.178464-.7455859.0423456l-.0041337.0046881c-.1996054.2166897-.1827855.555672.0380534.7503946l8.8913834,7.9934281c.7548367.6826527,1.2161086,1.6014342,1.3214431,2.5561465.105084.87762-.0874403,1.7830215-.6244669,2.5469454-.7620619,1.0771438-1.9430803,1.6230092-3.1225077,1.6155118-.9067317.0025436-1.8068543-.3217781-2.527515-.9657551l-9.0113988-8.0992506c-.2166018-.1995279-.5555911-.1828182-.7502878.0379913-.1948001.2209268-.1785484.5508667.0380534.7503946l6.7876041,6.121358c1.4706628,1.3223668,1.821482,3.5857735.6425371,5.1744601-1.3411704,1.8210449-3.9153974,2.0598769-5.5715864.5995478l-.0240265-.0211852-7.2975755-6.588103-.206423-.1820115-11.8423488-10.6466617-2.6457777-2.4864241c-2.3503202-2.115079-3.997288-4.7278481-4.9042417-7.5412016l-15.1154452-13.3279016c-12.8422698-11.3235506-14.0154345-30.9356955-2.6146225-43.7094254l.5145708-.5765369,25.6304943,22.5994472,1.7839251,1.6154572.6492372.5895414c.1295967.1142707.264028.2328042.394193.3561172.7254659.648214,1.5085369,1.3472208,2.2334346,1.9863925.3456303.3047562.6822475.6101066,1.0086859.8979405.3114835.2661064,1.7276417,1.5147905,1.7276417,1.5147905l2.5746437-.6651113c1.4181993-.2342382,2.9322317-.3158547,4.5816993-.2607616.0048053.004237.0138476.0036688.02289.0031005,1.2859129.0416011,2.6497593.1690019,4.0952372.3683805.0048053.004237.0090423-.0005683.0138476.0036688l12.704485,2.4301795Z"/>
    <path class="cls-1" d="M77.0832411,64.3770202c1.445552.1992356,2.8093243.3267794,4.0952372.3683805-1.2807537.039611-2.5886999-.064124-3.9068904-.3304264l-.1883469-.0379541Z"/>
    <path class="cls-2" d="M95.6191074,26.2954357l.5197933.4659958-31.0694281,35.2364725c.0784932.240036.1618657.4841659.2229459.7342636.0511897.1645054.0938313.3387645.1365469.5128805,1.2413637,5.1049979.2088977,11.5501193-1.9884819,20.671249l-.1479756.748441c-.4795891.1108804-.84338.2295703-1.2278693.3171972-.4604382.1060723-1.3467744.3479141-1.3467744.3479141,0,0-1.4161582-1.2486842-1.7276417-1.5147905-.3264384-.2878339-.6630556-.5931843-1.0086859-.8979405-.5670374-.5085212-1.1388801-1.0212794-1.6675044-1.4959301l-.6492372-.5895414-1.7839251-1.6154572-.9598821-4.3791181s-.5726191.6300453-1.7668934,1.9748094c-.5803922.6486069-1.2957271,1.4598828-2.1634918,2.4440325l-18.4392387,20.3219522c-.23283.2640573-.4998069.4894647-.7829045.675034-.0259905.0197895-.0610233.0401472-.0917897.0557255-1.3132015.8215875-3.0251174.8566328-4.304535-.0923234-1.526247-1.1238893-1.9425201-3.1291908-1.1537627-4.7204792.0237174-.0559588.048003-.1028753.076555-.1545713.1339619-.2487381.3046615-.490707.5035953-.7163219l10.3286778-11.4914036c.1904597-.2160043.1736398-.5549866-.0471698-.7496833l-.057605-.0507927c-.2117965-.1952909-.5508891-.178464-.7455859.0423456l-8.8157255,9.8045349c-.8217256.922249-2.0066634,1.4048697-3.1752172,1.3559207-.1089144-.0022886-.214234-.0182818-.32382-.0294955-.5625454-.078122-1.1151393-.283713-1.6039634-.6293164-.754742-.537576-1.2456816-1.2775263-1.4684424-2.0797485-.0446055-.1332844-.0754668-.2627829-.0977506-.4020092-.1872459-1.1038083.1158114-2.2700649.9211571-3.1640504l8.916846-9.9289046c.1995021-.2165725.1827562-.5556979-.0380534-.7503946l-.0048053-.004237c-.2167052-.1994107-.5556944-.182701-.7503912.0381085l-7.9934316,8.8913283c-1.3006358,1.455763-3.5086812,1.8212314-5.1030005.6971088-1.8932475-1.3366604-2.149979-3.9777095-.6450359-5.6458081l8.0945521-9.0156979c.1995021-.2165725.1784451-.5507495-.0381567-.7502774-.2208096-.1946968-.5550968-.1736329-.7455566.0423714l-6.1262219,6.7833154c-1.3217176,1.4796723-3.5808872,1.8256862-5.1785576.6473613-1.6408888-1.2164324-1.9937012-3.4388902-.9669632-5.0678298.1109162-.1838542.2451579-.3554742.3933507-.5235426l6.5876157-7.3066506.1819857-.2063937,9.0612667-10.0830082.4915472-.5477869,3.513709-3.9075335c2.1192609-2.355122,4.7950017-3.9381281,7.6082846-4.8448836l14.886728-16.8833421c11.3412126-12.8623007,30.991953-14.0159644,43.7603181-2.5690986Z"/>
    <path class="cls-4" d="M75.4901804,8.2475477c-.938001.1541305-1.826814.6589092-2.4495111,1.5006201-1.1789449,1.5886866-.8281257,3.8520933.6425371,5.1744601l6.7876041,6.121358c.2165725.1995021.2327502.5295851.0380534.7503946s-.533686.2375192-.7502878.0379913l-9.0113988-8.0992506c-.7206606-.643977-1.6207833-.9682987-2.527515-.9657551-1.1794274-.0074974-2.3604459.538368-3.1226111,1.615629-.5369232.7638067-.7294475,1.6692081-.6243636,2.5468282.1053345.9547123.5666064,1.8734938,1.3214431,2.5561465l8.8913834,7.9934281c.2208389.1947226.2375555.5338221.0380534.7503946l-.0041337.0046881c-.1948001.2209268-.5295523.2328311-.7455859.0423456l-9.9294401-8.9258074c-.3414225-.3095874-.7229423-.5349524-1.1227318-.6912222l-.0048053-.004237c-.5860691-.2353158-1.2215662-.3177651-1.8383742-.2472835-1.0313104.1147704-2.0177224.6528616-2.6842148,1.5926167-.4618966.6593437-.6767047,1.4255189-.6555994,2.1951348.010396.597889.1700834,1.1909623.4485842,1.7267225.2224241.4348591.5242591.8376596.9040947,1.1811174l9.8094247,8.8199849c.2160336.1904856.2370905.5246626.0422904.7455893l-.050741.0575464c-.1995021.2165725-.5337893.2376364-.7503912.0381085l-10.9045181-9.7941145-.5910639-.5297063c-.1728151-.1523781-.3487308-.2818663-.5372834-.3970815-1.6284007-1.0177216-3.8375533-.670312-5.0540632.9706647-1.0282199,1.3886859-.8957728,3.2803867.1226753,4.6221229.1534381.2034144.3237211.3877249.5205334.5612623l.4662139.419621,19.8269685,17.9943023.0239972.0211593c1.1281623.9947465,2.0306804,1.7905333,2.7177039,2.4048511.3792674.3344155.6918581.6185806.9463048.8429366.5094324.4577285.7548074.6826269.7548074.6826269l-3.4661975.4762557-7.89855,8.9579067c.0784932.240036.1618657.4841659.2229459.7342636l12.7397977,2.4869399c.0048053.004237.0090423-.0005683.0138476.0036688,1.4454487.1993528,2.8093243.3267794,4.0952372.3683805.0090423-.0005683.0180847-.0011365.0228607.0030747,1.6314122.0562555,3.1321653-.0199874,4.5371145-.2488262l.2240527-1.12509c.4603348-.1059551.9148604-.2343233,1.3542985-.3843277.0669358-.0178514,34.468415,30.3922006,34.468415,30.3922006l.4916505-.5479041s.001876-.0020995.0055923-.0062588c11.4123849-12.7723923,10.2472264-32.3977227-2.600077-43.7257116l-15.1169292-13.3292101c-.906821-2.8134449-2.4945738-5.493371-4.844894-7.60845l-2.7008591-2.4239551-11.8422455-10.6467789-.206423-.1820115-7.2975755-6.588103-.0240265-.0211852c-.8881022-.7830757-2.0400531-1.073415-3.1220753-.9010723Z"/>
    <path class="cls-4" d="M91.0439387,66.1879803c-.9889257-.8719759-1.7169238-1.4882576-1.7657749-1.4715428-.4394674.1499786-.8939637.2783726-1.3542985.3843277-.3977394.0930262-.8098947.1733414-1.222589.24464l.2240527-1.12509c.4603348-.1059551.9148604-.2343233,1.3542985-.3843277.0669358-.0178514,1.2947557,1.0476847,2.7643112,2.3519927Z"/>
    <path class="cls-2" d="M114.9199549,67.5805208l.0576343.0508185c.2117672.195265.5507565.1785554.7455566-.0423714l8.8157255-9.8045349c.8217256-.922249,2.0066927-1.4048439,3.1751138-1.3558035.1047807.0069767.2095613.0139534.3148069.0300896.5668858.0731995,1.1194504.2787647,1.6130797.6286051.7637843.5370077,1.2552922,1.2860004,1.4737126,2.0931451.0399036.1289302.0706614.2585459.0924803.3886126.1872459,1.1038083-.1158114,2.2700649-.9212605,3.1641676l-8.9167427,9.9287874c-.1994728.2165984-.1827562.5556979.0380534.7503946l.0048053.004237c.2166018.1995279.5556944.182701.7503912-.0381085l7.9934316-8.8913283c1.3006651-1.4557372,3.5086812-1.8212314,5.1030005-.6971088,1.8932475,1.3366604,2.1500083,3.9777354.6450359,5.6458081l-8.0945521,9.0156979c-.1995021.2165725-.1784451.5507495.0381567.7502774.2208389.1947226.5550228.1737759.7454825-.0422284l6.1261926-6.7833413c1.3218502-1.4797637,3.5809905-1.8258034,5.1786609-.6474785,1.6409181,1.2164582,1.9937012,3.4388902.9669925,5.0678557-.1109162.1838542-.2452906.3555655-.39338.5235168l-6.5876157,7.3066506-.1819857.2063937-9.0612667,10.0830082-.4916505.5479041-3.5135763,3.9074422c-2.1192902,2.3550962-4.7278153,3.997369-7.5412016,4.9042417l-.004237.0048053c-5.7142512,1.8645226-12.2353318.7054477-17.027185-3.6051365l-4.0814748-3.6840064-2.3262937-2.0938939-.0127111.0144159c-1.5139105-1.3605001-2.6825722-2.7834382-3.549727-4.3161328-.4790767-.8405268-.8647622-1.7095348-1.1628949-2.6294632-.1387252-.4039731-.2600374-.8180079-.3594928-1.2471441-1.2413637-5.1049979-.2088977-11.5501193,1.9885112-20.6712231l.1417454-.7026869c.4126943-.0712986.8248496-.1516138,1.222589-.24464.4603348-.1059551.9303348-.2519322,1.3698022-.4019107l6.8281313,6.0180488.9571986,4.4103886s.5726191-.6300453,1.7667901-1.9746922c.5805249-.6486983,1.2958598-1.4599742,2.1636245-2.4441239l18.4392094-20.3219781c.23283-.2640573.4998362-.4894389.7829045-.675034.0259905-.0197895.0567862-.0353419.0874493-.050803,1.3133049-.8217047,3.0246524-.8657923,4.3088754.0874009,1.5310523,1.1281263,1.9382831,3.1339961,1.1494517,4.7254276-.0194063.0510105-.047929.1027323-.0722439.1496229-.1339619.2487381-.3046615.490707-.5035953.7163219l-10.3286778,11.4914036c-.1904597.2160043-.1736398.5549866.0471698.7496833Z"/>
  </g>
</svg>