<?xml version="1.0" encoding="UTF-8"?>
<svg id="Layer_1" data-name="Layer 1" xmlns="http://www.w3.org/2000/svg" viewBox="0 0 150 150">
  <defs>
    <style>
      .cls-1 {
        fill: #b5c082;
      }

      .cls-2 {
        fill: #f6e6c4;
      }

      .cls-3 {
        fill: #c56b2f;
      }
    </style>
  </defs>
  <path class="cls-2" d="M13.5,25h123c3.3114901,0,6,2.6885099,6,6v88c0,3.3114901-2.6885099,6-6,6H13.831787c-3.4946084,0-6.331787-2.8371786-6.331787-6.331787V31c0-3.3114901,2.6885099-6,6-6Z"/>
  <path class="cls-1" d="M7.5,110h135v9c0,3.3114901-2.6885099,6-6,6H13.5c-3.3114901,0-6-2.6885099-6-6v-9h0Z"/>
  <path class="cls-3" d="M91.5,68.7482838l-30.3397826-17.5166816c-1.3333333-.7698004-3,.1924501-3,1.7320508v35.0333632c0,1.5396007,1.6666667,2.5018512,3,1.7320508l30.3397826-17.5166816c1.3333333-.7698004,1.3333333-2.6943013,0-3.4641016Z"/>
</svg>