<?xml version="1.0" encoding="UTF-8"?>
<svg id="Layer_1" data-name="Layer 1" xmlns="http://www.w3.org/2000/svg" viewBox="0 0 150 150">
  <defs>
    <style>
      .cls-1 {
        fill: #df9e81;
      }

      .cls-2 {
        fill: #b5c082;
      }

      .cls-3 {
        fill: #f6e6c4;
      }

      .cls-4 {
        fill: #425636;
      }

      .cls-5 {
        fill: #b35d38;
      }
    </style>
  </defs>
  <path class="cls-2" d="M5.5400581,13.4907914h97.3835388c17.0162856,0,30.8313505,13.8150649,30.8313505,30.8313505v92.1870666H36.3714086c-17.0162856,0-30.8313505-13.8150649-30.8313505-30.8313505V13.4907914h0Z" transform="translate(139.2950055 150) rotate(180)"/>
  <g>
    <g>
      <path class="cls-5" d="M57.5187384,38.44126l-1.3149227-6.5894749c-.4007691-2.0083753-2.1638355-3.4543834-4.211807-3.4543834h-28.23898c-2.7094866,0-4.7420285,2.4782062-4.211807,5.1353066l15.8824192,84.5402299,93.1717834-4.8609876c2.7094866,0,4.7420285-2.4782062,4.211807-5.1353066l-12.5170297-62.7266172c-.4007691-2.0083753-2.1638355-3.4543834-4.211807-3.4543834h-54.3478493c-2.0479715,0-3.8110378-1.4460081-4.211807-3.4543834Z"/>
      <path class="cls-1" d="M72.3497435,45.9914391v-4.9085528c0-2.3719774-1.9228676-4.294845-4.294845-4.294845h-28.4083495c-2.3719774,0-4.294845,1.9228676-4.294845,4.294845v76.2248655c0,2.3719774,1.9228676,4.294845,4.294845,4.294845h89.8012073c2.3719774,0,4.294845-1.9228676,4.294845-4.294845v-62.7266228c0-2.3719774-1.9228676-4.294845-4.294845-4.294845h-52.8031678c-2.3719774,0-4.294845-1.9228676-4.294845-4.294845Z"/>
      <path class="cls-3" d="M84.9839254,52.171109l.6368972-3.2630088c.5176531-2.6520869-1.5131641-5.1176168-4.2152983-5.1176168h-28.2462525c-2.0547531,0-3.8216653,1.4553771-4.2152983,3.4720732l-13.511323,69.2224249c-.5176531,2.6520869,1.5131641,5.1176168,4.2152983,5.1176168h89.6391081c2.0547531,0,3.8216653-1.4553771,4.2152983-3.4720732l10.8766405-55.7241826c.5176531-2.6520869-1.5131641-5.1176168-4.2152983-5.1176168h-50.9644735c-2.7021343,0-4.7329514-2.4655299-4.2152983-5.1176168Z"/>
    </g>
    <rect class="cls-4" x="61.9466903" y="76.3284548" width="63.9624533" height="6.0945384" rx="3.0472662" ry="3.0472662"/>
    <rect class="cls-4" x="58.3491431" y="93.5972435" width="63.9624531" height="6.0945384" rx="3.0472651" ry="3.0472651"/>
  </g>
</svg>