<?xml version="1.0" encoding="UTF-8"?>
<svg id="Layer_1" data-name="Layer 1" xmlns="http://www.w3.org/2000/svg" viewBox="0 0 150 150">
  <defs>
    <style>
      .cls-1 {
        fill: #f9e9c6;
      }

      .cls-2 {
        fill: #b5c082;
      }

      .cls-3 {
        fill: #425636;
      }

      .cls-4 {
        fill: #c56b2f;
      }
    </style>
  </defs>
  <path class="cls-2" d="M63.3900735,13.4907914h73.7173711c1.10383,0,2,.89617,2,2v68.5208989c0,28.9741691-23.5233492,52.4975182-52.4975182,52.4975182H12.8925553c-1.10383,0-2-.89617-2-2v-68.5208989c0-28.9741691,23.5233492-52.4975182,52.4975182-52.4975182Z"/>
  <g>
    <g>
      <path class="cls-4" d="M23.4030543,99.5843717l2.6831016,8.2651913c1.407933,4.3370836,4.4811021,7.9372315,8.5434438,10.0084507l.00001.0000051c2.3778957,1.2123902,5.0054107,1.8544952,7.6744627,1.8754644l20.940624.1645183.1571235-19.9993828-39.9987656-.3142471Z"/>
      <path class="cls-4" d="M40.0919415,95.5928768l-17.6345744-.4018561-.3190195-2.8699086c-.343042-3.086016.3219372-6.2001744,1.8955267-8.8769241l7.3384706-12.4830833-6.8965637-4.0543073,24.6394574-6.3950809,6.3950812,24.6394603-6.8965676-4.0543007-8.5218107,14.4960005Z"/>
    </g>
    <g>
      <path class="cls-1" d="M81.6918857,24.3360748l-8.4994163-1.8089616c-4.459991-.9492361-9.114395-.0878676-12.9392943,2.3946139l-.0000094.0000061c-2.2389086,1.4531229-4.1087453,3.4075651-5.4614311,5.7085473l-10.6127891,18.0528529,17.2414115,10.1357644,20.2715287-34.482823Z"/>
      <path class="cls-1" d="M76.803962,40.7841439l9.1653045-15.0710615,2.6449235,1.1586753c2.8440893,1.2459249,5.20854,3.378893,6.7398785,6.0800363l7.1414321,12.5968435,6.9594149-3.9454459-6.7814258,24.5359366-24.5359393-6.781427,6.9594111-3.9454525-8.2929996-14.6281047Z"/>
    </g>
    <g>
      <path class="cls-3" d="M105.9132282,99.9825786l8.4692699,15.4729176-2.325904,1.7112333c-2.5010473,1.8400912-5.5304772,2.8212815-8.6354052,2.7968878l-14.4799028-.1137602-.0628512,7.9997531-17.8580316-18.1408557,18.1408581-17.8580333-.0628435,7.9997532,16.8148103.1321042Z"/>
      <path class="cls-3" d="M117.7141916,112.4391527l5.8163147-6.4562297c3.052058-3.3878476,4.6332929-7.8493639,4.3958505-12.4030646l-.0000006-.0000112c-.1389871-2.6655132-.8966654-5.2620604-2.2130315-7.5840117l-10.327835-18.2173712-17.398535,9.8636184,19.7272368,34.79707Z"/>
    </g>
  </g>
</svg>