<?xml version="1.0" encoding="UTF-8"?>
<svg id="Layer_1" data-name="Layer 1" xmlns="http://www.w3.org/2000/svg" viewBox="0 0 150 150">
  <defs>
    <style>
      .cls-1 {
        fill: #2c2b32;
      }

      .cls-2 {
        fill: #df9e81;
      }

      .cls-3 {
        fill: #b5c082;
      }

      .cls-4 {
        fill: #f6e6c4;
      }

      .cls-5 {
        fill: #425636;
      }

      .cls-6 {
        fill: #b35d38;
      }
    </style>
  </defs>
  <rect class="cls-4" x="7.3776622" y="7.0272523" width="67.7102484" height="73.3955378"/>
  <rect class="cls-2" x="21.6188012" y="80.4227901" width="53.4691094" height="62.5499577"/>
  <rect class="cls-3" x="74.9723625" y="50.1176049" width="67.6499753" height="78.0612149"/>
  <path class="cls-5" d="M95.5373569,30.2978676c3.8381179.3885557,5.9250073,4.7401111,4.1419503,8.1610514l-1.3546856,2.5990748-9.1414509,17.5369646c-.7740674,1.4849713-2.3097234,2.4162515-3.9843339,2.4162515h-20.387687c-1.673898,0-3.2090242-.9304957-3.9834171-2.4144937l-9.1522106-17.5387224-1.3547107-2.5988345c-1.7832741-3.4209771.3036401-7.772726,4.1418911-8.1612881.1995774-.020204.4021117-.0305525.6071103-.0305525,2.5443807,0,4.7092551,1.594449,5.5519224,3.8408805.4680831,1.2478431,1.6417482,2.0876448,2.974495,2.0876452h.0000054c1.4282079.0000004,2.7537486-.9028492,3.1326772-2.2798716.9988954-3.6299745,4.3244719-6.297679,8.271019-6.297679,3.9467804,0,7.2722014,2.6677045,8.2710384,6.2976789.3789049,1.3770164,1.7044279,2.2798722,3.1326237,2.279872h.0013945c1.3315525-.0000003,2.5050675-.8380991,2.9733362-2.0845968.8445145-2.2480371,3.0151667-3.8439292,5.5520063-3.8439292.2049691,0,.4074753.0103472.607026.0305489Z"/>
  <circle class="cls-1" cx="75" cy="16.1274506" r="6.8457617"/>
  <rect class="cls-6" x="61.5606037" y="61.01121" width="26.8787926" height="6.0556963" rx="2.6404053" ry="2.6404053"/>
  <path class="cls-6" d="M101.4051432,128.8781238h-.9774995s.0652317-.0650918.0652317-.0650918c2.9403998-2.9340899,2.9429573-7.6970959.0057102-10.6343418l-2.058412-2.0584112c-1.0037163-1.0037159-.9935824-2.6383502.0065803-3.6456072,1.0207725-1.0280131.9920244-2.6968827-.0653714-3.6891865l-3.0563126-2.8684085c-5.7580888-5.4040777-9.0244393-12.9491798-9.0244393-20.8459919v-11.6677106c0-1.257004-1.0100188-2.2794155-2.2669458-2.2933301-3.0645306-.0339253-8.239406-.077859-9.0338248.0014463-.7944188-.0793053-5.9692942-.0353716-9.0338248-.0014463-1.256927.0139146-2.2669458,1.036326-2.2669458,2.2933301v11.6677106c0,7.897434-3.2667954,15.4430883-9.0255859,20.8473269l-3.0964171,2.9057797c-1.0730039,1.0069422-.9844841,2.6381584.0292017,3.7047938.9580832,1.0081285.9425921,2.6022368-.0464633,3.5912922l-2.0469707,2.0469707c-2.9390974,2.9390974-2.9416617,7.7035244-.0057297,10.6457839l.0649518.0650918h-.9775133c-1.1334148,0-2.1839169.7744401-2.3659945,1.8931344-.2320332,1.4256243.8619478,2.65783,2.2440869,2.65783h53.0544093c1.3820983,0,2.4763941-1.232133,2.2443785-2.6577038-.1820882-1.1188023-1.2327767-1.8932606-2.3662999-1.8932606Z"/>
</svg>