<?xml version="1.0" encoding="UTF-8"?>
<svg id="Layer_1" data-name="Layer 1" xmlns="http://www.w3.org/2000/svg" viewBox="0 0 150 150">
  <defs>
    <style>
      .cls-1 {
        fill: #2c2b32;
      }

      .cls-2 {
        fill: #df9e81;
      }

      .cls-3 {
        fill: #b5c082;
      }

      .cls-4 {
        fill: #f6e6c4;
      }

      .cls-5 {
        fill: #425636;
      }

      .cls-6 {
        fill: #b35d38;
      }
    </style>
  </defs>
  <g>
    <path class="cls-5" d="M39.0135227,13.2560124h59.9525062v82.3253168H4.4691287v-47.7809228c0-19.0655701,15.4788239-34.544394,34.544394-34.544394Z"/>
    <path class="cls-2" d="M74.8434789,63.3641567h70.6873924v73.3798309H40.2990849v-38.8354369c0-19.0655701,15.4788239-34.544394,34.544394-34.544394Z" transform="translate(185.8299562 200.1081443) rotate(180)"/>
  </g>
  <g>
    <g>
      <path class="cls-3" d="M89.7129194,60.7735792h23.4245558c2.7144931,0,4.918317,2.203824,4.918317,4.918317v.0000098c0,2.7144933-2.2038241,4.9183174-4.9183174,4.9183174h-23.4245555v-9.8366442h0Z" transform="translate(38.1924181 169.5762341) rotate(-89.9999799)"/>
      <polygon class="cls-1" points="108.8026745 75.4201378 108.802673 79.8633394 98.9660289 79.863336 98.9660338 63.3641504 108.8026745 75.4201378"/>
      <path class="cls-6" d="M81.3416654,101.1619208h52.4052885c1.10383,0,2,.89617,2,2v14.6398953c0,1.10383-.89617,2-2,2h-52.4052893c-5.1438138,0-9.3199379-4.1761242-9.3199379-9.3199379v-.0000186c0-5.1438142,4.1761245-9.3199388,9.3199388-9.3199388Z" transform="translate(-6.597564 214.3661705) rotate(-89.9999802)"/>
      <path class="cls-4" d="M87.360282,7.6555179h-.0000105c-2.9071271-.000001-5.26382,2.3566903-5.263821,5.2638174l-.0000092,33.482677c-.0000032,9.3679269,7.5941994,16.9621348,16.9621263,16.962138l10.5497957.0000037c9.3679269.0000032,16.9621348-7.5941994,16.962138-16.9621263l.0000092-33.482677c.000001-2.9071271-2.3566903-5.26382-5.2638174-5.263821h-.0000105c-2.9071271-.000001-5.26382,2.3566903-5.263821,5.2638174l-.0000081,23.3825463c-.0000006,1.7798895-1.4428867,3.2227746-3.2227762,3.222774h-.0000064c-1.7798895-.0000006-3.2227746-1.4428867-3.222774-3.2227762l.0000081-23.3825463c.000001-2.9071271-2.3566903-5.26382-5.2638174-5.263821h-.0000105c-2.9071271-.000001-5.26382,2.3566903-5.263821,5.2638174l-.0000081,23.3825463c-.0000006,1.7798895-1.4428867,3.2227746-3.2227762,3.222774h-.0000064c-1.7798895-.0000006-3.2227746-1.4428867-3.222774-3.2227762l.0000081-23.3825463c.000001-2.9071271-2.3566903-5.26382-5.2638174-5.263821Z"/>
    </g>
    <g>
      <path class="cls-3" d="M31.0459694,60.7735792h23.4245558c2.7144931,0,4.9183171,2.203824,4.9183171,4.9183171v.0000098c0,2.7144931-2.203824,4.9183172-4.9183172,4.9183172h-23.4245557v-9.8366441h0Z" transform="translate(-20.4745111 110.9092843) rotate(-89.9999801)"/>
      <polygon class="cls-1" points="50.1357246 75.4201378 50.135723 79.8633394 40.2990789 79.863336 40.2990839 63.3641504 50.1357246 75.4201378"/>
      <path class="cls-6" d="M22.674715,101.1619208h52.405289c1.10383,0,2,.89617,2,2v14.6398953c0,1.10383-.89617,2-2,2H22.674715c-5.143814,0-9.3199383-4.1761243-9.3199383-9.3199383v-.0000186c0-5.143814,4.1761243-9.3199383,9.3199383-9.3199383Z" transform="translate(-65.2644937 155.6992205) rotate(-89.9999802)"/>
      <path class="cls-4" d="M23.4294944,38.0282092l-.0000049,13.8561176c-.0000022,6.3401288,5.237509,11.4798206,11.6983089,11.4798227l21.0774342.0000072c6.4607998.0000022,11.6983147-5.139686,11.698317-11.4798148l.0000049-13.8561174c.0000007-1.8903204-.4911948-3.7494208-1.4271638-5.4015988l-10.9085239-19.2557904c-4.317015-7.6204202-15.4856469-7.6204241-19.8026673-.0000068l-10.9085375,19.2557828c-.9359702,1.6521773-1.4271669,3.5112774-1.4271676,5.4015978Z"/>
    </g>
  </g>
</svg>