<?xml version="1.0" encoding="UTF-8"?>
<svg id="Layer_1" data-name="Layer 1" xmlns="http://www.w3.org/2000/svg" viewBox="0 0 150 150">
  <defs>
    <style>
      .cls-1 {
        fill: #2c2b32;
      }

      .cls-2 {
        fill: #df9e81;
      }

      .cls-3 {
        fill: #b5c082;
      }

      .cls-4 {
        fill: #f6e6c4;
      }

      .cls-5 {
        fill: #b35d38;
      }
    </style>
  </defs>
  <rect class="cls-4" x="17.5" y="62.8808046" width="115" height="65" rx="2" ry="2"/>
  <rect class="cls-3" x="72.5" y="62.8808046" width="60" height="65" rx="2" ry="2"/>
  <path class="cls-5" d="M27.5,42.8808046l14.7214663,95.1079349c.1607293.9643759.9951095,1.671202,1.9727878,1.671202h61.5156602c1.0190984,0,1.8752269-.7662716,1.9877675-1.7791369l9.5555556-92.7791369c.1316369-1.1847319-.7957449-2.2208631-1.9877675-2.2208631H27.5Z"/>
  <path class="cls-1" d="M54.1023727,13.1609354h25.8398694c1.10383,0,2,.89617,2,2v10.5962469h-29.8398694v-10.5962469c0-1.10383.89617-2,2-2Z" transform="translate(-2.6675111 15.7208964) rotate(-13.1195671)"/>
  <path class="cls-5" d="M27.5,42.8808046l-2.0081449-8.0325795c-.2705321-1.0821283.3964253-2.1764277,1.4822063-2.4319056L108.0800173,13.3325653c1.0646632-.250509,2.1330933.4006815,2.3983637,1.4617631l1.5297639,6.1190557c.2705321,1.0821283-.3964253,2.1764277-1.4822063,2.4319056L27.5,42.8808046Z"/>
  <path class="cls-2" d="M79.4955771,65.0137413l-1.8712014,61c-.069989,1.0506383-.9426102,1.8670633-1.9955771,1.8670633h-1.2575971c-1.0529669,0-1.9255881-.8164251-1.9955771-1.8670633l-1.8712014-61c-.0768964-1.1543296.8386891-2.1329367,1.9955771-2.1329367h5c1.156888,0,2.0724735.9786071,1.9955771,2.1329367Z"/>
  <path class="cls-1" d="M58.748169,127.8808046h-1.1113917c-1.0023671,0-1.8499162-.7420056-1.9824425-1.7355732l-8.1364455-61c-.1599278-1.1989999.7728238-2.2644268,1.9824425-2.2644268h5.1842827c1.0529669,0,1.9255881.8164251,1.9955771,1.8670633l4.0635545,61c.0768964,1.1543296-.8386891,2.1329367-1.9955771,2.1329367Z"/>
  <path class="cls-2" d="M102.4821108,65.1452315l-8.1364455,61c-.1325264.9935676-.9800755,1.7355732-1.9824425,1.7355732h-1.1113917c-1.156888,0-2.0724735-.9786071-1.9955771-2.1329367l4.0635545-61c.069989-1.0506383.9426102-1.8670633,1.9955771-1.8670633h5.1842827c1.2096188,0,2.1423704,1.0654269,1.9824425,2.2644268Z"/>
</svg>