<?xml version="1.0" encoding="UTF-8"?>
<svg id="Layer_1" data-name="Layer 1" xmlns="http://www.w3.org/2000/svg" viewBox="0 0 150 150">
  <defs>
    <style>
      .cls-1 {
        fill: #f9e9c6;
      }

      .cls-2 {
        fill: #df9e81;
      }

      .cls-3 {
        fill: #b5c082;
      }

      .cls-4 {
        fill: #425636;
      }

      .cls-5 {
        fill: #b35d38;
      }
    </style>
  </defs>
  <g>
    <path class="cls-3" d="M145.6986213,129.9257847h-70.6986213v-54.9257847h53.6075636c.7872562,0,1.4829917.5034752,1.7393389,1.2541343l17.0818945,51.2640657c.3936281,1.1808843-.4851487,2.4075847-1.7301756,2.4075847Z"/>
    <path class="cls-2" d="M75,75v54.9257847H4.3013787c-1.2450269,0-2.1238037-1.2267004-1.7301756-2.4075847l17.0818945-51.2640657c.2563471-.7506591.9520827-1.2541343,1.7393389-1.2541343h53.6075636Z"/>
  </g>
  <path class="cls-1" d="M38.3828102,93.3085949c0-32.0400411,36.6171898-73.2343796,36.6171898-73.2343796,0,0,36.6171898,41.1943385,36.6171898,73.2343796,0,20.2231155-16.3940743,36.6171898-36.6171898,36.6171898s-36.6171898-16.3940743-36.6171898-36.6171898Z"/>
  <path class="cls-4" d="M86.316061,48.1548574c0-11.8738155,13.5700749-27.1401498,13.5700749-27.1401498,0,0,13.5700749,15.2663343,13.5700749,27.1401498,0,7.4945454-6.0755295,13.5700749-13.5700749,13.5700749s-13.5700749-6.0755295-13.5700749-13.5700749Z"/>
  <path class="cls-5" d="M33.0767765,67.9952699c0-8.958667,10.2384765-20.4769531,10.2384765-20.4769531,0,0,10.2384765,11.5182861,10.2384765,20.4769531,0,5.6545545-4.5839221,10.2384765-10.2384765,10.2384765s-10.2384765-4.5839221-10.2384765-10.2384765Z"/>
</svg>